<svg width="24" height="24" viewBox="0 0 24 24" fill="none" xmlns="http://www.w3.org/2000/svg">
  <path d="M24 12C24 18.6274 18.6274 24 12 24C5.37258 24 0 18.6274 0 12C0 5.37258 5.37258 0 12 0C18.6274 0 24 5.37258 24 12Z" fill="black" />
  <path fill-rule="evenodd" clip-rule="evenodd" d="M7.35185 9.63609C7.3661 9.49674 7.31243 9.35929 7.20792 9.26576L6.14392 7.99037V7.8H9.44898L12.0035 13.3716L14.2493 7.8H17.4V7.99037L16.4899 8.8581C16.4115 8.91762 16.3726 9.0154 16.3887 9.11224V15.4882C16.3726 15.5846 16.4115 15.6824 16.4899 15.7419L17.3786 16.6096V16.8H12.9079V16.6096L13.8289 15.7206C13.9192 15.6309 13.9192 15.6044 13.9192 15.467V10.3135L11.3594 16.7792H11.0136L8.033 10.3135V14.647C8.0083 14.8288 8.0691 15.0126 8.19782 15.1439L9.3953 16.5884V16.7792H6V16.5884L7.19747 15.1439C7.32572 15.0121 7.38273 14.8274 7.35185 14.647V9.63609Z" fill="white" />
</svg>
  