<svg width="24" height="24" viewBox="0 0 24 24" fill="none" xmlns="http://www.w3.org/2000/svg">
	<path d="M24 12C24 18.6274 18.6274 24 12 24C5.37258 24 0 18.6274 0 12C0 5.37258 5.37258 0 12 0C18.6274 0 24 5.37258 24 12Z" fill="black" />
	<path d="M5.61045 12.2244L8.3693 13.2532L9.44478 16.7134C9.49154 16.9472 9.77211 16.994 9.95915 16.8537L11.5022 15.5912C11.6425 15.4509 11.8763 15.4509 12.0634 15.5912L14.8222 17.6019C15.0092 17.7421 15.2898 17.6486 15.3366 17.4148L17.394 7.59519C17.4408 7.36139 17.207 7.12759 16.9732 7.22111L5.61045 11.6166C5.32988 11.7101 5.32988 12.1309 5.61045 12.2244ZM9.30451 12.7388L14.7287 9.41884C14.8222 9.37208 14.9157 9.51236 14.8222 9.55912L10.38 13.7208C10.2397 13.8611 10.0994 14.0481 10.0994 14.2819L9.95915 15.4041C9.95915 15.5444 9.72534 15.5912 9.67858 15.4041L9.11746 13.3467C8.97717 13.1129 9.07071 12.8323 9.30451 12.7388Z" fill="white" />
</svg>
	