<svg width="24" height="24" viewBox="0 0 24 24" fill="none" xmlns="http://www.w3.org/2000/svg">
    <path d="M24 12C24 18.6274 18.6274 24 12 24C5.37258 24 0 18.6274 0 12C0 5.37258 5.37258 0 12 0C18.6274 0 24 5.37258 24 12Z" fill="black" />
    <path d="M18.36 8.94C17.94 9.12 17.46 9.24 16.98 9.3C17.46 9 17.88 8.52 18.06 7.98C17.58 8.28 17.1 8.46 16.5 8.58C16.08 8.1 15.42 7.8 14.76 7.8C13.44 7.8 12.36 8.88 12.36 10.2C12.36 10.38 12.36 10.56 12.42 10.74C10.44 10.62 8.63997 9.66 7.43997 8.22C7.25997 8.58 7.13997 9 7.13997 9.42C7.13997 10.26 7.55997 10.98 8.21997 11.4C7.79997 11.4 7.43997 11.28 7.13997 11.1C7.13997 12.24 7.97997 13.26 9.05997 13.44C8.87997 13.5 8.63998 13.5 8.39998 13.5C8.21998 13.5 8.09997 13.5 7.91997 13.44C8.21997 14.4 9.11998 15.12 10.2 15.12C9.35998 15.78 8.33998 16.14 7.19998 16.14C7.01998 16.14 6.83998 16.14 6.59998 16.08C7.67998 16.74 8.93997 17.16 10.32 17.16C14.76 17.16 17.16 13.5 17.16 10.32V10.02C17.64 9.84 18.06 9.42 18.36 8.94Z" fill="white" />
</svg>
    