<svg width="105" height="24" viewBox="0 0 105 24" fill="none" xmlns="http://www.w3.org/2000/svg">
    <path fill-rule="evenodd" clip-rule="evenodd" d="M29.9183 0H28.2033C28.108 0 28.0127 0 28.0127 0.0952374C27.9174 0.285712 27.7269 0.285712 27.6316 0.190475C27.441 0.142856 27.2743 0.214284 27.1075 0.285712C26.9408 0.35714 26.7741 0.428568 26.5835 0.380949C26.5128 0.522216 26.3898 0.506326 26.2531 0.488687C26.2055 0.482543 26.1563 0.476187 26.1071 0.476187C26.0118 0.476187 25.8212 0.476187 25.8212 0.571424C25.726 0.666662 25.6307 0.666662 25.5354 0.666662C25.4103 0.666662 25.3034 0.721397 25.1988 0.774968C25.0645 0.84379 24.9339 0.910689 24.7731 0.857136H24.6779C24.5826 0.952374 24.4873 0.952374 24.392 0.952374C24.2741 0.952374 24.1725 1.00096 24.067 1.05138C23.9166 1.12323 23.7584 1.19881 23.5345 1.14285H23.4392C23.3439 1.23809 23.2486 1.23809 23.1534 1.23809C23.0355 1.23809 22.9338 1.28667 22.8283 1.33709C22.6779 1.40895 22.5198 1.48452 22.2958 1.42856C22.2006 1.90475 22.1053 1.90475 22.01 1.90475H21.8194C21.5336 2.09522 21.2477 2.2857 20.9619 2.2857H20.8666C20.7611 2.44392 20.5971 2.45611 20.4394 2.46783C20.3124 2.47727 20.1894 2.48641 20.1044 2.57141C19.9138 2.66665 19.7232 2.76188 19.4374 2.76188C19.4374 2.76188 19.3421 2.76188 19.3421 2.85712C19.2468 2.95236 19.1515 2.95236 19.0563 2.95236C19.0086 2.95236 18.961 2.97617 18.9133 2.99998C18.8657 3.02379 18.8181 3.0476 18.7704 3.0476C18.718 3.07378 18.6656 3.10716 18.6113 3.1418C18.4679 3.23317 18.3107 3.33331 18.1035 3.33331C18.0082 3.33331 17.9129 3.33331 17.8176 3.42854C17.8176 3.52378 17.7223 3.52378 17.627 3.52378H17.3412C17.1867 3.75542 16.9696 3.73666 16.7914 3.72126C16.7498 3.71767 16.7103 3.71426 16.6742 3.71426C16.2931 3.71426 16.1978 3.61902 16.1025 3.23807C16.1025 3.14283 16.1025 3.0476 16.0073 2.95236C15.8167 2.76188 15.912 2.2857 16.1978 2.2857C16.5415 2.21699 16.6373 1.99956 16.7355 1.77648L16.7355 1.77646L16.7355 1.77644C16.7734 1.69033 16.8117 1.60337 16.8648 1.5238C16.9601 1.42856 16.9601 1.23809 16.7695 1.04761C16.6742 1.04761 16.6742 0.952374 16.6742 0.857136C16.579 0.666661 16.4837 0.476187 16.2931 0.476187H16.1978C16.1978 0.360845 16.128 0.350271 16.0517 0.338728C16.002 0.331209 15.9496 0.323278 15.912 0.285712H15.8167C15.748 0.148426 15.6794 0.159565 15.575 0.176491C15.5346 0.183049 15.4888 0.190475 15.4356 0.190475H14.8639C14.6819 0.129827 14.5385 0.223663 14.3845 0.324419C14.2967 0.381883 14.2055 0.441597 14.1016 0.476187C14.054 0.523805 13.9825 0.547615 13.9111 0.571424C13.8396 0.595234 13.7682 0.619043 13.7205 0.666662C13.6252 0.761899 13.6014 0.904755 13.5776 1.04761C13.5538 1.19047 13.53 1.33332 13.4347 1.42856C13.5476 1.48498 13.5601 1.60827 13.5714 1.71919C13.5792 1.79549 13.5864 1.86593 13.6252 1.90475L14.0064 2.2857C14.1969 2.38093 14.2922 2.57141 14.2922 2.76188C14.2922 2.85712 14.2684 2.97617 14.2446 3.09521C14.2207 3.21426 14.1969 3.33331 14.1969 3.42854C14.1016 3.71426 13.9111 3.71426 13.7205 3.71426H13.3394C13.2441 3.71426 13.1488 3.71426 13.1488 3.61902C13.0535 3.52378 12.9583 3.52378 12.863 3.52378H12.6724C12.5658 3.36395 12.4294 3.35314 12.2798 3.34129C12.162 3.33196 12.0361 3.32199 11.9102 3.23807C11.8735 3.21973 11.8368 3.19786 11.7987 3.17517C11.6391 3.08007 11.4556 2.9707 11.1479 3.0476H11.0526C10.9305 2.92548 10.7691 2.88166 10.6189 2.84083C10.5347 2.81798 10.4541 2.79606 10.3857 2.76188C10.2606 2.76188 10.1537 2.70715 10.0491 2.65358C9.91475 2.58476 9.78415 2.51786 9.62342 2.57141C9.38457 2.25309 9.21225 2.26725 9.05086 2.28051C9.01911 2.28312 8.98778 2.2857 8.95645 2.2857C8.86116 2.2857 8.86117 2.2857 8.86117 2.19046C8.73584 2.1487 8.62883 2.08864 8.5321 2.03435C8.40822 1.96481 8.30121 1.90475 8.1942 1.90475C8.10889 1.87632 8.03207 1.83942 7.95867 1.80416C7.78612 1.72127 7.63248 1.64746 7.43194 1.71427C7.32032 1.60269 7.20869 1.58916 7.11621 1.57794C7.05082 1.57001 6.995 1.56325 6.95554 1.5238C6.66969 1.33332 6.47913 1.33332 6.28857 1.33332H6.19329C6.19329 1.14285 6.00272 1.14285 5.90744 1.14285H5.71688C5.52632 0.952374 5.43104 0.952374 5.24047 0.952374C5.19998 0.952374 5.17669 0.952374 5.15599 0.945063C5.12798 0.935172 5.1047 0.911898 5.04991 0.857136C5.04991 0.761899 4.85935 0.761899 4.76407 0.761899H4.5735C4.42105 0.533329 4.2686 0.548567 4.11615 0.563805C4.07804 0.567615 4.03993 0.571424 4.00182 0.571424H3.81125C3.71597 0.380949 3.52541 0.380949 3.33485 0.380949H3.14428C3.14428 0.190475 2.95372 0.190475 2.76316 0.190475C2.72505 0.190475 2.68693 0.194284 2.64882 0.198094C2.49637 0.213332 2.34392 0.22857 2.19147 0H2.09619H0.285844C0.0952813 0 0 0.0952374 0 0.285712V1.33332C0 1.42856 0 1.5238 0.0952813 1.5238C0.212287 1.58227 0.257451 1.71256 0.296939 1.82647C0.321765 1.89808 0.344347 1.96322 0.381125 1.99998C0.476407 2.2857 0.666969 2.47617 0.857532 2.57141C0.983666 2.66597 1.09936 2.79182 1.21844 2.92134C1.45917 3.18319 1.7137 3.46006 2.09619 3.52378C2.15336 3.69521 2.31343 3.76378 2.4735 3.83235C2.58022 3.87806 2.68693 3.92378 2.76316 3.99997C2.8108 4.04759 2.90608 4.0952 3.00135 4.14282L3.00136 4.14282C3.09664 4.19044 3.19192 4.23806 3.23957 4.28568L3.81125 4.57139C3.90653 4.76187 4.0971 4.8571 4.38294 4.95234C4.47822 4.95234 4.5735 4.99996 4.66879 5.04758C4.76407 5.0952 4.85935 5.14282 4.95463 5.14282L5.04991 5.23805C5.18941 5.23805 5.32891 5.28909 5.5058 5.35381L5.50583 5.35382L5.50592 5.35385C5.57062 5.37752 5.64034 5.40303 5.71688 5.42853C5.78171 5.45013 5.84655 5.47663 5.91249 5.50359C6.13729 5.59547 6.37501 5.69264 6.66969 5.619C6.66969 5.619 6.76498 5.619 6.76498 5.71424C6.86026 5.80948 6.95554 5.80948 7.05082 5.80948C7.24138 5.76186 7.40812 5.83329 7.57487 5.90472C7.74161 5.97614 7.90835 6.04757 8.09891 5.99995C8.09891 5.99995 8.1942 5.99995 8.1942 6.09519C8.28948 6.19043 8.38476 6.19043 8.48004 6.19043H8.76588C8.76588 6.19043 8.86117 6.19043 8.86117 6.28567C8.86117 6.3809 8.86116 6.3809 8.76588 6.3809C8.76588 6.47614 8.6706 6.57138 8.48004 6.57138C8.43505 6.57138 8.38476 6.56607 8.33166 6.56047C8.15983 6.54234 7.95865 6.52111 7.81307 6.66662C7.62251 6.76185 7.43194 6.76185 7.24138 6.76185H6.47913C6.38385 6.76185 6.28857 6.76185 6.28857 6.85709C6.19329 6.95233 6.00272 6.95233 5.90744 6.95233H5.14519H4.95463C4.80013 7.18397 4.583 7.16521 4.4048 7.14981H4.4048H4.40479C4.3632 7.14621 4.32372 7.1428 4.28766 7.1428C4.19238 7.1428 4.00182 7.1428 3.90653 7.23804C3.90653 7.33328 3.81125 7.33328 3.71597 7.23804C3.52541 7.23804 3.33485 7.30947 3.14428 7.38089C2.95372 7.45232 2.76316 7.52375 2.5726 7.52375C2.5726 7.52375 2.47731 7.52375 2.47731 7.61899C2.38203 7.71423 2.28675 7.71423 2.19147 7.71423C2.06636 7.71423 1.9595 7.76896 1.85492 7.82253C1.72056 7.89135 1.58995 7.95825 1.42922 7.9047C1.42922 7.9047 1.42922 7.99994 1.33394 7.99994C1.23866 8.04756 1.19102 8.09517 1.14338 8.14279C1.09574 8.19041 1.04809 8.23803 0.952813 8.28565C0.750377 8.28565 0.643519 8.42895 0.530705 8.58024C0.484223 8.64257 0.436731 8.70626 0.381125 8.76184C0.190563 8.95231 0.0952813 9.23802 0.381125 9.4285C0.381125 9.61897 0.476407 9.80945 0.571688 9.99992C0.571688 10.0588 0.608082 10.0813 0.658377 10.1123C0.689462 10.1315 0.725856 10.154 0.762251 10.1904C0.802687 10.2308 0.843123 10.2798 0.885381 10.331L0.885392 10.331C1.04228 10.5211 1.22426 10.7416 1.5245 10.6666H1.61978C1.73919 10.8456 1.89601 10.8377 2.04335 10.8302C2.13116 10.8258 2.2156 10.8215 2.28675 10.8571C2.38203 10.8571 2.47731 10.8571 2.5726 10.9523C2.76316 11.1428 3.049 11.1428 3.23957 11.0475C3.43013 10.9523 3.62069 10.9523 3.81125 10.9523H4.5735H4.76407C4.83793 10.8046 4.96907 10.8287 5.06868 10.847C5.09755 10.8522 5.12378 10.8571 5.14519 10.8571H5.71688H5.90744C6.09801 10.4761 6.28857 10.4761 6.47913 10.4761C6.57441 10.4761 6.66969 10.4761 6.76498 10.3809C6.86026 10.2856 6.95554 10.2856 7.05082 10.2856C7.1461 10.2856 7.24138 10.2618 7.33666 10.238C7.43194 10.2142 7.52723 10.1904 7.62251 10.1904C7.90835 10.0952 8.19419 9.99992 8.48004 9.99992C8.57532 9.96818 8.6706 9.92585 8.76588 9.88352C8.95644 9.79887 9.14701 9.71421 9.33757 9.71421C9.33757 9.71421 9.43285 9.71421 9.43285 9.61897C9.43285 9.52374 9.52813 9.52374 9.62342 9.52374C9.81398 9.52374 10.0998 9.52374 10.2904 9.33326C10.4215 9.24591 10.5526 9.19861 10.6745 9.15464C10.8184 9.10272 10.9495 9.05543 11.0526 8.95231C11.1061 8.89883 11.1897 8.87538 11.2864 8.84824C11.3619 8.82704 11.4455 8.80359 11.529 8.76184L12.9583 7.33328C13.0093 7.28226 13.0604 7.23807 13.1077 7.19705L13.1078 7.19703L13.1078 7.19701C13.2373 7.08493 13.3394 6.99653 13.3394 6.85709C13.3961 6.68713 13.4865 6.58457 13.5705 6.48927C13.6277 6.42437 13.6819 6.36283 13.7205 6.28567C13.7389 6.26732 13.7572 6.24545 13.7762 6.22277C13.856 6.12766 13.9478 6.01829 14.1016 6.09519C14.2494 6.16902 14.2253 6.3001 14.207 6.39966C14.2017 6.42852 14.1969 6.45474 14.1969 6.47614V22.0951C14.1969 22.2113 14.1856 22.3331 14.174 22.4579L14.174 22.4579C14.138 22.8445 14.0994 23.2589 14.3875 23.6189C14.413 23.6444 14.4317 23.6699 14.4491 23.6936C14.4964 23.7583 14.5338 23.8093 14.6733 23.8093H15.5309C15.5785 23.8093 15.6261 23.7855 15.6738 23.7617C15.7214 23.7379 15.7691 23.7141 15.8167 23.7141C16.0073 23.5236 16.0073 23.3332 16.0073 23.1427V14.857V6.57138V6.3809C16.0073 6.19043 16.2931 5.99995 16.2931 6.09519L17.2459 7.04756C17.3455 7.09733 17.367 7.17311 17.3921 7.26131C17.415 7.34188 17.4408 7.43282 17.5318 7.52375C17.7223 7.67613 17.8824 7.85899 18.0425 8.04184C18.2826 8.31613 18.5227 8.59041 18.8657 8.76184C18.8657 8.76184 18.8657 8.85707 18.961 8.85707C19.0563 8.90469 19.1277 8.97612 19.1992 9.04755C19.2707 9.11898 19.3421 9.1904 19.4374 9.23802C19.4898 9.2642 19.5421 9.29757 19.5965 9.33221L19.5965 9.33222L19.5965 9.33223C19.7399 9.42359 19.8971 9.52374 20.1044 9.52374H20.1996C20.2683 9.66102 20.337 9.64988 20.4413 9.63296C20.4818 9.6264 20.5276 9.61897 20.5808 9.61897H20.7713C20.8293 9.73488 20.9226 9.74499 21.0296 9.7566C21.0985 9.76407 21.1731 9.77216 21.2477 9.80945C21.5336 9.90469 21.8194 9.99992 22.1053 9.99992H22.2006C22.2958 10.0952 22.3911 10.0952 22.4864 10.0952H22.677C22.7913 10.2094 22.9056 10.2209 23.02 10.2323C23.0962 10.2399 23.1724 10.2475 23.2486 10.2856H23.4392C23.5579 10.4636 23.7136 10.4568 23.8832 10.4494C23.9859 10.4449 24.0937 10.4402 24.2015 10.4761H24.4873C24.5612 10.6238 24.6923 10.5997 24.7919 10.5815C24.8208 10.5762 24.847 10.5713 24.8684 10.5713C24.9359 10.5713 25.0034 10.5594 25.0667 10.5482C25.182 10.5278 25.2833 10.5098 25.3448 10.5713C25.4843 10.7108 25.5728 10.6971 25.6849 10.6798C25.726 10.6734 25.7702 10.6666 25.8212 10.6666H26.8693C26.9646 10.6666 27.0599 10.6666 27.1552 10.7618C27.3457 10.8571 27.5363 10.8571 27.6316 10.7618C27.7269 10.6666 27.8221 10.6666 27.9174 10.6666H28.2986C28.5844 10.6666 28.8702 10.4761 29.1561 10.2856C29.2791 10.2241 29.3625 10.1229 29.4574 10.0076C29.5094 9.9444 29.565 9.87692 29.6325 9.80945C29.8231 9.61897 30.0136 9.33326 30.0136 9.04755C30.1089 8.6666 29.8231 8.38089 29.5372 8.19041C29.4419 8.09518 29.2514 7.9047 29.0608 7.80946C29.0195 7.7888 28.9781 7.76365 28.9358 7.73791C28.7831 7.64502 28.6177 7.54442 28.3938 7.61899H28.2986C28.2033 7.52375 28.108 7.52375 28.0127 7.52375C27.8876 7.52375 27.7807 7.46902 27.6762 7.41544C27.5418 7.34662 27.4112 7.27972 27.2505 7.33328C27.1818 7.19599 27.1131 7.20713 27.0088 7.22406C26.9683 7.23061 26.9226 7.23804 26.8693 7.23804C26.8479 7.23804 26.8217 7.24285 26.7928 7.24815C26.6932 7.26642 26.5621 7.29047 26.4882 7.1428C26.3929 7.04756 26.2024 7.04756 26.1071 7.04756H25.5354C25.4401 7.04756 25.3448 7.04756 25.3448 6.95233C25.2496 6.85709 25.1543 6.85709 24.9637 6.85709H24.2015H24.0109C23.9529 6.74119 23.8597 6.73107 23.7526 6.71946C23.6837 6.71199 23.6091 6.7039 23.5345 6.66662H22.677C22.5817 6.66662 22.4864 6.66662 22.4864 6.57138C22.3911 6.47614 22.2958 6.47614 22.2006 6.47614H21.5336C21.343 6.47614 21.2477 6.28567 21.2477 6.19043C21.2477 6.04492 21.3589 6.06615 21.4539 6.08428C21.4833 6.08988 21.5111 6.09519 21.5336 6.09519C21.6289 6.09519 21.8194 6.09519 21.9147 5.99995C22.01 5.90472 22.1053 5.90472 22.2958 5.90472H22.677C22.7913 5.79043 22.9056 5.779 23.02 5.76757C23.0962 5.75996 23.1724 5.75234 23.2486 5.71424C23.3439 5.71424 23.4392 5.71424 23.5345 5.619C23.6298 5.52377 23.7251 5.52377 23.8203 5.52377C24.0193 5.57349 24.1924 5.4934 24.353 5.41905C24.5 5.35101 24.6366 5.28778 24.7731 5.33329C24.9047 5.20179 25.0817 5.16107 25.2727 5.11713C25.3584 5.09742 25.4469 5.07706 25.5354 5.04758C25.6307 4.99996 25.7498 4.95234 25.8689 4.90472C25.988 4.8571 26.1071 4.80949 26.2024 4.76187C26.2976 4.76187 26.4882 4.66663 26.5835 4.57139C26.637 4.51791 26.7206 4.49446 26.8173 4.46732C26.8928 4.44612 26.9763 4.42268 27.0599 4.38092C27.1869 4.25393 27.314 4.21161 27.441 4.16928C27.5045 4.14812 27.5681 4.12695 27.6316 4.09521C27.7745 4.04759 27.8936 3.95235 28.0127 3.85711C28.1318 3.76188 28.2509 3.66664 28.3938 3.61902C28.4891 3.52378 28.6082 3.42854 28.7273 3.3333C28.8464 3.23807 28.9655 3.14283 29.0608 3.0476C29.1751 2.89522 29.32 2.77332 29.4648 2.65142L29.4648 2.65141C29.682 2.46855 29.8993 2.2857 30.0136 1.99998C30.0613 1.85713 30.1327 1.73808 30.2042 1.61903C30.2756 1.49999 30.3471 1.38094 30.3947 1.23809C30.49 0.952374 30.49 0.666662 30.49 0.380949C30.2995 0.190475 30.1089 0 29.9183 0ZM75.3675 0.19043H73.4619C73.3666 0.19043 73.2713 0.19043 73.1761 0.285667C72.9855 0.380904 72.7949 0.476142 72.6997 0.571379C72.652 0.571379 72.6044 0.595188 72.5567 0.618998C72.5091 0.642807 72.4615 0.666616 72.4138 0.666616L72.0327 1.04757C71.7468 1.33328 71.7468 1.33328 71.461 1.1428H71.3657C71.2387 1.1428 71.1116 1.05815 70.9846 0.973495C70.9211 0.931166 70.8576 0.888838 70.794 0.857091C70.6987 0.825345 70.6141 0.783018 70.5294 0.74069C70.36 0.656035 70.1906 0.571379 69.9365 0.571379H69.8412C69.7218 0.392351 69.565 0.400289 69.4176 0.407747C69.3298 0.412192 69.2454 0.416466 69.1742 0.380904C69.079 0.380904 68.9837 0.380904 68.8884 0.285667C68.7931 0.19043 68.6978 0.19043 68.6026 0.19043H66.2205C66.1252 0.19043 66.03 0.19043 66.03 0.285667C65.9347 0.380904 65.8394 0.380904 65.7441 0.380904C65.49 0.317413 65.236 0.423232 64.9819 0.52905L64.9818 0.529075C64.8548 0.581977 64.7278 0.634875 64.6007 0.666616C64.5055 0.666616 64.3149 0.761854 64.2196 0.857091C64.172 0.857091 64.1005 0.880901 64.0291 0.904711C63.9576 0.92852 63.8861 0.952329 63.8385 0.952329C63.7958 0.980749 63.7553 1.00705 63.7166 1.03218C63.4958 1.17546 63.3337 1.28067 63.1715 1.52375C63.1239 1.61899 63.0286 1.66661 62.9333 1.71423C62.838 1.76185 62.7428 1.80946 62.6951 1.9047C62.6533 1.94646 62.6299 2.00652 62.6087 2.06081C62.5815 2.13035 62.5581 2.19041 62.5046 2.19041C62.314 2.38088 62.1235 2.66657 61.9329 2.95226L61.9329 2.95231C61.647 3.33326 61.4565 3.61897 61.4565 4.09516V4.1904C61.2659 4.38087 61.2659 4.57135 61.2659 4.76182V5.90467C61.2659 6.57133 61.3612 7.14276 61.647 7.71418C61.8376 7.99989 62.0281 8.28561 62.1234 8.66656C62.1234 8.76179 62.2187 8.76179 62.2187 8.76179C62.279 8.8221 62.3394 8.89196 62.4027 8.96532C62.5395 9.12365 62.6903 9.29829 62.8857 9.42845C63.0088 9.51051 63.1143 9.62793 63.2173 9.74262C63.3534 9.89414 63.4852 10.0409 63.6479 10.0951C63.7432 10.0951 63.8385 10.1904 63.8385 10.2856C63.9338 10.3808 63.9338 10.5713 63.7432 10.5713C63.6479 10.5713 63.5526 10.6665 63.4574 10.7618C63.3559 10.8632 63.2409 10.9579 63.1232 11.0548C62.7988 11.3219 62.4538 11.606 62.314 12.0951L62.2187 12.1903C62.187 12.2538 62.1446 12.3173 62.1023 12.3808C62.0176 12.5078 61.9329 12.6348 61.9329 12.7618C61.9329 12.9032 61.927 13.0446 61.9211 13.1874C61.9032 13.6218 61.8847 14.0696 62.0281 14.5713C62.1234 14.7617 62.2187 14.9284 62.314 15.0951C62.4093 15.2617 62.5045 15.4284 62.5998 15.6189C62.6475 15.7141 62.6951 15.7617 62.7428 15.8094C62.7904 15.857 62.838 15.9046 62.8857 15.9998C62.981 16.0951 62.981 16.2855 62.8857 16.3808C62.5998 16.476 62.4093 16.5713 62.2187 16.7617C62.1823 16.7981 62.1598 16.8345 62.1406 16.8656C62.1095 16.9158 62.087 16.9522 62.0281 16.9522L61.3612 17.6189C61.2275 17.6857 61.1876 17.7994 61.1428 17.9271L61.1428 17.9271C61.1237 17.9814 61.1038 18.0382 61.0753 18.0951C61.0491 18.1474 61.0157 18.1998 60.9811 18.2541C60.8897 18.3974 60.7895 18.5545 60.7895 18.7617C60.7895 18.9299 60.7774 19.0981 60.7653 19.2647C60.7297 19.7587 60.6951 20.2392 60.9801 20.6665C61.0753 20.9522 61.1706 21.2379 61.3612 21.5236C61.4728 21.6352 61.519 21.7468 61.5574 21.8392C61.5844 21.9045 61.6076 21.9603 61.647 21.9998C61.8732 22.2259 62.0994 22.3923 62.3727 22.5935C62.4449 22.6465 62.5203 22.702 62.5998 22.7617C62.6362 22.7981 62.6587 22.8344 62.6779 22.8655C62.709 22.9158 62.7315 22.9522 62.7904 22.9522C62.9174 22.9522 63.0445 23.0368 63.1715 23.1215C63.235 23.1638 63.2986 23.2061 63.3621 23.2379C63.6479 23.4283 63.9338 23.6188 64.3149 23.6188H64.4102C64.4682 23.7347 64.5614 23.7448 64.6685 23.7564C64.7374 23.7639 64.812 23.772 64.8866 23.8093H65.1724C65.2463 23.957 65.3774 23.9329 65.477 23.9146C65.5059 23.9093 65.5321 23.9045 65.5536 23.9045H66.5064C66.6017 23.9045 66.6969 23.9045 66.6969 23.9998H68.9837C69.079 23.9045 69.1742 23.9045 69.2695 23.9045C69.4116 23.869 69.567 23.8732 69.7307 23.8777C70.0059 23.8851 70.3047 23.8932 70.6035 23.7141C70.6987 23.6664 70.8417 23.6426 70.9846 23.6188C71.1275 23.595 71.2704 23.5712 71.3657 23.5236C71.5086 23.476 71.6277 23.4283 71.7468 23.3807C71.8659 23.3331 71.985 23.2855 72.128 23.2379C72.4138 23.1426 72.6044 23.0474 72.7949 22.8569C72.9855 22.7617 73.1761 22.6664 73.2713 22.5712C73.3224 22.5202 73.3666 22.4691 73.4077 22.4218C73.5198 22.2923 73.6082 22.1903 73.7477 22.1903C73.9033 22.1903 73.9319 22.1268 73.989 21.9998C74.0018 21.9713 74.0161 21.9395 74.0336 21.9045C74.0336 21.8093 74.0336 21.8093 74.1289 21.8093C74.2617 21.7429 74.3483 21.6302 74.4208 21.5358L74.4209 21.5357L74.4209 21.5357C74.4524 21.4947 74.4812 21.4572 74.51 21.4284C74.5576 21.3807 74.5576 21.3331 74.5576 21.2855C74.5576 21.2379 74.5576 21.1903 74.6053 21.1426C74.638 21.0936 74.6707 21.0474 74.7024 21.0026C74.8556 20.786 74.9864 20.6011 74.9864 20.2855C74.9864 20.2855 74.9864 20.1903 75.0817 20.1903C75.177 20.095 75.177 19.9998 75.177 19.9046V18.1903V17.9998C75.0356 17.9292 75.0515 17.8062 75.0692 17.6696C75.0753 17.622 75.0817 17.5728 75.0817 17.5236C75.0817 17.4121 75.049 17.3332 75.0219 17.2678C75.0028 17.2216 74.9864 17.1821 74.9864 17.1427C74.9546 17.0792 74.9229 17.0263 74.8911 16.9734C74.8276 16.8675 74.7641 16.7617 74.7006 16.5713C74.7006 16.3808 74.6053 16.2855 74.4147 16.1903C74.3099 16.1204 74.2307 16.025 74.1536 15.9321C74.0205 15.7716 73.8938 15.6189 73.6525 15.6189C73.4972 15.3084 73.2152 15.251 72.9099 15.1888C72.8406 15.1747 72.7701 15.1603 72.6997 15.1427C72.4138 15.0475 72.128 14.9522 71.7468 14.9522H71.5563C71.4856 14.811 71.3625 14.8268 71.2259 14.8445C71.1783 14.8506 71.1291 14.857 71.0799 14.857H70.4129H70.2223C70.1485 14.7093 70.0173 14.7334 69.9177 14.7516C69.8889 14.7569 69.8626 14.7617 69.8412 14.7617H66.9828H66.7922C66.6867 14.6035 66.5227 14.5913 66.365 14.5796C66.238 14.5702 66.115 14.561 66.03 14.476C65.7441 14.2856 65.4583 14.0951 65.4583 13.7141C65.4583 13.6189 65.4583 13.5237 65.363 13.5237C65.2677 13.5237 65.2677 13.4284 65.2677 13.3332C65.2677 13.287 65.2621 13.2407 65.2563 13.1932C65.2383 13.0447 65.2187 12.8829 65.363 12.6665C65.4011 12.5903 65.4087 12.5141 65.4164 12.438C65.4278 12.3237 65.4392 12.2094 65.5536 12.0951C65.6139 12.0549 65.6741 12.0105 65.7353 11.9654L65.7355 11.9653C65.9643 11.7967 66.2057 11.6189 66.5064 11.6189H68.9837H69.2695C69.3648 11.4284 69.5554 11.4284 69.7459 11.5237C69.8684 11.5237 69.9909 11.4712 70.1134 11.4187C70.2768 11.3487 70.4401 11.2788 70.6035 11.3332C70.6987 11.1427 70.8893 11.1427 71.0799 11.1427C71.1204 11.1427 71.1437 11.1427 71.1644 11.1354C71.1924 11.1255 71.2157 11.1023 71.2704 11.0475L71.5563 10.7618C71.6833 10.7618 71.8104 10.6771 71.9374 10.5925C72.0009 10.5501 72.0644 10.5078 72.128 10.4761C72.3445 10.4039 72.5063 10.2225 72.6549 10.056L72.655 10.0559C72.7025 10.0026 72.7487 9.95082 72.7949 9.90464C72.8902 9.8094 72.9617 9.71417 73.0331 9.61893C73.1046 9.52369 73.1761 9.42845 73.2713 9.33322C73.3867 9.21787 73.4672 9.06761 73.555 8.90357C73.6122 8.79671 73.6726 8.68402 73.7477 8.57132C73.7606 8.5456 73.7752 8.51814 73.7906 8.48918C73.8893 8.30368 74.0207 8.05655 73.9383 7.80942V7.71418C74.0336 7.61894 74.0336 7.52371 74.0336 7.42847V5.23801C74.0336 5.12019 73.985 5.01856 73.9345 4.9131C73.8627 4.76281 73.787 4.60473 73.843 4.38087C73.7477 4.28564 73.7477 4.1904 73.7477 4.09516C73.7477 3.99992 73.7478 3.90469 73.6525 3.80945C73.5572 3.71421 73.5572 3.52374 73.6525 3.52374C73.7278 3.52374 73.8031 3.47913 73.8842 3.43105C74.0085 3.35743 74.1465 3.27565 74.3194 3.33326H75.5581C75.7487 3.33326 75.8439 3.23803 75.8439 3.04755V0.952329C75.6534 0.285667 75.5581 0.19043 75.3675 0.19043ZM65.2677 17.2379C65.5736 17.0086 65.8181 17.0247 66.0505 17.04C66.1077 17.0437 66.1641 17.0474 66.2205 17.0474H68.412C68.5073 17.0474 68.6026 17.0474 68.6978 17.1427C68.7931 17.2379 68.7931 17.2379 68.8884 17.2379H69.7459C69.9873 17.2379 70.1904 17.3143 70.4038 17.3945C70.5273 17.441 70.6543 17.4887 70.794 17.5236C70.8576 17.5554 70.9211 17.5977 70.9846 17.64C71.1116 17.7247 71.2387 17.8093 71.3657 17.8093C71.5563 17.8093 71.6516 17.9998 71.6516 17.9998C71.6516 18.0854 71.7093 18.171 71.7729 18.2653C71.8508 18.3808 71.9374 18.5092 71.9374 18.6665V19.2379C71.9374 19.6189 71.8421 19.9046 71.6516 20.095C71.613 20.1336 71.6056 20.1878 71.5979 20.245C71.5866 20.329 71.5744 20.4193 71.461 20.476C71.3392 20.5368 71.2369 20.6074 71.1385 20.6753C70.9289 20.8199 70.7371 20.9522 70.4129 20.9522C70.3074 21.1104 70.1434 21.1226 69.9857 21.1343C69.8587 21.1437 69.7357 21.1529 69.6507 21.2379C69.5918 21.2967 69.5693 21.2829 69.5382 21.2636C69.519 21.2518 69.4965 21.2379 69.4601 21.2379H68.2214H67.2686C67.2305 21.2379 67.1924 21.2417 67.1543 21.2455C67.0018 21.2607 66.8494 21.276 66.6969 21.0474H66.6017C66.3603 21.0474 66.1572 20.971 65.9438 20.8908L65.9438 20.8908C65.8203 20.8443 65.6933 20.7966 65.5536 20.7617C65.2514 20.7013 65.0643 20.4877 64.8706 20.2666C64.7588 20.1391 64.6449 20.0091 64.5055 19.9046C64.5055 19.7795 64.4507 19.6727 64.3971 19.5682C64.3282 19.4339 64.2613 19.3033 64.3149 19.1427V18.5712C64.3149 17.9998 64.6007 17.6189 64.9819 17.2379C64.9819 17.2929 65.0136 17.2844 65.0771 17.2674C65.1236 17.2549 65.1872 17.2379 65.2677 17.2379ZM70.5082 6.66657C70.5082 6.76181 70.5082 6.85705 70.4129 6.95228L70.3176 7.04752C70.3927 7.34763 70.1721 7.52952 69.9819 7.68634C69.9307 7.72858 69.8817 7.769 69.8412 7.80942L69.3648 8.28561C69.3648 8.28561 69.3648 8.38084 69.2695 8.28561C69.1516 8.28561 69.05 8.33419 68.9445 8.38461C68.7941 8.45646 68.636 8.53204 68.412 8.47608C68.3658 8.47608 68.3139 8.47047 68.2605 8.4647C68.0939 8.44668 67.9125 8.42706 67.8403 8.57132C67.745 8.66655 67.2686 8.57132 67.1733 8.47608C67.0781 8.38084 66.9828 8.38084 66.8875 8.38084C66.8295 8.38084 66.7716 8.38476 66.7144 8.38862C66.4897 8.4038 66.2772 8.41815 66.1252 8.19037C65.7975 8.27227 65.6107 8.07246 65.4436 7.89375L65.4435 7.8936L65.4433 7.89348L65.4432 7.89333C65.4161 7.86437 65.3896 7.83597 65.363 7.80942C65.0771 7.52371 64.8866 7.23799 64.696 6.85704L64.696 6.85698C64.6007 6.66653 64.5055 6.47606 64.5055 6.19038V5.52372V4.85706C64.5055 4.58716 64.6011 4.36506 64.6908 4.1569C64.7277 4.07126 64.7635 3.98797 64.7913 3.90469C64.8866 3.76183 64.9819 3.64278 65.0771 3.52374C65.1724 3.40469 65.2677 3.28564 65.363 3.14279C65.4106 3.04755 65.5059 3.02374 65.6012 2.99993C65.6965 2.97612 65.7918 2.95231 65.8394 2.85708C66.0027 2.9115 66.1661 2.84153 66.3294 2.77156C66.4519 2.71908 66.5744 2.6666 66.6969 2.6666H68.412C68.5073 2.6666 68.6026 2.6666 68.6978 2.76184L68.7931 2.85708C68.9948 2.78987 69.1491 2.91236 69.2894 3.02375C69.3479 3.07022 69.404 3.11475 69.4601 3.14279C69.6507 3.23802 69.8412 3.4285 69.9365 3.61897C70.1271 3.90469 70.2223 4.1904 70.3176 4.47611C70.6059 5.05238 70.5671 5.62865 70.5311 6.16371C70.5195 6.33606 70.5082 6.50414 70.5082 6.66657ZM56.883 4.47611V4.76182V6.76181V16.0951V16.3808C56.883 16.5713 56.7877 16.6665 56.5972 16.6665H53.6434C53.4529 16.6665 53.3576 16.6665 53.3576 16.476V16.1903V6.57133C53.3576 6.52213 53.3639 6.47292 53.3701 6.42535C53.3877 6.2888 53.4036 6.16578 53.2623 6.09515V5.90467V5.14277C53.3576 4.76182 53.167 4.47611 52.9765 4.1904C52.8812 4.09516 52.7859 3.90469 52.7859 3.80945C52.7048 3.56637 52.4858 3.46116 52.1876 3.31788L52.1873 3.31776L52.1873 3.31773C52.1351 3.29264 52.0804 3.26639 52.0236 3.23803C51.7378 3.04755 51.452 2.95231 51.0708 3.04755C50.9756 3.04755 50.8803 3.04755 50.785 2.95231H50.6897C50.619 3.09358 50.496 3.07769 50.3593 3.06005C50.3118 3.05391 50.2625 3.04755 50.2133 3.04755H49.9275C49.5463 2.95231 49.2605 3.14279 48.9746 3.33326L48.403 3.61897C48.2799 3.68048 48.1966 3.78169 48.1017 3.89697L48.1016 3.89701C48.0496 3.96024 47.994 4.0277 47.9266 4.09516C47.7312 4.22533 47.5804 4.39997 47.4436 4.5583C47.3803 4.63166 47.3199 4.70151 47.2596 4.76182C47.1643 4.85706 47.1643 4.9523 47.1643 5.04754V5.52372V5.7142C47.396 5.86862 47.3773 6.08565 47.3619 6.26377C47.3583 6.30535 47.3549 6.34481 47.3549 6.38086V16.2855C47.3549 16.5713 47.1643 16.7617 46.7832 16.7617H44.3059C43.8295 16.7617 43.7342 16.5713 43.7342 16.1903V5.7142C43.7342 5.60262 43.7669 5.49104 43.794 5.39861C43.8131 5.33325 43.8295 5.27746 43.8295 5.23801V5.04754C43.8295 4.815 43.7032 4.58247 43.6049 4.40128C43.5824 4.35984 43.5613 4.32109 43.5436 4.28564C43.5118 4.22215 43.4907 4.14807 43.4695 4.074C43.4272 3.92585 43.3848 3.7777 43.2578 3.71421C43.1826 3.67665 43.1223 3.62426 43.065 3.57459C42.9772 3.49835 42.8968 3.4285 42.7814 3.4285C42.6861 3.4285 42.5908 3.33326 42.4955 3.23803C42.4002 3.04755 42.2097 3.04755 42.1144 3.04755C42.007 3.01178 41.8862 3.01632 41.7671 3.02079C41.5691 3.02822 41.3758 3.03548 41.2569 2.85708H41.1616C40.9329 3.08565 40.7042 3.07041 40.4755 3.05517C40.4184 3.05136 40.3612 3.04755 40.304 3.04755C40.2826 3.04755 40.2564 3.04274 40.2275 3.03744C40.1279 3.01917 39.9968 2.99512 39.9229 3.14279H39.8276C39.6038 3.06822 39.4384 3.16882 39.2857 3.26171C39.2434 3.28745 39.202 3.3126 39.1607 3.33326C39.0986 3.37459 39.0321 3.41592 38.9641 3.45822C38.7184 3.61088 38.4524 3.77621 38.3031 3.99992C38.2356 4.0674 38.1801 4.13488 38.128 4.19812C38.0331 4.3134 37.9498 4.41461 37.8267 4.47611C37.7314 4.47611 37.7314 4.57135 37.7314 4.66659V4.9523V16.0951C37.7314 16.5713 37.5409 16.6665 37.1598 16.6665H34.7777C34.3013 16.6665 34.206 16.5713 34.206 16.0951V8.57132V0.952329C34.206 0.761883 34.206 0.666645 34.2537 0.619019C34.3013 0.571379 34.3966 0.571379 34.5872 0.571379H37.0645C37.2074 0.571379 37.2789 0.571379 37.3146 0.607109C37.3503 0.642829 37.3503 0.714257 37.3503 0.857091V1.33328C37.2977 1.49109 37.3613 1.59079 37.4289 1.69657C37.4836 1.78231 37.5409 1.87204 37.5409 1.99994C37.5409 2.09518 37.6362 2.09518 37.6362 1.99994C37.7607 1.81328 37.9258 1.66727 38.1051 1.5088C38.2002 1.4247 38.2993 1.33709 38.3984 1.23804L38.9701 0.952329L39.5418 0.666616C39.6591 0.627517 39.7444 0.572366 39.8239 0.520933C39.938 0.447086 40.0403 0.380904 40.2088 0.380904C40.285 0.342809 40.3612 0.335191 40.4374 0.327572C40.5518 0.316143 40.6661 0.304715 40.7804 0.19043H40.971H43.0672C43.1625 0.19043 43.2578 0.19043 43.353 0.285667C43.353 0.380904 43.4483 0.380904 43.5436 0.380904C43.7342 0.380904 43.9247 0.380904 44.1153 0.571379H44.2106C44.5917 0.571379 44.9728 0.761854 45.2587 1.04757C45.3063 1.1428 45.3778 1.16661 45.4492 1.19042C45.5207 1.21423 45.5922 1.23804 45.6398 1.33328C45.6753 1.40419 45.7504 1.4751 45.8307 1.55092C45.966 1.67877 46.1162 1.82059 46.1162 1.99994C46.1162 2.0588 46.1526 2.08128 46.2029 2.11235C46.234 2.13155 46.2704 2.15404 46.3068 2.19041C46.402 2.28565 46.4973 2.38089 46.4973 2.47613C46.4973 2.57136 46.4973 2.57136 46.5926 2.57136C46.6331 2.57136 46.6564 2.57136 46.6771 2.56405C46.7051 2.55416 46.7284 2.53089 46.7832 2.47613C46.8785 2.33327 46.9976 2.21423 47.1167 2.09518C47.2358 1.97613 47.3549 1.85708 47.4501 1.71423C47.4964 1.66802 47.5426 1.61622 47.5902 1.56288L47.5902 1.56286L47.5902 1.56284C47.7388 1.39632 47.9006 1.21493 48.1171 1.1428C48.3177 1.07599 48.4713 0.962298 48.6438 0.834619C48.7172 0.780306 48.7941 0.723461 48.8794 0.666616C48.9728 0.635469 49.0663 0.624695 49.1565 0.614305C49.342 0.592927 49.5134 0.573175 49.6416 0.380904H49.9275C50.0021 0.343619 50.0767 0.335528 50.1456 0.328057C50.2526 0.316446 50.3459 0.306333 50.4039 0.19043H50.5944H52.6906C52.7859 0.19043 52.8812 0.19043 52.9765 0.285667C52.9765 0.380904 52.9765 0.380904 53.0717 0.380904C53.3576 0.285667 53.6434 0.380904 53.9293 0.571379C53.9928 0.603125 54.0563 0.624289 54.1198 0.645454C54.2469 0.687781 54.3739 0.730109 54.501 0.857091C54.5645 0.920583 54.6704 0.941747 54.8468 0.97702C54.935 0.994656 55.0409 1.01582 55.1679 1.04757L56.0255 1.9047C56.1207 1.99994 56.1922 2.1428 56.2637 2.28565C56.3351 2.42851 56.4066 2.57136 56.5019 2.6666V2.85708C56.5019 2.95231 56.5019 3.04755 56.5972 3.14279C56.5427 3.30605 56.6127 3.46932 56.6827 3.63258C56.7352 3.75503 56.7877 3.87748 56.7877 3.99992C56.7877 4.04911 56.7814 4.09829 56.7752 4.14583V4.14587V4.1459C56.7576 4.28246 56.7417 4.40548 56.883 4.47611ZM91.8512 5.0474C91.8512 4.95216 91.8512 4.85692 91.7559 4.76168C91.6082 4.68785 91.6322 4.55677 91.6505 4.45721L91.6505 4.4571C91.6558 4.42828 91.6606 4.40211 91.6606 4.38073C91.6606 4.33311 91.6666 4.28549 91.6725 4.23788C91.6904 4.09502 91.7083 3.95217 91.5653 3.80931C91.5177 3.66645 91.4939 3.52359 91.4701 3.38072C91.4462 3.23787 91.4224 3.09502 91.3748 2.95217C91.3271 2.80932 91.2557 2.66647 91.1842 2.52362C91.1128 2.38076 91.0413 2.2379 90.9937 2.09504C90.8507 1.90456 90.684 1.7379 90.5173 1.57123C90.3505 1.40457 90.1838 1.2379 90.0408 1.04743C89.9316 1.01105 89.8364 0.988567 89.755 0.969365C89.6233 0.938295 89.528 0.915812 89.4691 0.856952C89.4056 0.729968 89.2574 0.687641 89.1092 0.645313C89.0351 0.624149 88.961 0.602986 88.8975 0.57124C88.826 0.547431 88.7545 0.517669 88.6831 0.487907C88.4687 0.398622 88.2543 0.309337 88.0399 0.380765H87.9446C87.876 0.243479 87.8073 0.254618 87.7029 0.271544C87.6625 0.278102 87.6167 0.285528 87.5635 0.285528C87.2874 0.320032 86.9987 0.304534 86.7066 0.288851C86.1924 0.261246 85.6676 0.233068 85.1815 0.476003C85.0783 0.527562 84.9472 0.551209 84.8033 0.577165C84.6814 0.599154 84.5503 0.6228 84.4192 0.666478C84.324 0.714083 84.2049 0.761688 84.0859 0.809293L84.0857 0.809339C83.9666 0.856956 83.8475 0.904573 83.7523 0.95219C83.6887 0.983936 83.6252 1.0051 83.5617 1.02626C83.4347 1.06859 83.3076 1.11092 83.1806 1.2379C83.1601 1.2584 83.1352 1.28772 83.1068 1.32112C83.0033 1.44289 82.8537 1.61885 82.7042 1.61885C82.5613 1.66647 82.466 1.76171 82.3707 1.85694C82.2754 1.95218 82.1801 2.04742 82.0372 2.09504C81.9954 2.09504 81.972 2.13165 81.9508 2.16475C81.9236 2.20714 81.9001 2.24376 81.8466 2.19027C81.9419 1.9998 81.9419 1.90456 81.9419 1.90456V1.04743C81.9419 0.761715 81.7514 0.666478 81.4655 0.57124H79.0835C78.8929 0.57124 78.7976 0.57124 78.75 0.618881C78.7024 0.666507 78.7024 0.761744 78.7024 0.95219V8.57118V9.1426V16.2854C78.7024 16.4758 78.7024 16.5711 78.75 16.6187C78.7976 16.6664 78.8929 16.6664 79.0835 16.6664H81.7514C82.0372 16.6664 82.1325 16.6664 82.1325 16.2854V16.0949V5.0474C82.1325 4.85692 82.1325 4.76168 82.3231 4.66645C82.3455 4.64396 82.3733 4.62148 82.4027 4.59774C82.4977 4.52093 82.6089 4.43101 82.6089 4.2855C82.6089 4.2855 82.6089 4.19026 82.7042 4.19026C82.8947 4.19026 83.0853 3.99978 83.1806 3.80931C83.2629 3.76814 83.3275 3.69139 83.3897 3.61751C83.4713 3.52046 83.5488 3.42836 83.657 3.42836C83.7547 3.39582 83.8301 3.35216 83.8985 3.31258C84.0302 3.23631 84.1358 3.17519 84.324 3.23789C84.4192 3.23789 84.4192 3.23789 84.4192 3.14265C84.5145 3.04741 84.6098 3.04741 84.7051 3.04741H85.5626C85.6579 3.04741 85.8485 2.95217 85.8485 2.95217C85.9578 3.06148 86.0985 3.04533 86.2346 3.02972C86.3357 3.01813 86.4342 3.00683 86.5154 3.04741H86.706C86.786 3.10071 86.866 3.14656 86.9439 3.1912C87.1443 3.3061 87.331 3.41308 87.4682 3.61884C87.6588 3.71407 87.8494 3.80931 87.9446 3.99978C87.9838 4.11708 88.0389 4.20227 88.0904 4.28172C88.1643 4.3958 88.2305 4.49803 88.2305 4.66645C88.2305 4.66645 88.2305 4.76168 88.3258 4.76168C88.4211 4.85692 88.4211 4.95216 88.4211 5.0474V6.76167V16.0949C88.4211 16.3806 88.6116 16.5711 88.8975 16.5711H91.4701C91.8512 16.5711 91.9465 16.3806 91.9465 16.0949V9.71403C91.8512 8.19023 91.8512 6.57119 91.8512 5.0474ZM103.285 0.19043H104.714C104.905 0.19043 105 0.285667 105 0.285667V3.52374C105 3.61897 105 3.71421 104.905 3.71421C104.809 3.80945 104.714 3.61897 104.714 3.61897H104.524C104.485 3.58039 104.431 3.57307 104.374 3.56535C104.29 3.55401 104.199 3.54181 104.142 3.4285H103.952H102.809C102.618 3.4285 102.332 3.4285 102.237 3.61897H102.142C101.922 3.67379 101.766 3.76016 101.618 3.84175C101.51 3.90192 101.405 3.9595 101.284 3.99992L100.712 4.28564C100.617 4.33325 100.546 4.42849 100.474 4.52373C100.403 4.61897 100.331 4.7142 100.236 4.76182C100.045 4.9523 100.045 5.14277 100.045 5.33325V16.0951C100.045 16.476 99.8548 16.6665 99.4737 16.6665H96.9964C96.7105 16.6665 96.52 16.5713 96.52 16.1903V8.57132V1.04757C96.52 0.857119 96.52 0.761882 96.5676 0.714256C96.6152 0.666616 96.7105 0.666616 96.9011 0.666616H99.3784C99.569 0.666616 99.6642 0.666616 99.6642 0.952329V1.23804V1.33328C99.7595 1.61899 99.8548 1.9047 99.8548 2.19041C99.8548 2.28565 99.9501 2.28565 99.9501 2.28565C100.045 2.28565 100.045 2.19041 100.045 2.19041C100.236 1.80946 100.522 1.52375 100.903 1.33328C100.962 1.33328 100.984 1.2969 101.015 1.24663C101.035 1.21556 101.057 1.17918 101.093 1.1428C101.236 1.09518 101.355 1.02376 101.475 0.952329C101.594 0.880901 101.713 0.809473 101.856 0.761854C101.913 0.733431 101.969 0.713491 102.024 0.694438C102.152 0.649651 102.265 0.609771 102.332 0.476142C102.427 0.380904 102.618 0.380904 102.713 0.380904C102.766 0.380904 102.812 0.388331 102.853 0.394888C102.957 0.411814 103.026 0.422953 103.094 0.285667C103.094 0.19043 103.19 0.19043 103.285 0.19043Z" fill="white"/>
    </svg>
    