<svg width="178" height="20" viewBox="0 0 178 20" fill="none" xmlns="http://www.w3.org/2000/svg">
    <path fill-rule="evenodd" clip-rule="evenodd" d="M0 16.39V0L6.00233 3.36101V20L0 16.39ZM9.06555 16.39V0L15.0265 3.36101V20L9.06555 16.39ZM18.0898 0V16.39L24.0507 20V3.36101L18.0898 0ZM55.5112 12.8214V9.83382H62.8795V18.672H60.1888L60.0647 17.3442C59.154 18.4645 57.7465 19.0454 55.8009 19.0454C53.4828 19.0454 51.62 18.2985 50.254 16.7633C48.8879 15.228 48.1842 13.2778 48.1842 10.8712C48.1428 8.50602 48.8879 6.55581 50.2954 5.06203C51.7856 3.52677 53.6898 2.73838 56.0907 2.77988C57.4568 2.77988 58.6158 2.98734 59.6507 3.44377C60.6856 3.9002 61.7619 4.6056 62.8382 5.68444L60.6028 8.00808C59.7335 7.2197 58.947 6.72179 58.2847 6.38984C57.5809 6.09938 56.8772 5.93339 56.0907 5.93339C54.7661 5.93339 53.6898 6.34835 52.9033 7.21972C52.1168 8.09108 51.7442 9.29439 51.7442 10.9126C51.7442 12.5309 52.1168 13.8172 52.8619 14.6886C53.6484 15.56 54.6833 15.9749 56.0079 15.9749C57.1256 15.9749 57.9949 15.7259 58.6572 15.1865C59.3195 14.6471 59.6093 13.9002 59.6093 12.9044V12.8214H55.5112ZM42.6787 3.15234H46.0731V18.671H42.3889L38.7461 12.7374C37.5042 10.7457 36.5935 9.16893 36.014 8.0486C36.0968 9.83283 36.1382 11.866 36.1382 14.0652V18.671H32.7438V3.15234H36.5522L40.4847 9.62536C40.6275 9.86213 40.7653 10.0901 40.8977 10.3094L40.8978 10.3095L40.8981 10.3101C41.7634 11.7426 42.4025 12.8006 42.7615 13.4843C42.6787 12.2395 42.6787 10.4967 42.6787 8.1316V3.15234ZM75.7121 3.31969C74.8428 2.98774 73.808 2.78027 72.5661 2.78027C70.1238 2.78027 68.2196 3.52716 66.8121 5.06243C65.4047 6.55621 64.701 8.50641 64.701 10.8716C64.701 13.2782 65.4047 15.2699 66.8121 16.8052C68.2196 18.2989 70.1238 19.0873 72.5247 19.0873C73.6838 19.0873 74.7601 18.8799 75.7121 18.4649C76.6642 18.05 77.6577 17.4276 78.6098 16.5147L76.5815 14.1081C75.7122 14.8135 75.0084 15.3114 74.4289 15.5603C73.8908 15.8508 73.2284 15.9753 72.4833 15.9753C71.2414 15.9753 70.2066 15.5189 69.4201 14.606C68.6749 13.6931 68.3024 12.4483 68.3024 10.913C68.3024 9.37777 68.6749 8.17446 69.4201 7.2616C70.2066 6.34873 71.2415 5.89231 72.5247 5.89231C73.2284 5.89231 73.8494 6.0168 74.3875 6.26576C74.967 6.51472 75.588 6.92964 76.3745 7.59354L78.4442 5.14542C77.5335 4.31555 76.6228 3.69313 75.7121 3.31969ZM91.7321 18.7553L97.1963 2.53125H95.7475L90.9456 17.3445H90.8628L86.1438 2.57273H84.5707L89.9935 18.7968H91.7321V18.7553ZM108.994 13.0717V12.4492C108.994 8.96377 107.048 6.59863 104.027 6.59863C100.88 6.59863 98.8935 8.92227 98.8935 12.7812C98.8935 16.6401 100.922 19.0053 104.068 19.0053C106.303 19.0053 107.918 17.8434 108.704 16.1422L107.711 15.4783C107.09 17.055 105.807 17.8849 104.109 17.8849C101.667 17.8849 100.26 16.1837 100.26 13.6941V13.1132H108.994V13.0717ZM100.218 11.9513C100.26 9.42019 101.75 7.71897 104.027 7.71897C106.138 7.71897 107.587 9.33723 107.587 11.8683V12.0758H100.26V11.9513H100.218ZM114.168 10.4161V18.7563H112.844V6.88909H114.168V8.75631H114.251C114.831 7.5115 115.866 6.59863 117.77 6.59863C120.254 6.59863 121.744 8.25837 121.744 11.1214V18.7563H120.419V11.3704C120.419 8.96378 119.343 7.80194 117.397 7.80194C115.741 7.80194 114.168 8.67333 114.168 10.4161ZM131.14 18.7541V17.5923H128.615V8.0487H131.306V6.88688H128.615V3.56738H127.415V5.97402C127.415 6.63792 127.208 6.88688 126.587 6.88688H125.221V8.0487H127.291V17.3018C127.291 18.1732 127.829 18.7956 128.781 18.7956H131.14V18.7541ZM143.973 18.7549H142.648V16.8877H142.566C142.11 18.008 141.158 19.0454 139.13 19.0454C136.646 19.0454 135.114 17.3856 135.114 14.5225V6.8877H136.439V14.2321C136.439 16.6802 137.515 17.842 139.461 17.842C141.075 17.842 142.648 16.9707 142.648 15.1864V6.8877H143.973V18.7549ZM149.106 18.7549V10.6221C149.106 9.08686 150.513 8.17399 152.5 8.17399H153.535V6.8877H152.749C150.72 6.8877 149.686 7.88354 149.189 9.00387H149.106V6.8877H147.781V18.7549H149.106ZM166.12 12.4492V13.0717V13.1132H157.385V13.7356C157.385 16.2252 158.793 17.9264 161.235 17.9264C162.932 17.9264 164.215 17.0966 164.836 15.5198L165.788 16.1422C165.002 17.8434 163.387 19.0053 161.152 19.0053C157.965 19.0053 156.019 16.6401 156.019 12.7812C156.019 8.92227 158.006 6.59863 161.152 6.59863C164.174 6.59863 166.12 8.96377 166.12 12.4492ZM157.302 11.9513V12.0758H164.671V11.8683C164.671 9.33723 163.222 7.71897 161.111 7.71897C158.834 7.71897 157.344 9.42019 157.302 11.9513ZM173.819 19.0043C176.427 19.0043 178 17.6765 178 15.4773C178 13.5686 176.882 12.5313 174.44 12.1578L173.488 12.0333C171.832 11.7429 170.921 11.245 170.921 9.87566C170.921 8.50637 171.915 7.75949 173.612 7.75949C175.227 7.75949 176.22 8.50638 176.841 9.29477L177.71 8.50637C176.841 7.42754 175.64 6.68066 173.695 6.68066C171.418 6.68066 169.68 7.801 169.68 10.0002C169.68 12.1163 171.17 12.9877 173.322 13.3197L174.274 13.4856C175.972 13.7346 176.717 14.44 176.717 15.7263C176.717 17.1786 175.682 17.9669 173.902 17.9669C172.329 17.9669 171.211 17.3446 170.218 16.0582L169.266 16.8051C170.342 18.2159 171.791 19.0043 173.819 19.0043Z" fill="white"/>
    </svg>
    