<svg width="100" height="32" viewBox="0 0 100 32" fill="none" xmlns="http://www.w3.org/2000/svg">
    <path d="M34.033 27.3775C33.5999 27.3775 33.1834 27.527 32.8502 27.8095L29.5852 25.0014L32.084 17.2751C32.1173 17.2751 32.1339 17.2917 32.1673 17.2917C32.8669 17.2917 33.4499 16.7101 33.4499 16.0123C33.4499 15.3144 32.8836 14.7329 32.1673 14.7329C32.1339 14.7329 32.1173 14.7329 32.084 14.7329L29.9017 7.98686C30.5014 7.6047 30.6847 6.82376 30.3015 6.22559C30.0683 5.86004 29.6685 5.62742 29.2187 5.62742C28.9189 5.62742 28.6357 5.74373 28.4025 5.9265L22.6387 1.75595C22.9052 1.10793 22.5887 0.360221 21.939 0.0943687C21.2894 -0.171484 20.5397 0.144215 20.2732 0.792231C20.2565 0.858694 20.2232 0.908542 20.2066 0.975005H13.2267C13.0601 0.293758 12.3771 -0.121637 11.6942 0.0445208C11.0112 0.210679 10.5947 0.891927 10.7613 1.57317C10.7779 1.63964 10.7946 1.68948 10.8113 1.73933L5.04748 5.90989C4.81426 5.7105 4.53107 5.6108 4.23122 5.6108C3.53157 5.6108 2.94853 6.19236 2.96518 6.89022C2.96518 7.32223 3.1984 7.73763 3.56488 7.97025L1.38264 14.683C1.34933 14.683 1.31601 14.6664 1.28269 14.6664C0.583042 14.6664 0 15.248 0 15.9458C0 16.6437 0.566384 17.2252 1.28269 17.2252C1.29935 17.2252 1.33267 17.2252 1.34933 17.2252L3.54823 24.0045C2.94853 24.3866 2.76528 25.1676 3.14843 25.7657C3.38164 26.1313 3.78144 26.3639 4.23122 26.3639C4.53107 26.3639 4.7976 26.2642 5.03082 26.0814L10.8113 30.252C10.5447 30.9 10.8612 31.6311 11.5109 31.897C12.1606 32.1628 12.8936 31.8471 13.1601 31.1991C13.1767 31.1492 13.1934 31.0828 13.2101 31.0329H20.1899C20.3565 31.7142 21.0395 32.1296 21.7225 31.9634C22.2889 31.8305 22.6887 31.3154 22.6887 30.7172C22.6887 30.5511 22.6553 30.4015 22.6054 30.252L29.1688 25.4999L32.4005 28.2747C31.8841 29.1553 32.1673 30.2686 33.0501 30.7837C33.933 31.2988 35.0491 31.0163 35.5656 30.1357C36.082 29.255 35.7988 28.1418 34.9159 27.6267C34.6827 27.4605 34.3661 27.3775 34.033 27.3775ZM29.4519 8.56841L31.5176 14.9489C31.2344 15.1316 31.0345 15.3975 30.9679 15.7132H29.9017C29.8018 15.2812 29.4853 14.9156 29.0521 14.7827L29.4519 8.56841ZM28.8522 8.1364L28.4358 14.7329C28.4025 14.7329 28.3691 14.7495 28.3525 14.7495L25.7205 9.76475C25.987 9.53213 26.1369 9.1832 26.1369 8.81765C26.1369 8.75119 26.1203 8.66811 26.1203 8.60164L26.4701 8.4521L28.2525 7.67116C28.3858 7.90378 28.6024 8.05332 28.8522 8.1364ZM21.7225 14.7661C21.5226 14.7329 21.3227 14.7329 21.1394 14.7993L17.6412 8.71796C17.7744 8.60164 17.8744 8.4521 17.941 8.28594L23.6215 8.98381C23.6548 9.29951 23.8214 9.59859 24.0713 9.8146L21.7225 14.7661ZM24.621 10.0804C24.7043 10.0971 24.7876 10.0971 24.8542 10.0971C24.9542 10.0971 25.0541 10.0805 25.1541 10.0638L27.7861 15.0486C27.6029 15.2313 27.4696 15.4473 27.403 15.6966H22.6887C22.622 15.4473 22.4888 15.2147 22.2889 15.0486L24.621 10.0804ZM20.5897 15.0984C20.4231 15.2646 20.3065 15.464 20.2399 15.6966H13.26C13.2101 15.464 13.0768 15.2646 12.9102 15.0984L16.4251 9.00042C16.6417 9.06688 16.8749 9.06688 17.0748 9.00042L20.5897 15.0984ZM12.3771 14.7993C12.2605 14.7661 12.1439 14.7495 12.0273 14.7495C11.944 14.7495 11.8607 14.7661 11.7774 14.7661L9.44528 9.8146C9.69515 9.59859 9.86174 9.31612 9.89505 8.98381L15.5589 8.25271C15.6255 8.41887 15.7255 8.56841 15.8587 8.70134L12.3771 14.7993ZM11.2277 15.0319C11.0112 15.1981 10.8612 15.4307 10.7946 15.6966H6.13027C6.06363 15.4473 5.93037 15.2313 5.74713 15.0652L8.36249 10.0638C8.46244 10.0805 8.56238 10.0971 8.66233 10.0971C8.74563 10.0971 8.82892 10.0805 8.91221 10.0638L11.2277 15.0319ZM6.13027 16.328H10.7946C10.8612 16.5938 11.0112 16.8265 11.2277 16.9926L8.89555 21.9607C8.81226 21.9441 8.72897 21.9441 8.66233 21.9275C8.56238 21.9275 8.46244 21.9441 8.36249 21.9607L5.74713 16.9594C5.93037 16.7932 6.06363 16.5772 6.13027 16.328ZM11.7941 17.2751C11.8774 17.2917 11.9607 17.2917 12.044 17.2917C12.1606 17.2917 12.2772 17.2751 12.3938 17.2418L15.8921 23.3066C15.7588 23.4395 15.6588 23.5891 15.5922 23.7552L9.92837 23.0574C9.89505 22.7417 9.72847 22.4426 9.47859 22.2266L11.7941 17.2751ZM12.9269 16.9261C13.0935 16.76 13.2101 16.544 13.2767 16.328H20.2565C20.3065 16.5606 20.4398 16.76 20.6064 16.9261L17.1081 22.9909C16.8916 22.9244 16.6417 22.9244 16.4085 22.9909L12.9269 16.9261ZM21.1394 17.2418C21.256 17.2751 21.3726 17.2917 21.4893 17.2917C21.5725 17.2917 21.6558 17.2751 21.7391 17.2751L24.0713 22.2432C23.8214 22.4426 23.6548 22.7417 23.6215 23.074L17.9577 23.7718C17.8911 23.6057 17.7911 23.4395 17.6578 23.3232L21.1394 17.2418ZM22.2889 16.9926C22.5054 16.8265 22.6553 16.5772 22.722 16.328H27.4529C27.5196 16.5606 27.6528 16.7766 27.8361 16.9428L25.1707 21.9773C25.0708 21.9441 24.9708 21.9441 24.8709 21.9441C24.7876 21.9441 24.7043 21.9607 24.621 21.9773L22.2889 16.9926ZM22.2889 2.27104L28.0526 6.44159C27.986 6.59113 27.9527 6.7573 27.9527 6.90684C27.9527 6.9733 27.9527 7.03976 27.9694 7.10622L25.8371 8.03671C25.5539 7.65454 25.0875 7.47177 24.621 7.57147L22.3721 2.58673L22.2389 2.30427C22.2722 2.28765 22.2889 2.28765 22.2889 2.27104ZM21.0062 2.48704C21.1561 2.5535 21.3227 2.58673 21.4726 2.58673C21.5392 2.58673 21.6225 2.57012 21.6892 2.57012L22.0223 3.33444L24.0546 7.85393C23.8881 7.98686 23.7381 8.16963 23.6548 8.36902L17.991 7.63793C17.9577 7.40531 17.8744 7.1893 17.7245 7.00653L21.0062 2.48704ZM13.26 1.6064H20.2399C20.2899 1.78918 20.3731 1.95534 20.4898 2.10488L17.1914 6.59113C16.8916 6.47482 16.575 6.47482 16.2752 6.59113L12.9935 2.10488C13.1268 1.97195 13.2101 1.78918 13.26 1.6064ZM12.0273 2.57012C12.1939 2.57012 12.3438 2.53689 12.4938 2.47042L15.7588 6.9733C15.6089 7.15607 15.5256 7.37208 15.4923 7.6047L9.82842 8.35241C9.74513 8.15302 9.61186 7.97025 9.42862 7.8207L11.7941 2.53689C11.8774 2.57012 11.9607 2.57012 12.0273 2.57012ZM11.2277 2.27104L11.261 2.28765L8.89555 7.57147C8.82892 7.55485 8.74563 7.55485 8.67899 7.55485C8.27919 7.55485 7.91271 7.73763 7.67949 8.05332L5.51391 7.12284C5.53057 7.05638 5.53057 6.98991 5.53057 6.92345C5.53057 6.75729 5.49725 6.60775 5.44728 6.45821L11.2277 2.27104ZM5.28069 7.70439L7.41296 8.63488C7.3963 8.70134 7.3963 8.7678 7.3963 8.83426C7.3963 9.19981 7.54623 9.53213 7.82942 9.78136L5.21406 14.7827C5.1974 14.7827 5.16408 14.7661 5.14743 14.7661L4.66433 8.11979C4.91421 8.05332 5.11411 7.90378 5.28069 7.70439ZM4.08129 23.4894L1.999 17.0591C2.26553 16.8929 2.46543 16.6271 2.54873 16.328H3.68149C3.78144 16.7434 4.09795 17.0923 4.51441 17.2252L4.08129 23.4894ZM3.68149 15.6966H2.56538C2.49875 15.3643 2.29885 15.0818 2.01566 14.899L4.08129 8.53518L4.51441 14.7993C4.09795 14.9489 3.78144 15.2812 3.68149 15.6966ZM4.66433 23.9048L5.13077 17.2751C5.14743 17.2751 5.18074 17.2585 5.1974 17.2585L7.62952 21.9275L7.81276 22.2598C7.54623 22.4924 7.37964 22.8414 7.37964 23.2069C7.37964 23.2734 7.3963 23.3398 7.3963 23.4063L5.26403 24.3202C5.11411 24.1208 4.91421 23.9712 4.66433 23.9048ZM11.2277 29.7535L5.44728 25.5996C5.51391 25.45 5.54723 25.2839 5.54723 25.1011C5.54723 25.0346 5.54723 24.9682 5.53057 24.9017L7.66283 23.9712C7.94603 24.3534 8.41246 24.5362 8.89555 24.4531L11.261 29.7203L11.2277 29.7535ZM12.5104 29.5375C12.3605 29.4711 12.1939 29.4378 12.044 29.4378C11.9773 29.4378 11.8941 29.4544 11.8274 29.4544L11.311 28.3246L9.44528 24.1872C9.62852 24.0543 9.76179 23.8549 9.84508 23.6555L11.2111 23.8217L15.4923 24.3534C15.5256 24.6026 15.6255 24.8186 15.7754 25.0014L15.2257 25.7657L12.5104 29.5375ZM20.2565 30.4182H13.2767C13.2267 30.2354 13.1434 30.0692 13.0268 29.9197L16.2919 25.4002C16.5917 25.5165 16.9249 25.5165 17.2414 25.4002L20.5231 29.9197C20.3898 30.0526 20.2899 30.2354 20.2565 30.4182ZM21.7058 29.4711C21.6392 29.4544 21.5559 29.4544 21.4893 29.4544C21.3227 29.4544 21.1727 29.4877 21.0228 29.5541L19.6735 27.7098L17.7411 25.0346C17.8911 24.8519 17.991 24.6192 18.0243 24.3866L22.3721 23.8383L23.6882 23.6721C23.7714 23.8715 23.8881 24.0543 24.0546 24.1872L21.7891 29.3049L21.7058 29.4711ZM22.2889 29.7535L22.2555 29.7369L22.3388 29.5541L24.621 24.4531C24.6877 24.4697 24.7709 24.4697 24.8376 24.4697C25.2207 24.4697 25.6039 24.2869 25.8371 23.9712L28.6024 25.151L22.2889 29.7535ZM26.1203 23.4063C26.1369 23.3398 26.1369 23.2734 26.1369 23.2069C26.1369 22.8414 25.987 22.509 25.7205 22.2598L27.1864 19.485L28.3858 17.2252L28.4358 17.2418L28.9022 24.6359L26.1203 23.4063ZM29.0521 17.192C29.4519 17.0591 29.7684 16.7434 29.8851 16.328H30.9679C31.0511 16.6437 31.251 16.9261 31.5176 17.0923L29.4519 23.4728L29.0521 17.192ZM58.5041 22.3429H52.8402C52.1573 22.3429 51.4743 22.21 50.8412 21.9607C50.2415 21.7115 49.7085 21.3459 49.2587 20.8807C48.8089 20.3988 48.4424 19.8505 48.2092 19.2357C47.7095 17.8899 47.7095 16.4111 48.2092 15.0652C48.4424 14.4504 48.8089 13.8855 49.2587 13.4202C49.7085 12.955 50.2415 12.5894 50.8412 12.3402C52.1073 11.8251 53.5399 11.8251 54.8226 12.3402C55.4223 12.5894 55.9554 12.955 56.4051 13.4202C56.8549 13.9021 57.2214 14.4504 57.4546 15.0652C57.7045 15.7298 57.8377 16.4277 57.8377 17.1421C57.8544 17.9896 57.6545 18.837 57.2547 19.6013C56.8549 20.349 56.2552 20.9804 55.5056 21.3958V21.429H58.5041V22.3429ZM48.8922 17.1255C48.8922 17.6739 48.9755 18.2388 49.1587 18.7539C49.3253 19.2524 49.5919 19.7176 49.9417 20.1164C50.2749 20.5152 50.708 20.8309 51.1744 21.0635C52.2239 21.5287 53.4233 21.5287 54.4728 21.0635C54.9559 20.8475 55.3723 20.5152 55.7221 20.1164C56.072 19.7176 56.3385 19.2524 56.5051 18.7539C56.8716 17.7071 56.8716 16.544 56.5051 15.4972C56.3218 14.9987 56.0553 14.5335 55.7221 14.1347C55.0058 13.3039 53.9397 12.822 52.8236 12.8387C52.2572 12.822 51.6908 12.955 51.1577 13.1876C50.6747 13.4036 50.2582 13.7359 49.925 14.1347C49.5919 14.5335 49.3253 14.9987 49.1421 15.4972C48.9755 16.0289 48.8922 16.5772 48.8922 17.1255ZM67.6162 22.3429H66.6167V13.1045H63.3017V12.1906H70.9312V13.1045H67.6162V22.3429ZM80.7763 22.5921C80.1433 22.6254 79.5102 22.4758 78.9439 22.1933C78.4941 21.9607 78.1109 21.6118 77.8111 21.1964C77.5279 20.7976 77.3447 20.349 77.2281 19.8838C77.1281 19.4517 77.0781 19.0031 77.0615 18.5379V12.174H78.061V18.4216C78.061 18.8203 78.1109 19.2191 78.1942 19.6179C78.2775 19.9834 78.4275 20.3324 78.644 20.6481C78.8606 20.9472 79.1438 21.1964 79.4769 21.3792C80.2765 21.7447 81.2094 21.7447 82.0257 21.3792C82.3588 21.1964 82.642 20.9472 82.8586 20.6481C83.0751 20.3324 83.2251 19.9834 83.3083 19.6179C83.4083 19.2191 83.4416 18.8203 83.4416 18.4216V12.174H84.4411V18.5379C84.4411 18.9865 84.3911 19.4351 84.2745 19.8838C84.1746 20.349 83.9747 20.7976 83.6915 21.1964C83.3916 21.6118 83.0085 21.9607 82.5587 22.1933C82.0423 22.4758 81.4093 22.6087 80.7763 22.5921ZM99.4669 12.1906L95.1024 14.5169L91.0211 12.1906L90.2215 12.7057V22.3429H91.2211V13.5365H91.2544L98.9838 18.2388V22.3429H100V12.9217L99.4669 12.1906ZM96.2519 15.3144L99.0005 13.8024V16.976L96.2519 15.3144Z" fill="white"/>
    </svg>
    