

<svg width="74" height="24" viewBox="0 0 74 24" fill="none" xmlns="http://www.w3.org/2000/svg">
    <path fill-rule="evenodd" clip-rule="evenodd" d="M2.59188 3.37188C4.01315 3.85392 5.43621 4.33776 6.85927 4.8216C8.28226 5.30542 9.70525 5.78924 11.1264 6.27125C12.0068 6.5733 12.8871 6.86816 13.7674 7.16301L13.7674 7.16303L13.7675 7.16305L13.7675 7.16307L13.7676 7.16309L13.7677 7.16311L13.7677 7.16313L13.7678 7.16315L13.7678 7.16317L13.7679 7.16319L13.768 7.16321L13.768 7.16323L13.7684 7.16337C13.785 7.1689 13.8025 7.17562 13.8206 7.18253C13.9437 7.22954 14.0906 7.28567 14.0906 7.04106C14.0692 6.93315 14.0477 6.83963 14.0262 6.74612L14.0262 6.7461L14.0262 6.74609C13.8544 5.92592 13.4033 5.25683 12.9379 4.58055L12.8383 4.43608C11.919 3.10321 11.001 1.77214 10.3031 0.307041C10.167 0.0048737 9.91643 -0.0742655 9.59423 0.0696239C9.47968 0.119985 9.37228 0.206319 9.2792 0.292652C8.90689 0.637987 8.47013 0.832237 7.96894 0.889793C7.08828 0.990515 6.20762 0.983321 5.32695 0.904182C4.46777 0.832237 3.71598 1.0049 3.17899 1.75313C3.02863 1.96465 2.87054 2.16839 2.71245 2.37214C2.60706 2.50797 2.50167 2.6438 2.39857 2.78194C2.09785 3.19922 2.10501 3.20641 2.59188 3.37188ZM1.18138 10.2577C1.11694 9.89793 0.973745 9.57418 0.673031 9.33677C0.536993 9.22885 0.458235 9.07777 0.508354 8.8979C0.547546 8.71412 0.699962 8.67406 0.845998 8.63566L0.887827 8.62451C1.23866 8.53099 1.52505 8.66768 1.76849 8.8979C1.89692 9.02199 2.01172 9.1632 2.12699 9.30499L2.127 9.305C2.17881 9.36873 2.23072 9.43258 2.284 9.49504C2.62051 9.88355 3.11455 9.99146 3.50118 9.76124C3.90213 9.52382 4.07397 8.96985 3.85917 8.49501C3.68733 8.11371 3.4439 7.78996 3.07159 7.58851C2.4272 7.23598 2.14796 6.6892 2.13364 5.96976C2.12648 5.49492 1.99761 5.04886 1.76133 4.63159C1.70405 4.54525 1.64677 4.44453 1.62529 4.34381C1.53221 3.91214 1.70405 3.75386 2.11216 3.89056L2.11282 3.89078L2.11295 3.89082L2.11308 3.89086L2.1136 3.89104C6.02241 5.21466 9.93122 6.53828 13.84 7.85471C14.0906 7.94104 14.198 8.07054 14.198 8.34393C14.198 8.58596 14.196 8.82841 14.1939 9.07018V9.07022V9.07026V9.0703V9.07034V9.07038V9.07042V9.07046V9.0705V9.07054V9.07058V9.07062V9.07066V9.07072C14.1875 9.84211 14.181 10.6067 14.241 11.3296C14.2481 11.9915 14.2481 11.9915 13.661 12.1138C10.4236 12.7829 7.19136 13.4571 3.95545 14.1322L3.95496 14.1323L3.95432 14.1324L2.284 14.4808C1.79713 14.5815 1.78997 14.5815 1.78997 14.0707C1.78281 13.7758 1.73985 13.5024 1.62529 13.229C1.40433 12.7056 1.36506 12.155 1.32568 11.603C1.31147 11.4037 1.29724 11.2043 1.27446 11.0059C1.26639 10.9349 1.25946 10.864 1.25254 10.7932C1.23491 10.6127 1.21738 10.4333 1.18138 10.2577ZM5.34842 14.6959C7.4749 16.1061 9.60854 17.5162 11.7493 18.9191C11.9856 19.0774 12.0286 19.1637 11.7493 19.322C10.654 19.9622 9.57305 20.6168 8.49206 21.2714L8.49187 21.2715L8.4916 21.2717C8.21953 21.43 7.93313 21.4875 7.63242 21.4444C7.31738 21.394 7.02383 21.4659 6.73744 21.6098C6.65409 21.6517 6.57075 21.6933 6.48745 21.7349C6.11275 21.9221 5.73893 22.1089 5.3699 22.3149C4.89735 22.5739 4.39616 22.7465 3.83053 22.5955C3.38662 22.4804 3.04294 22.7178 2.77803 23.0559C2.6949 23.1593 2.62491 23.2715 2.55473 23.384C2.49798 23.475 2.44111 23.5662 2.37708 23.6531C2.12648 23.9912 1.73985 24.0919 1.36037 23.9121C1.26336 23.8722 1.17178 23.8241 1.08062 23.7763L1.08058 23.7762L1.08055 23.7762C1.02371 23.7464 0.967035 23.7166 0.909303 23.689C0.279235 23.3797 0.0501191 22.9336 0.279235 22.2573C0.494031 21.6098 0.386633 21.0558 0 20.5307V19.8832C0.329354 19.4443 0.508351 18.9407 0.622908 18.4083C0.715987 17.9982 0.916463 17.6816 1.28878 17.473C1.62529 17.2931 1.75417 17.0198 1.64677 16.6313C1.55369 16.2931 1.53221 15.9478 1.58949 15.5953C1.62529 15.3722 1.73985 15.2427 1.97612 15.1924C2.93555 14.9981 3.89497 14.8039 4.84723 14.5952C5.04055 14.5521 5.1909 14.588 5.34842 14.6959ZM24.4151 2.91152C23.2934 2.90434 22.1789 2.89721 21.0571 2.91157C20.7206 2.91876 20.5703 2.81804 20.5989 2.44393C20.619 2.22716 20.6144 2.00685 20.6099 1.78797V1.78794V1.78785C20.608 1.6944 20.6061 1.6012 20.6061 1.50865C20.6061 1.34317 20.6634 1.22806 20.8495 1.22806C21.2812 1.23029 21.7129 1.22082 22.1445 1.21135C23.1084 1.19021 24.0714 1.16909 25.0309 1.27842C26.2123 1.41512 26.8352 2.16334 26.9282 3.35762C26.9497 3.6454 26.9569 3.94037 26.9211 4.22096C26.785 5.42243 26.1765 6.04116 24.9879 6.23541C24.9076 6.24887 24.8272 6.26512 24.7416 6.28243L24.7416 6.28243C24.69 6.29288 24.6364 6.30371 24.5798 6.31455C24.6134 6.44382 24.6906 6.51162 24.7604 6.57283C24.7799 6.58997 24.7988 6.6066 24.8161 6.62391C25.1213 6.93058 25.4273 7.23726 25.7335 7.5442L25.7339 7.54461L25.7345 7.54515L25.7348 7.54542L25.7354 7.54611L25.7356 7.54624L25.7361 7.54679L25.7364 7.54706L25.7366 7.54733L25.7373 7.54801L25.7375 7.54815C26.3495 8.16158 26.9627 8.77609 27.5726 9.39378C27.5918 9.41303 27.6156 9.43229 27.6401 9.45206C27.7162 9.51355 27.7985 9.58006 27.7659 9.66717C27.7224 9.78211 27.6125 9.76797 27.5088 9.75462C27.4762 9.75043 27.4442 9.74631 27.4151 9.74631C27.2348 9.74918 27.0533 9.74746 26.8716 9.74574H26.8715C26.5987 9.74314 26.3254 9.74055 26.0547 9.7535C25.7469 9.76789 25.5177 9.66717 25.2958 9.44414C24.5566 8.68341 23.8025 7.93265 23.0459 7.17941L23.0459 7.17937L22.5894 6.72463C22.5697 6.70489 22.5505 6.68023 22.5309 6.655C22.4718 6.57907 22.4086 6.49798 22.3173 6.53038C22.205 6.57553 22.216 6.69595 22.226 6.8048C22.2287 6.83471 22.2314 6.86374 22.2314 6.89011C22.2242 7.70308 22.217 8.52325 22.2314 9.33622C22.2385 9.64559 22.1383 9.78228 21.8233 9.7607C21.6031 9.74526 21.3793 9.74822 21.157 9.75116H21.1569H21.1568H21.1567H21.1566H21.1565H21.1564H21.1563H21.1562H21.1561H21.156C21.0678 9.75234 20.9798 9.7535 20.8925 9.7535C20.6992 9.7535 20.6061 9.66717 20.6061 9.47292V4.90443C20.6061 4.64543 20.7779 4.63104 20.9712 4.63104H23.2624C23.3883 4.63104 23.515 4.63184 23.642 4.63264H23.6421H23.6422H23.6423H23.6424H23.6425H23.6425H23.6426H23.6427H23.6428H23.6429C23.8983 4.63424 24.1547 4.63584 24.408 4.63104C25.038 4.62385 25.2743 4.37924 25.2743 3.76051C25.2743 3.15618 25.0452 2.91876 24.4223 2.91157L24.4151 2.91152ZM33.8375 9.76111C36.186 9.76111 38.0404 7.88336 38.0404 5.50199C38.0404 3.13501 36.2075 1.30762 33.8304 1.30762C31.4748 1.30762 29.6275 3.15659 29.6204 5.50918C29.6204 7.87616 31.4891 9.76111 33.8375 9.76111ZM33.8304 2.92637C35.2624 2.92637 36.4294 4.09907 36.4223 5.53077C36.4151 6.94808 35.2624 8.0848 33.8304 8.0848C32.3626 8.0848 31.2815 6.99124 31.2815 5.51638C31.2815 4.07029 32.3984 2.93357 33.8304 2.92637ZM14.2768 13.0343C14.3197 13.3724 14.5632 13.5667 14.8782 13.6818C15.2362 13.8113 15.4582 14.1638 15.3937 14.5379C15.1789 15.7754 14.9498 17.0128 14.3126 18.128C14.1193 18.4589 13.9045 18.7755 13.5679 18.9841C13.3675 19.1064 13.1885 19.1208 12.9737 18.9769C10.7694 17.5099 8.55805 16.0501 6.34666 14.5903L6.34665 14.5903L6.34452 14.5889L6.34364 14.5883C6.33037 14.5789 6.31587 14.5704 6.30092 14.5615L6.30087 14.5615L6.30084 14.5614L6.30082 14.5614C6.23511 14.5225 6.16066 14.4784 6.14317 14.3437C6.37593 14.2949 6.60868 14.2447 6.8421 14.1944L6.84212 14.1944L6.84213 14.1944L6.84214 14.1944L6.84216 14.1944L6.84217 14.1944L6.84228 14.1944C7.12578 14.1332 7.41024 14.0719 7.69686 14.0127C8.33072 13.8804 8.96459 13.7488 9.59824 13.6172L9.59913 13.617C10.9979 13.3266 12.3956 13.0363 13.7899 12.7393C14.0691 12.6817 14.2338 12.6817 14.2768 13.0343ZM46.8327 9.40783C45.6513 8.20635 44.4628 7.00487 43.2599 5.82498C43.0093 5.58037 42.9807 5.44368 43.2527 5.17748C44.4413 4.01198 45.6083 2.83208 46.7754 1.645C46.7938 1.62646 46.8166 1.60832 46.8399 1.58974C46.9162 1.529 46.9983 1.46358 46.9544 1.36441C46.9108 1.27126 46.809 1.28244 46.7123 1.29307C46.6821 1.29639 46.6523 1.29966 46.625 1.29966C46.4389 1.29679 46.2527 1.29851 46.0666 1.30024C45.7873 1.30283 45.5081 1.30542 45.2289 1.29247C44.9282 1.27808 44.7134 1.37161 44.5057 1.58744C43.9477 2.17276 43.374 2.74226 42.798 3.31399L42.5081 3.60189C42.4908 3.61929 42.4744 3.63844 42.4577 3.65788C42.3916 3.73487 42.3217 3.81628 42.1788 3.81053C42.1788 3.56964 42.178 3.33036 42.1772 3.09216V3.09154C42.1756 2.61853 42.174 2.14975 42.1788 1.68097C42.1859 1.40758 42.0785 1.28527 41.7993 1.29966C41.6229 1.30924 41.4498 1.30607 41.2756 1.30288C41.188 1.30127 41.1003 1.29966 41.0117 1.29966C40.5177 1.29966 40.5105 1.30686 40.5105 1.80328V9.21358C40.5105 9.48504 40.5105 9.62173 40.5788 9.69055C40.6482 9.76035 40.7878 9.76035 41.069 9.76035C42.1716 9.76035 42.1716 9.76035 42.1716 8.63802V7.18474C42.3161 7.17869 42.3745 7.24386 42.4278 7.30325C42.4378 7.31449 42.4477 7.32552 42.458 7.33582C42.6369 7.51554 42.8162 7.69527 42.9956 7.8751C43.5344 8.41516 44.0742 8.95623 44.606 9.50135C44.785 9.68841 44.9783 9.76755 45.236 9.76035C45.5143 9.75213 45.7949 9.75331 46.0751 9.75448C46.2852 9.75536 46.4952 9.75624 46.7038 9.75316C46.7303 9.75316 46.7592 9.75625 46.7885 9.75939C46.8856 9.76979 46.9875 9.78071 47.026 9.68122C47.0594 9.58606 46.9758 9.52139 46.8966 9.4601C46.874 9.44261 46.8517 9.4254 46.8327 9.40783ZM26.3984 14.6884C25.5536 14.0697 24.4008 13.9762 23.5345 14.4942C22.5607 15.0769 22.1097 16.0841 22.2672 17.2568C22.4175 18.1777 23.2338 19.0555 24.2004 19.2497C25.1669 19.444 26.0404 19.2353 26.6992 18.4583C26.9211 18.1993 27.0929 18.1849 27.3435 18.3936C27.5462 18.5578 27.7727 18.698 27.9959 18.8362L28.0595 18.8756C28.2743 19.0051 28.2886 19.1346 28.1383 19.336C26.7421 21.2282 23.8782 21.5447 22.0954 19.9835C20.7421 18.7965 20.2696 17.2928 20.7565 15.5733C21.2147 13.9402 22.3459 12.9474 24.007 12.5732C24.2 12.5273 24.3966 12.5248 24.6095 12.5221C24.6968 12.521 24.7869 12.5199 24.8805 12.5157C26.1908 12.5085 27.2719 13.0625 28.124 14.1129C28.2958 14.3287 28.3173 14.487 28.0524 14.6237C28.0105 14.6424 27.9716 14.6702 27.9338 14.6973C27.9135 14.7118 27.8934 14.7262 27.8734 14.7388C27.8002 14.7878 27.7281 14.8432 27.6559 14.8988C27.4739 15.0388 27.2908 15.1796 27.0858 15.2208C26.8661 15.2678 26.744 15.1031 26.618 14.9331L26.618 14.9331C26.551 14.8427 26.4829 14.7508 26.3984 14.6884ZM44.8208 12.4728C43.996 12.4449 43.1682 12.4501 42.3413 12.4553C41.8905 12.4581 41.4399 12.461 40.9903 12.4584C40.7397 12.4584 40.6466 12.5663 40.6537 12.8038C40.6585 12.981 40.6569 13.155 40.6553 13.33V13.3305V13.3309V13.3314V13.3318V13.3323C40.6545 13.4194 40.6537 13.5069 40.6537 13.5952C40.6537 14.0772 40.6609 14.0844 41.1263 14.0844H43.9186C44.205 14.0844 44.4914 14.0844 44.7707 14.1491C45.0499 14.2139 45.2289 14.3794 45.3077 14.6599C45.5081 15.3506 45.1645 15.8398 44.4556 15.847C43.3244 15.8542 42.186 15.8542 41.0547 15.847C40.7468 15.847 40.6323 15.9477 40.6394 16.2643C40.6502 16.7934 40.6488 17.3265 40.6475 17.8576C40.647 18.0342 40.6466 18.2107 40.6466 18.3867C40.6466 18.5703 40.647 18.7535 40.6475 18.9365V18.9366V18.9368V18.9369V18.9371V18.9372C40.6488 19.4851 40.6502 20.031 40.6394 20.581C40.6323 20.8688 40.7253 21.0055 41.0332 20.9839C41.3053 20.9695 41.5845 20.9623 41.8566 20.9839C42.2003 21.0127 42.3148 20.8688 42.3077 20.5306C42.3012 20.1382 42.302 19.7457 42.3029 19.3533C42.304 18.8824 42.3051 18.4115 42.2934 17.9406C42.2862 17.6097 42.4079 17.5018 42.7301 17.5089C43.3387 17.5233 43.9473 17.5305 44.5559 17.5089C45.4795 17.473 46.31 17.2428 46.7468 16.3003C46.9759 15.8039 46.9902 15.2787 46.9759 14.7535C46.9616 13.3937 46.1597 12.516 44.8208 12.4728ZM65.5307 16.1277C66.0659 17.1637 66.6011 18.1997 67.1381 19.2357C67.3815 19.7105 67.6321 20.1925 67.8827 20.6674C68.0116 20.9048 67.9543 20.9983 67.6894 20.9839H67.6536C67.4976 20.9768 67.3347 20.9916 67.1722 21.0064C66.8422 21.0364 66.5141 21.0662 66.2503 20.912C65.9733 20.7551 65.8416 20.4275 65.7106 20.1017L65.7105 20.1016L65.7105 20.1016C65.6552 19.9642 65.6001 19.8271 65.5343 19.7033C65.1878 19.0406 64.8486 18.3754 64.5097 17.7107L64.5095 17.7103L64.5093 17.71L64.5091 17.7096L64.509 17.7092C64.2668 17.2342 64.0247 16.7595 63.7801 16.2859C63.7716 16.269 63.764 16.2506 63.7561 16.2316C63.724 16.154 63.6875 16.066 63.5725 16.0198C63.3362 16.4586 63.0999 16.8975 62.8708 17.3363C62.7514 17.5625 62.6316 17.7883 62.5119 18.0141L62.5102 18.0173C62.0706 18.8463 61.6313 19.6746 61.2097 20.5163C61.0379 20.8616 60.8302 21.0343 60.4364 20.9911C60.2469 20.9734 60.0546 20.9775 59.8629 20.9816C59.7433 20.9841 59.624 20.9867 59.5057 20.9839C59.1405 20.9767 59.1119 20.9336 59.2766 20.617C59.4985 20.1926 59.7222 19.7699 59.946 19.3472C60.1697 18.9246 60.3935 18.5019 60.6154 18.0774C60.9114 17.5162 61.2066 16.9542 61.5017 16.3921C62.092 15.2682 62.6823 14.1444 63.2789 13.0269C63.3032 12.9819 63.324 12.929 63.3451 12.8755C63.4051 12.7237 63.4672 12.5664 63.6154 12.5664C63.7376 12.5664 63.8006 12.7247 63.8601 12.874C63.8808 12.926 63.9011 12.9769 63.9233 13.0197C64.4603 14.0557 64.9955 15.0917 65.5307 16.1277ZM34.575 12.8111C34.5634 12.7879 34.5534 12.7612 34.5431 12.7339C34.5089 12.6429 34.472 12.5449 34.3674 12.5449C34.2596 12.5449 34.2248 12.6387 34.1928 12.7249C34.1823 12.7533 34.1721 12.7808 34.1597 12.8039L31.8399 17.1854C31.6395 17.5667 31.4398 17.9488 31.2401 18.3309C30.8407 19.0951 30.4414 19.8593 30.0357 20.6171C29.8853 20.8977 29.9641 20.9768 30.2505 20.9696L30.3885 20.9663H30.3886C30.6647 20.9592 30.9409 20.9522 31.217 20.9768C31.575 21.0128 31.7755 20.8761 31.9402 20.5452C32.5135 19.4213 33.1044 18.3107 33.6957 17.1995C33.8576 16.8952 34.0196 16.5908 34.1812 16.286C34.1909 16.2682 34.1998 16.2478 34.209 16.2269C34.2407 16.1548 34.2754 16.0758 34.3531 16.0702C34.4588 16.059 34.491 16.1478 34.5202 16.2284C34.5286 16.2515 34.5368 16.274 34.5464 16.2932C34.6925 16.5744 34.8393 16.8553 34.9862 17.1362C35.5155 18.1489 36.0451 19.162 36.544 20.1926C36.816 20.761 37.1024 21.1639 37.8041 20.9696H38.3769C38.7564 20.9624 38.785 20.9121 38.6132 20.5811C37.2671 17.9983 35.9211 15.4083 34.575 12.8111ZM53.878 12.3799C55.4031 12.3871 56.9281 12.3871 58.4532 12.3799C58.6894 12.3799 58.8112 12.459 58.804 12.7036C58.7897 13.0274 58.7897 13.3511 58.804 13.6749C58.8112 13.9339 58.6894 14.013 58.4532 14.0058C58.2936 14.0031 58.1329 14.0056 57.972 14.0082C57.7142 14.0123 57.4559 14.0164 57.2002 13.9986C56.8565 13.9771 56.7706 14.1209 56.7778 14.4375C56.7885 15.2034 56.7871 15.9653 56.7858 16.7292L56.7858 16.7349C56.7854 16.988 56.7849 17.2414 56.7849 17.4951C56.7849 17.7507 56.7845 18.0058 56.784 18.2607C56.7827 19.0247 56.7813 19.7867 56.7921 20.5528C56.7992 20.8837 56.6918 21.0132 56.3625 20.9917C56.0904 20.9701 55.8112 20.9701 55.5391 20.9917C55.2241 21.0132 55.1238 20.8837 55.1238 20.5744C55.1286 19.5767 55.127 18.5791 55.1254 17.5815L55.1254 17.5744C55.1246 17.0779 55.1238 16.5815 55.1238 16.085C55.1238 15.9309 55.1227 15.7767 55.1215 15.6225C55.1186 15.2371 55.1156 14.8517 55.131 14.4663C55.1453 14.1281 55.0522 13.9842 54.6942 14.0058C54.4629 14.0175 54.2316 14.0145 54.0003 14.0115C53.802 14.0089 53.6037 14.0064 53.4055 14.013C53.1119 14.0202 53.0546 13.9123 53.1549 13.6461C53.2694 13.3296 53.3768 13.013 53.4699 12.6892C53.5343 12.4806 53.6417 12.3799 53.878 12.3799ZM73.7037 19.3579C73.3922 19.3651 73.0825 19.3633 72.7729 19.3615C72.4632 19.3597 72.1535 19.3579 71.8421 19.3651C71.5414 19.3723 71.4555 19.2572 71.4555 18.9694C71.4662 18.3163 71.4649 17.6592 71.4635 17.0041V17.0035C71.4631 16.7855 71.4626 16.5678 71.4626 16.3506V13.0124C71.4626 12.7266 71.4626 12.5827 71.3942 12.5332C71.3249 12.4829 71.1853 12.5297 70.9041 12.6239C70.8275 12.6503 70.7516 12.678 70.6759 12.7057L70.6758 12.7057C70.504 12.7685 70.3335 12.8307 70.1595 12.8757C69.8731 12.9476 69.7872 13.1131 69.7944 13.3937C69.8051 14.2897 69.8038 15.1898 69.8024 16.0878C69.802 16.3867 69.8015 16.6855 69.8015 16.9837V20.4299C69.8015 20.7133 69.8015 20.8536 69.8717 20.923C69.9404 20.991 70.0764 20.991 70.3457 20.991H72.3146C72.9537 20.991 73.2741 20.991 73.4802 20.8375C73.6873 20.6832 73.7789 20.3736 73.9624 19.7527L73.9686 19.732C74.0402 19.4658 74.0044 19.3507 73.7037 19.3579ZM50.4771 12.8686V16.7464C50.4771 17.1063 50.4759 17.4662 50.4747 17.8259C50.4718 18.7246 50.4689 19.6223 50.4842 20.5163C50.4842 20.8832 50.3625 21.0127 50.0045 20.984C49.759 20.9593 49.5136 20.9663 49.2681 20.9734C49.2272 20.9746 49.1862 20.9757 49.1453 20.9768C48.8947 20.984 48.8088 20.8688 48.8088 20.6314C48.816 18.1925 48.816 15.7464 48.8088 13.3075C48.8088 13.0844 48.8947 12.9549 49.1095 12.8902C49.3001 12.8349 49.4883 12.7694 49.6753 12.7044C49.8045 12.6595 49.9331 12.6148 50.0618 12.5736C50.4413 12.4513 50.4771 12.4729 50.4771 12.8686Z" fill="white"/>
    </svg>
    