<svg width="98" height="24" viewBox="0 0 98 24" fill="none" xmlns="http://www.w3.org/2000/svg">
    <path fill-rule="evenodd" clip-rule="evenodd" d="M10.1507 3.85376C11.368 3.57194 12.5918 3.57194 13.8091 3.85376C13.8325 3.85845 13.8574 3.86686 13.8828 3.87544C13.964 3.90287 14.0504 3.93207 14.1102 3.84721C14.1507 3.78408 14.1138 3.72405 14.0761 3.66286C14.0591 3.63511 14.0418 3.60712 14.0316 3.57849C14.02 3.54747 14.0038 3.52104 13.9871 3.49377L13.9871 3.49376L13.9871 3.49375C13.9756 3.47493 13.9638 3.45571 13.9531 3.43431C13.3117 2.28735 12.6769 1.14695 12.0421 0H11.9112L11.4486 0.833351C10.9465 1.7374 10.4433 2.64348 9.94781 3.54572C9.93656 3.56543 9.9229 3.58574 9.90897 3.60646C9.85802 3.68222 9.80339 3.76346 9.84964 3.84065C9.90427 3.93018 9.98904 3.9027 10.0725 3.87565C10.099 3.86706 10.1254 3.8585 10.1507 3.85376ZM3.76315 14.1898C3.85274 14.1299 3.8212 14.0322 3.79233 13.9427C3.78323 13.9145 3.7744 13.8872 3.76969 13.8621C3.521 12.6627 3.51445 11.4567 3.76969 10.2573C3.7749 10.2295 3.78472 10.1999 3.79462 10.1699C3.82204 10.0871 3.8501 10.0023 3.78278 9.94931C3.69937 9.8756 3.61963 9.93452 3.54357 9.99073C3.51818 10.0095 3.49321 10.0279 3.46864 10.0411C2.31692 10.6833 1.15866 11.3386 0.000402331 11.9939L0 11.9942V12.1252C0.578668 12.4526 1.1557 12.78 1.73274 13.1074L1.73275 13.1075L1.73434 13.1084C2.31189 13.436 2.88945 13.7637 3.46864 14.0914C3.48862 14.1029 3.50953 14.1171 3.53097 14.1317C3.60785 14.1841 3.6915 14.241 3.76315 14.1898ZM4.92155 12.0401C4.94773 8.06833 8.0695 4.96173 11.9963 4.92896C15.8903 4.89619 19.1168 8.14698 19.1168 12.0335C19.1103 15.9266 15.8772 19.1446 11.9832 19.1381C8.13495 19.1315 4.89537 15.9069 4.92155 12.0401ZM30.6811 7.08451C30.9952 7.13695 31.3094 7.15661 31.6235 7.15661H37.7754C38.0307 7.15661 38.2794 7.18282 38.5215 7.23526C38.8749 7.3139 39.1302 7.52363 39.176 7.8841C39.2872 8.81477 39.2087 9.4243 37.9587 9.43085H37.6315H29.647H29.3198C28.914 9.45051 28.7439 9.60781 28.7308 10.0142C28.7243 10.2304 28.7243 10.4533 28.7308 10.6696C28.7373 11.266 28.8748 11.4036 29.4638 11.4036H34.045H38.5281C38.9993 11.4036 39.464 11.3184 39.909 11.1611C40.858 10.8334 41.4208 10.0666 41.4404 9.05727C41.4535 8.56572 41.4535 8.07417 41.4404 7.58262C41.4142 6.54708 40.8645 5.80648 39.8828 5.46567C39.3265 5.2756 38.7506 5.22973 38.1747 5.22973H32.1536C31.8918 5.22973 31.6301 5.22317 31.3814 5.13797C31.1719 5.05932 30.9887 4.94135 30.8905 4.73162C30.4651 3.80095 30.956 3.01447 31.9769 3.00792H32.4678H40.2231C40.2524 3.00792 40.282 3.00832 40.3118 3.00873L40.3119 3.00873C40.4023 3.00996 40.4945 3.01121 40.5831 3.00136C40.9627 2.97515 41.1459 2.80474 41.1656 2.43116C41.1852 2.16245 41.1852 1.88718 41.1656 1.61191C41.1394 1.1859 40.9692 1.03516 40.5373 1.03516H31.3421C30.9494 1.03516 30.5633 1.10725 30.1837 1.22522C29.3002 1.5136 28.7701 2.09691 28.5999 3.01447C28.4887 3.64365 28.4886 4.27939 28.5606 4.90858C28.7112 6.19317 29.4114 6.87478 30.6811 7.08451ZM81.414 9.21567C81.4144 9.03831 81.4148 8.86114 81.4148 8.68439C81.4148 8.27149 81.3952 8.25838 80.9894 8.25182H77.1609C76.8418 8.25182 76.5228 8.25223 76.2037 8.25264C75.2466 8.25387 74.2894 8.2551 73.3323 8.24527C72.9985 8.23872 72.8938 8.35013 72.9069 8.67783C72.9264 9.37728 72.92 10.0702 72.9135 10.7696L72.9134 10.7751C72.9069 11.247 72.7498 11.3978 72.2786 11.4043C71.9383 11.4109 71.6045 11.4109 71.2642 11.4043C70.8911 11.3978 70.7275 11.2405 70.6882 10.8734C70.6817 10.7882 70.6817 10.6965 70.6817 10.6113C70.6817 8.46155 70.6817 6.30528 70.6882 4.15556C70.6948 3.50016 70.7995 2.85131 71.1595 2.27456C71.683 1.43565 72.488 1.06207 73.4239 1.04896C75.937 1.02274 78.4436 1.02274 80.9502 1.04896C82.4947 1.06207 83.6335 2.21557 83.6466 3.76888C83.6649 5.4063 83.6608 7.04692 83.6566 8.68627V8.68724V8.68821V8.68918V8.69015V8.69112V8.69209V8.69306V8.69403V8.695V8.69597V8.69694V8.69791V8.69888V8.69985V8.70082V8.70179V8.7025V8.70321V8.70391V8.70462V8.70533V8.70604V8.70675V8.70746V8.70817V8.70888V8.70959V8.7103V8.71101V8.71172V8.71243V8.71314C83.6549 9.41393 83.6531 10.1145 83.6531 10.8144C83.6531 11.2273 83.4895 11.3978 83.0837 11.4043C82.7238 11.4109 82.3638 11.4109 82.0039 11.4043C81.6046 11.3912 81.4279 11.2208 81.4214 10.8144C81.4116 10.2834 81.4128 9.7486 81.414 9.21567ZM76.1918 6.27825L76.1925 6.27825C76.5133 6.27866 76.834 6.27907 77.1543 6.27907C78.4501 6.27907 79.7525 6.27906 81.0484 6.27251C81.3101 6.27906 81.4279 6.20697 81.4214 5.92515C81.4148 5.65116 81.4165 5.3788 81.4181 5.10726V5.10699V5.10672V5.10645V5.10618V5.10591V5.10564V5.10537V5.1051V5.10483V5.10456V5.10429V5.10403V5.10376V5.10349V5.10322V5.10295C81.4198 4.8303 81.4214 4.55847 81.4148 4.28664C81.3952 3.46739 80.9436 3.01516 80.1256 3.00206C79.7244 2.99769 79.3261 2.99914 78.9269 3.0006C78.727 3.00133 78.5267 3.00206 78.3258 3.00206C76.9645 3.00206 75.6032 3.00206 74.242 3.00861C73.4828 3.01516 73.077 3.35597 72.9592 4.09002C72.8995 4.45312 72.9076 4.81865 72.9157 5.18365C72.921 5.41819 72.9262 5.65251 72.9134 5.88582C72.8938 6.18731 72.9919 6.29217 73.2995 6.28562C74.2618 6.27579 75.2277 6.27702 76.1918 6.27825ZM43.1224 10.061C43.6656 11.0048 44.5426 11.3915 45.5832 11.4046C48.044 11.4242 50.5113 11.4177 52.9721 11.4111C54.7849 11.4046 55.9237 10.2904 55.9433 8.46837C55.9629 6.96095 55.9629 5.45352 55.9433 3.9461C55.9302 2.16341 54.8045 1.04922 53.0179 1.03612C52.1981 1.03175 51.3783 1.0332 50.5566 1.03466C50.145 1.03539 49.733 1.03612 49.3202 1.03612C48.9166 1.03612 48.513 1.03539 48.1094 1.03466H48.1094C47.3022 1.0332 46.4951 1.03175 45.6879 1.03612C43.8554 1.04267 42.7428 2.13719 42.7232 3.96576C42.7036 5.46008 42.7101 6.95439 42.7232 8.45526C42.7363 9.01235 42.841 9.56289 43.1224 10.061ZM44.9811 4.03786C45.0334 3.41522 45.5308 3.02198 46.218 3.01543C46.9161 3.00669 47.6142 3.0096 48.3122 3.01252H48.3123C48.6613 3.01397 49.0104 3.01543 49.3594 3.01543H52.3372C53.2731 3.02198 53.7181 3.4611 53.7247 4.40488C53.7312 5.61737 53.7312 6.82987 53.7247 8.04236C53.7181 8.96648 53.2535 9.43181 52.3241 9.43181C50.3411 9.43837 48.3581 9.43837 46.3685 9.43181C45.4654 9.43181 45.0138 9.06479 44.9615 8.16033C44.8764 6.78399 44.8567 5.40765 44.9811 4.03786ZM86.9386 11.4042C86.5982 11.4107 86.2645 11.4107 85.9241 11.4042C85.4791 11.3976 85.3286 11.2534 85.3286 10.8143C85.3242 10.1537 85.3257 9.49602 85.3271 8.83741V8.83672V8.83602V8.83532V8.83462V8.83392V8.83321V8.8325V8.83179V8.83107V8.83036V8.82963V8.82891V8.82818V8.82746C85.3279 8.49612 85.3286 8.16453 85.3286 7.83222V1.76975C85.3286 1.15368 85.4464 1.0357 86.0485 1.0357H94.9099C95.3287 1.02915 95.7411 1.08158 96.1403 1.18645C97.1416 1.44861 97.7175 2.0909 97.868 3.12643C97.94 3.63765 97.94 4.14886 97.9008 4.66007C97.8288 5.59074 97.4557 6.34446 96.4806 6.76391C96.8733 6.9802 97.1809 7.17682 97.4099 7.4783C97.7699 7.95019 97.8877 8.50073 97.9073 9.07748C97.9269 9.63457 97.9204 10.1917 97.9139 10.7488C97.9139 11.2338 97.7437 11.391 97.2594 11.3976H96.3759C95.8523 11.391 95.7345 11.26 95.7214 10.7291C95.7172 10.53 95.7205 10.3302 95.7238 10.1299V10.1299C95.7307 9.71051 95.7376 9.28913 95.6756 8.86775C95.5905 8.27789 95.224 7.89776 94.635 7.81911C94.3601 7.77979 94.0722 7.75357 93.7908 7.75357H87.9661C87.7458 7.75357 87.6362 7.75357 87.5816 7.80838C87.5276 7.86269 87.5276 7.97083 87.5276 8.18614C87.5276 8.47427 87.5283 8.76312 87.529 9.05222V9.05295V9.05368V9.05441V9.05514V9.05587V9.0566V9.05733V9.05806V9.05879C87.5305 9.6421 87.5319 10.2264 87.5276 10.8077C87.521 11.26 87.3836 11.3976 86.9386 11.4042ZM91.2973 3.01502C90.152 3.01502 89.0132 3.01502 87.8679 3.00846C87.6192 3.00846 87.5145 3.08711 87.5145 3.35583C87.5243 3.86719 87.5231 4.37487 87.5218 4.88162C87.5214 5.05034 87.521 5.21896 87.521 5.38757C87.521 5.81358 87.5407 5.82669 87.9661 5.82669H94.3405C94.563 5.82669 94.779 5.80703 94.9884 5.7546C95.3811 5.65629 95.6102 5.41379 95.6756 5.01399C95.7411 4.60764 95.7411 4.20785 95.6756 3.80805C95.6167 3.43447 95.3876 3.21164 95.0473 3.08711C94.8575 3.01502 94.6612 3.01502 94.4649 3.01502H91.2973ZM69.6936 10.1848C69.687 9.58843 69.5299 9.43113 68.9278 9.43113H63.0442C62.8761 9.43113 62.7076 9.43154 62.5388 9.43195L62.5382 9.43195H62.5382H62.5381H62.5381H62.538H62.538H62.5379H62.5379H62.5379H62.5378H62.5378H62.5377H62.5377H62.5376C62.0302 9.43318 61.521 9.43441 61.0154 9.42458C60.2759 9.41147 59.8636 9.051 59.7392 8.33006C59.7065 8.14655 59.6999 7.96303 59.6999 7.77952V1.75638C59.6999 1.15341 59.5887 1.04199 58.9997 1.04199H58.1816C57.6384 1.04199 57.4682 1.19273 57.4682 1.73672C57.4617 3.93887 57.4551 6.14757 57.4748 8.34972C57.4813 9.14276 57.6449 9.90958 58.2274 10.5257C58.8164 11.1483 59.5494 11.3973 60.374 11.4039C61.4387 11.4137 62.4997 11.4125 63.5626 11.4113H63.5627H63.5627H63.5628H63.5628H63.5629H63.5629H63.563H63.5631H63.5631H63.5632H63.5632H63.5633H63.5633C63.918 11.4109 64.2728 11.4104 64.628 11.4104H69.0456C69.4972 11.4104 69.6543 11.2597 69.6936 10.814C69.7023 10.6742 69.6994 10.5344 69.6965 10.3946L69.6964 10.3935C69.695 10.3239 69.6936 10.2544 69.6936 10.1848ZM34.5621 17.574C33.4277 17.5769 32.2933 17.5798 31.1589 17.5711C30.0856 17.5645 30.0201 18.1872 30.0463 18.9081C30.0594 19.1178 30.1968 19.1178 30.3474 19.1178H32.1144H35.7467C36.1982 19.1178 36.2702 19.1899 36.2768 19.6553C36.2833 20.409 36.2506 20.4418 35.4849 20.4418H30.4782C30.0594 20.4418 30.0398 20.4614 30.0463 20.8874C30.0594 21.6477 30.3408 21.9361 31.1065 21.9361H36.4731C37.0098 21.9361 37.0687 21.9951 37.0687 22.539V22.7684C37.0621 23.1879 36.9836 23.2731 36.5713 23.2731H33.4626C33.1426 23.2731 32.8219 23.2738 32.5009 23.2745H32.5002H32.4995H32.4988H32.4981H32.4973H32.4966H32.4959H32.4952H32.4945H32.4937H32.493H32.4925C31.8447 23.276 31.196 23.2775 30.5502 23.2731C29.274 23.2665 28.541 22.5521 28.528 21.2872C28.5149 20.2582 28.5149 19.2358 28.528 18.2068C28.541 16.9616 29.2806 16.2341 30.5241 16.2275C31.8604 16.2232 33.1938 16.2246 34.5282 16.2261H34.5289H34.5297H34.5304H34.5311H34.5318H34.5325H34.5333H34.534H34.5347H34.5354H34.5362H34.5369C35.2059 16.2268 35.8751 16.2275 36.5451 16.2275C36.9836 16.2275 37.0621 16.3127 37.0687 16.7453C37.0752 17.5711 37.0752 17.5711 36.2637 17.5711C35.6972 17.5711 35.1308 17.5725 34.5643 17.574L34.5621 17.574ZM97.9597 18.4624C97.8746 16.9222 97.0958 16.2341 95.5513 16.2275C94.2584 16.2232 92.9684 16.2246 91.6774 16.2261H91.6767H91.6759H91.6752H91.6745H91.6737H91.673H91.6723H91.6715H91.6708H91.6701H91.6693C91.0221 16.2268 90.3747 16.2275 89.7266 16.2275C89.275 16.2275 89.1964 16.3062 89.1964 16.765V22.7619C89.1964 23.1944 89.2815 23.2731 89.72 23.2796H92.7633C93.0568 23.2796 93.3497 23.2807 93.6425 23.2818L93.6434 23.2818H93.6435C94.3753 23.2845 95.1056 23.2871 95.8392 23.2731C97.0238 23.2534 97.8026 22.5194 97.927 21.3462C98.0251 20.3893 98.012 19.4193 97.9597 18.4624ZM96.4217 20.9071C96.3497 21.5822 95.9636 21.9295 95.2895 21.9361C94.2197 21.9459 93.1499 21.9447 92.0801 21.9434H92.0795C91.7228 21.943 91.366 21.9426 91.0093 21.9426C90.7999 21.9426 90.7213 21.8574 90.7213 21.6477C90.7279 20.3959 90.7279 19.1375 90.7213 17.8857C90.7213 17.6366 90.8261 17.5711 91.0551 17.5711C91.5258 17.5755 91.9966 17.574 92.4692 17.5726C92.7063 17.5718 92.9438 17.5711 93.1821 17.5711C93.4066 17.5711 93.631 17.5704 93.8557 17.5696H93.8559H93.856H93.8562H93.8564H93.8565H93.8567H93.8568H93.857H93.8572H93.8573H93.8575C94.307 17.5682 94.7575 17.5667 95.2109 17.5711C95.9505 17.5777 96.3562 17.8988 96.4282 18.6132C96.5002 19.38 96.5002 20.1468 96.4217 20.9071ZM52.4999 16.2329C53.0518 16.2314 53.6028 16.23 54.1566 16.2344C55.387 16.2475 56.1331 16.9815 56.1527 18.2202C56.1658 19.2492 56.1658 20.2716 56.1527 21.3006C56.1331 22.5262 55.3739 23.2734 54.1501 23.2799C52.4878 23.2865 50.832 23.2865 49.1762 23.2799C47.9262 23.2799 47.1997 22.559 47.1801 21.3072C47.167 20.2716 47.167 19.2295 47.1801 18.194C47.1997 16.9619 47.9262 16.2475 49.15 16.2344H49.2482H51.6697C51.947 16.2344 52.2236 16.2336 52.4999 16.2329ZM53.6985 21.9364C54.2352 21.9298 54.5428 21.6676 54.5886 21.1368C54.6737 20.2323 54.6671 19.3279 54.5951 18.4234C54.5428 17.7877 54.2744 17.5714 53.6265 17.5714C52.3176 17.5648 51.0087 17.5648 49.6998 17.5714C48.9995 17.5714 48.705 17.8663 48.6984 18.5741C48.6919 19.3606 48.6919 20.1471 48.6984 20.9336C48.705 21.6283 49.0191 21.9298 49.7063 21.9364C50.1425 21.9407 50.5786 21.9393 51.0148 21.9378H51.0152C51.2334 21.9371 51.4515 21.9364 51.6697 21.9364C51.8941 21.9364 52.1193 21.9378 52.3448 21.9393C52.7963 21.9422 53.2489 21.9451 53.6985 21.9364ZM45.7206 21.9429H40.5177C39.7323 21.9429 39.4313 21.6414 39.4182 20.855C39.4116 20.3634 39.4116 19.8719 39.4182 19.3803C39.4199 19.2783 39.4185 19.1763 39.4171 19.0744C39.4131 18.7835 39.4092 18.4935 39.4771 18.2071C39.5491 17.8991 39.7323 17.709 40.0334 17.6238C40.2035 17.5779 40.3802 17.5779 40.5504 17.5779H45.7533C46.2507 17.5779 46.3358 17.4862 46.3424 16.9815V16.7849C46.3358 16.3261 46.2507 16.2409 45.7795 16.2344H42.8017V16.2409C42.5119 16.2409 42.2221 16.2399 41.9322 16.2388H41.932C41.2075 16.2361 40.483 16.2334 39.7585 16.2475C38.7441 16.2671 38.0373 16.9094 37.9522 17.9188C37.8475 19.1575 37.8475 20.4027 37.9522 21.648C38.0373 22.618 38.7441 23.2734 39.7192 23.2865C41.1916 23.3005 42.664 23.2979 44.1363 23.2952H44.1368C44.7258 23.2941 45.3149 23.2931 45.9039 23.2931C46.0282 23.2931 46.1657 23.2931 46.2311 23.1816C46.4209 22.867 46.3751 22.5197 46.2966 22.1985C46.2387 21.9318 46.0118 21.937 45.8016 21.9417C45.7742 21.9423 45.7471 21.9429 45.7206 21.9429ZM76.7617 16.8181C76.7617 16.3003 76.8337 16.2348 77.3507 16.2348C77.8195 16.2315 78.0535 16.2299 78.1694 16.346C78.285 16.4618 78.2833 16.6944 78.2801 17.1589C78.2801 17.6114 78.2808 18.0631 78.2815 18.5146V18.5154V18.5161V18.5168V18.5175V18.5183V18.519V18.5197V18.5204C78.283 19.4208 78.2844 20.3201 78.2801 21.2224C78.2801 22.566 77.5602 23.2804 76.212 23.2869H73.9213H71.7616C70.3284 23.2869 69.6215 22.6512 69.5823 21.2224C69.5521 20.0727 69.5606 18.9192 69.5691 17.7677V17.767C69.5717 17.4221 69.5742 17.0773 69.5757 16.7329C69.5757 16.3266 69.687 16.2348 70.0928 16.2348C70.1855 16.2348 70.2697 16.2341 70.3462 16.2334C70.7244 16.2303 70.913 16.2287 71.0063 16.3222C71.0992 16.4152 71.0979 16.6024 71.0951 16.9757C71.0946 17.0454 71.0941 17.1216 71.0941 17.2048V20.744C71.0941 21.6681 71.3755 21.9433 72.2852 21.9433H75.6884C76.4803 21.9433 76.7617 21.6681 76.7617 20.8816V16.8181ZM86.1532 16.2344C85.6212 16.23 85.092 16.2314 84.5619 16.2329C84.2965 16.2336 84.0308 16.2344 83.7644 16.2344H81.4084H81.3102C80.1976 16.254 79.4319 16.9356 79.3992 18.0564C79.3668 19.1806 79.3736 20.3081 79.3804 21.4343V21.4349V21.4356V21.4363V21.437V21.4377V21.4384V21.4391V21.4398C79.3832 21.9072 79.3861 22.3743 79.3861 22.8408C79.3861 23.1554 79.5432 23.2996 79.8573 23.2865C79.9663 23.2821 80.0754 23.2836 80.1844 23.285H80.1845C80.2391 23.2858 80.2936 23.2865 80.3481 23.2865C80.8324 23.2865 80.9044 23.2144 80.9044 22.7425V21.3334C80.9044 21.1006 80.904 20.8683 80.9036 20.6362V20.6356V20.635V20.6344V20.6337V20.6331V20.6325V20.6319C80.9024 19.9373 80.9012 19.2444 80.911 18.5479C80.9175 17.9122 81.2055 17.591 81.7814 17.5845C83.0903 17.5714 84.3992 17.5714 85.7082 17.5845C86.2056 17.591 86.4412 17.8139 86.5328 18.2989C86.5916 18.6083 86.5843 18.9176 86.577 19.2298C86.5745 19.3342 86.5721 19.439 86.5721 19.5441C86.5764 20.2566 86.575 20.9719 86.5735 21.6863C86.5728 22.0432 86.5721 22.3997 86.5721 22.7556C86.5721 23.2078 86.6506 23.2799 87.1087 23.2865H87.5668C87.9922 23.2799 88.0839 23.1947 88.0904 22.7687C88.097 21.2416 88.1035 19.708 88.0904 18.1809C88.0773 17.0077 87.3181 16.2475 86.1532 16.2344ZM65.3348 16.2344H68.378C68.8231 16.2344 68.9082 16.3261 68.9147 16.7784V17.0077C68.9082 17.4862 68.8165 17.5845 68.3388 17.5845C67.8147 17.5845 67.2907 17.5863 66.7668 17.588L66.7657 17.588C65.5431 17.5922 64.3215 17.5963 63.1031 17.5779C61.9971 17.5583 61.9382 18.2006 61.984 19.0198C61.9966 19.1973 62.1377 19.197 62.2654 19.1968L62.2785 19.1968H63.7837H67.5142C68.0377 19.1968 68.1228 19.282 68.1293 19.7998V20.0292C68.1163 20.4355 68.0181 20.5338 67.6189 20.5338H65.1319C64.8994 20.5338 64.6672 20.5342 64.4353 20.5346H64.435C63.7402 20.5359 63.0472 20.5371 62.3505 20.5273C62.0756 20.5273 61.9643 20.6059 61.9709 20.9008C61.9905 21.5349 61.984 22.1624 61.9775 22.7963L61.9774 22.8015C61.9709 23.1947 61.8858 23.2799 61.4931 23.2865C61.2968 23.2931 61.1004 23.2931 60.9041 23.2865C60.5572 23.2734 60.4656 23.1816 60.4591 22.8277C60.4547 22.4782 60.4562 22.1286 60.4576 21.7791C60.4583 21.6043 60.4591 21.4295 60.4591 21.2548C60.4591 20.9287 60.4583 20.6035 60.4576 20.2787V20.2785V20.2783V20.2782V20.278V20.2778V20.2776C60.4562 19.6299 60.4547 18.984 60.4591 18.3382C60.4656 16.9422 61.1659 16.2409 62.5533 16.2344H65.3348ZM13.9007 20.193C13.0761 20.3699 12.2515 20.4617 11.4072 20.383C10.936 20.3437 10.4779 20.2716 10.0067 20.1667C9.99654 20.1667 9.98481 20.1651 9.97226 20.1634L9.97221 20.1634C9.928 20.1574 9.87363 20.1499 9.84305 20.2061C9.80989 20.2725 9.84674 20.3296 9.88266 20.3852C9.88927 20.3954 9.89585 20.4056 9.90196 20.4158C10.0745 20.7195 10.247 21.0226 10.4194 21.3256L10.4195 21.3258C10.8945 22.1606 11.3686 22.9938 11.8392 23.8304C11.9635 24.0533 12.0617 24.0598 12.1926 23.8304C12.5973 23.1118 13.0046 22.3931 13.413 21.6728L13.4135 21.6718C13.6455 21.2625 13.8778 20.8527 14.1101 20.442C14.1184 20.4268 14.1287 20.4111 14.1393 20.3949C14.1788 20.3343 14.2221 20.2682 14.1756 20.2061C14.1186 20.1282 14.0369 20.1531 13.9599 20.1766C13.9397 20.1828 13.9198 20.1889 13.9007 20.193ZM19.4285 16.4653C19.4314 16.478 19.4343 16.4905 19.4375 16.5022C19.7712 17.7344 20.0985 18.9665 20.4257 20.2118C20.4344 20.238 20.4402 20.2671 20.447 20.3011C20.4504 20.3181 20.4541 20.3363 20.4584 20.356C20.464 20.5466 20.3451 20.5118 20.241 20.4814C20.2234 20.4762 20.2062 20.4712 20.1901 20.4674C19.6142 20.3166 19.0317 20.1593 18.4558 20.0021C18.1351 19.9136 17.8145 19.8268 17.4938 19.7399C17.1731 19.6531 16.8524 19.5662 16.5317 19.4777C16.5126 19.4719 16.4909 19.4676 16.4686 19.4633C16.3912 19.4482 16.3062 19.4316 16.2961 19.3401C16.2862 19.261 16.3508 19.2304 16.4141 19.2004C16.4346 19.1906 16.4551 19.181 16.4728 19.1697C17.5592 18.4684 18.4623 17.5836 19.1495 16.4825C19.1565 16.4698 19.163 16.4558 19.1697 16.4415C19.2007 16.3751 19.2346 16.3025 19.3262 16.3187C19.3974 16.3297 19.4136 16.4003 19.4285 16.4653ZM23.7765 11.8757C22.6901 11.2531 21.6037 10.6305 20.5108 10.0078C20.4904 9.99686 20.4697 9.9829 20.4488 9.96881C20.3823 9.92394 20.3137 9.87773 20.249 9.92262C20.1699 9.982 20.1991 10.0675 20.2265 10.1482C20.2354 10.1744 20.2442 10.2 20.249 10.2241C20.3995 11.0171 20.5042 11.8102 20.4257 12.6294C20.3799 13.0948 20.3079 13.5601 20.2097 14.0254C20.2115 14.0399 20.2098 14.0564 20.2081 14.0733C20.2036 14.1178 20.1987 14.1656 20.2555 14.1893C20.3261 14.2196 20.3851 14.1837 20.4443 14.1477C20.462 14.137 20.4797 14.1262 20.4977 14.1172C21.5972 13.4946 22.6967 12.8654 23.7896 12.2362C24.0514 12.0854 24.0514 12.033 23.7765 11.8757ZM4.87573 16.4967C5.56946 17.5977 6.46607 18.4825 7.55902 19.1773C7.57239 19.1846 7.5871 19.1912 7.60209 19.1979C7.66781 19.2275 7.73862 19.2594 7.72264 19.3608C7.71199 19.4354 7.64505 19.4493 7.58169 19.4625L7.58165 19.4625C7.56714 19.4655 7.55281 19.4685 7.53939 19.4722C6.91764 19.6393 6.29752 19.8064 5.67741 19.9736C5.05732 20.1407 4.43723 20.3078 3.81551 20.4749C3.79674 20.4825 3.77798 20.4857 3.75552 20.4895L3.75548 20.4895C3.73878 20.4924 3.72002 20.4956 3.6977 20.5012C3.50737 20.5068 3.54209 20.3877 3.5725 20.2834C3.57764 20.2658 3.58266 20.2486 3.58644 20.2325C3.73697 19.6557 3.89404 19.0724 4.05111 18.4956C4.1052 18.295 4.15867 18.0944 4.2121 17.894C4.33321 17.4396 4.45407 16.9862 4.58122 16.536C4.58473 16.5219 4.58761 16.5067 4.59057 16.4909C4.60419 16.4186 4.61955 16.337 4.70557 16.3263C4.78544 16.3163 4.81581 16.3787 4.84606 16.4409C4.85547 16.4602 4.86486 16.4796 4.87573 16.4967ZM4.59731 7.57389L4.59732 7.5739C4.60931 7.64515 4.62253 7.72367 4.7121 7.73422C4.7898 7.74395 4.82066 7.68149 4.85013 7.62185L4.85013 7.62184C4.86037 7.60111 4.87044 7.58072 4.88226 7.56381C5.56944 6.47585 6.45296 5.59106 7.53282 4.89633C7.54926 4.88673 7.56829 4.87798 7.58779 4.86902C7.66144 4.83517 7.74195 4.79817 7.71607 4.69971C7.69603 4.61942 7.6146 4.60445 7.5364 4.59007L7.53639 4.59007C7.51247 4.58567 7.48884 4.58133 7.46738 4.57518L4.97388 3.90667C4.56157 3.79525 4.15581 3.68384 3.73041 3.56586C3.49341 3.5485 3.54232 3.69475 3.58403 3.81945L3.58403 3.81946C3.58954 3.83594 3.59493 3.85205 3.59952 3.86735C3.9202 5.0864 4.25398 6.30544 4.58775 7.52449C4.59158 7.53982 4.59441 7.55664 4.59731 7.57389ZM19.143 7.58241C18.4427 6.47478 17.5461 5.57688 16.4401 4.8756C16.427 4.8669 16.4124 4.85883 16.3975 4.85062C16.3451 4.82178 16.2896 4.7912 16.2896 4.72486C16.2948 4.64159 16.3619 4.62858 16.422 4.6169C16.4377 4.61387 16.4528 4.61094 16.4663 4.60689C17.0913 4.43649 17.7162 4.26773 18.3412 4.09897C18.9663 3.9302 19.5913 3.76143 20.2163 3.59102C20.3472 3.55169 20.4912 3.52548 20.4323 3.82041C20.3989 3.9432 20.3631 4.07283 20.3262 4.20698C20.2546 4.46664 20.1784 4.74322 20.1051 5.01979C19.8826 5.85871 19.6535 6.70417 19.4244 7.54309C19.4206 7.55714 19.4178 7.57319 19.4148 7.58992C19.4026 7.659 19.3884 7.73971 19.2935 7.73971C19.2255 7.73971 19.1951 7.68104 19.1656 7.62402C19.1582 7.60973 19.1509 7.59554 19.143 7.58241Z" fill="white"/>
    </svg>
    