<svg width="82" height="24" viewBox="0 0 82 24" fill="none" xmlns="http://www.w3.org/2000/svg">
    <path fill-rule="evenodd" clip-rule="evenodd" d="M19.5206 0H4.36062C1.94184 0 0 1.9515 0 4.38231V19.6177C0 22.0485 1.94184 24 4.36062 24H19.5206C21.9393 24 23.8812 22.0485 23.8812 19.6177V4.38231C23.8812 1.9515 21.9393 0 19.5206 0ZM15.8413 5.99144C17.6128 5.99144 19.0436 7.42939 19.0436 9.2097C19.0436 9.75749 18.9074 10.271 18.6689 10.7504C18.2601 10.408 17.8172 10.1683 17.3403 9.99715C17.4765 9.75749 17.5447 9.48359 17.5447 9.2097C17.5447 8.28531 16.8293 7.5321 15.9094 7.5321C14.9896 7.5321 14.2401 8.25107 14.2401 9.17546V9.2097C14.2401 9.48359 14.3083 9.75749 14.4445 9.99715C13.9676 10.1683 13.4907 10.408 13.1159 10.7504C12.8434 10.271 12.7071 9.75749 12.7412 9.2097C12.639 7.42939 14.0698 5.99144 15.8413 5.99144ZM8.03989 18.0086C6.26839 18.0086 4.83756 16.5706 4.83756 14.7903H6.37059C6.37059 15.7147 7.12007 16.4679 8.03989 16.4679C8.9597 16.4679 9.70918 15.7147 9.70918 14.7903H11.2422C11.2422 16.5706 9.81139 18.0086 8.03989 18.0086ZM8.03989 13.4893C5.99585 13.4893 4.32655 11.8117 4.32655 9.72325C4.32655 7.66904 5.99585 5.99144 8.07395 5.99144C10.118 5.99144 11.7873 7.66904 11.7873 9.75749C11.7532 11.8117 10.0839 13.4893 8.03989 13.4893ZM19.5546 14.2425C19.5546 16.2967 17.8853 17.9743 15.8413 17.9743C13.7973 17.9743 12.0939 16.2967 12.0939 14.2425C12.0939 12.1883 13.7632 10.4765 15.8072 10.4765C17.8853 10.5107 19.5546 12.1883 19.5546 14.2425ZM36.2476 4.48591C35.7706 4.31473 35.2937 4.21202 34.8168 4.21202C33.3519 4.21202 32.0232 5.10217 31.4782 6.30046C31.1034 7.22485 31.1034 8.21772 31.4782 9.14212C31.6826 9.58719 31.921 9.9638 32.2617 10.3062C32.9431 10.9909 33.8629 11.3675 34.8168 11.3675C35.7706 11.3675 36.6905 10.9909 37.3718 10.3062C37.6784 9.99804 37.9169 9.65567 38.0872 9.27906H39.5181L39.518 9.27911C39.484 9.41604 39.4499 9.55297 39.3818 9.68991C39.1433 10.3062 38.7686 10.854 38.3257 11.299C37.4059 12.2577 36.1454 12.7712 34.8168 12.7712C34.1354 12.7712 33.4881 12.6685 32.8749 12.3946C32.2958 12.155 31.7507 11.7783 31.3078 11.3333C30.865 10.8882 30.4902 10.3404 30.2517 9.75838C29.7407 8.49162 29.7407 7.08791 30.2517 5.85538C30.4902 5.27336 30.865 4.72557 31.3078 4.28049C31.7848 3.83541 32.3298 3.45881 32.909 3.21915C34.1354 2.7056 35.5322 2.7056 36.7586 3.21915C37.951 3.7327 38.9048 4.69133 39.4159 5.88962C39.4329 5.95809 39.4584 6.02657 39.484 6.09504C39.5095 6.16351 39.5351 6.23199 39.5521 6.30046H38.1213C37.951 5.92386 37.7125 5.58149 37.4059 5.27336C37.0652 4.93099 36.6905 4.69133 36.2476 4.48591ZM43.4699 3.25235C44.6963 2.7388 46.0931 2.7388 47.3195 3.25235C48.5119 3.7659 49.4658 4.72453 50.0108 5.95706C50.5219 7.18958 50.5219 8.59329 50.0108 9.82582C49.4998 11.0241 48.5459 11.9827 47.3536 12.4963C46.0931 13.0098 44.6963 13.0098 43.4699 12.4963C42.2776 11.9827 41.3237 11.0241 40.8127 9.82582C40.3017 8.55906 40.3017 7.15535 40.8127 5.92282C41.3237 4.72453 42.2776 3.7659 43.4699 3.25235ZM47.9327 10.4421C48.2734 10.0997 48.5459 9.72311 48.7163 9.27803C49.1251 8.38787 49.1251 7.36077 48.7163 6.47061C48.5119 6.02553 48.2734 5.64893 47.9327 5.30656C47.5921 4.96419 47.2173 4.6903 46.7744 4.51911C46.2975 4.34793 45.8206 4.24522 45.3436 4.24522C44.8667 4.21098 44.3557 4.31369 43.9128 4.51911C42.0732 5.27232 41.2215 7.42924 42.005 9.27803C42.2094 9.72311 42.4479 10.0997 42.7886 10.4421C43.1292 10.7844 43.504 11.0583 43.9469 11.2295C44.3897 11.4007 44.8667 11.5034 45.3436 11.5034C45.8546 11.5034 46.3316 11.4007 46.7744 11.2295C47.2173 11.0241 47.5921 10.7844 47.9327 10.4421ZM80.8758 7.49773L80.501 7.1896L80.7736 6.81299C81.1142 6.40215 81.2846 5.85436 81.2846 5.34081C81.2505 3.97134 80.1263 2.84152 78.7636 2.87576C77.4009 2.91 76.3448 4.00557 76.3107 5.34081C76.3107 5.8886 76.4811 6.40215 76.7877 6.84723L77.0602 7.22383L76.7196 7.53196C76.0041 8.11399 75.6294 9.00415 75.6294 9.92854C75.6294 11.7089 77.0602 13.1468 78.8317 13.1126C80.6032 13.1126 82 11.6746 82 9.92854C82 8.96991 81.5912 8.07975 80.8758 7.49773ZM77.4009 5.34081C77.4009 4.5876 78.0141 3.97134 78.7636 3.9371C79.5471 3.9371 80.1604 4.55336 80.1604 5.34081C80.1604 6.12825 79.5471 6.74452 78.7636 6.74452C78.0141 6.71028 77.4009 6.09402 77.4009 5.34081ZM78.7977 11.9827C77.6394 11.9827 76.7196 11.0584 76.7196 9.8943C76.7536 8.73025 77.6734 7.8401 78.8317 7.8401C79.9559 7.87433 80.8417 8.76449 80.8758 9.8943C80.8758 11.0584 79.9219 11.9827 78.7977 11.9827ZM51.8504 2.87598H53.1791V12.8731H51.8504V2.87598ZM70.7237 2.8752C68.816 2.90943 67.2489 4.48433 67.2148 6.43583C67.2148 8.38732 68.816 9.89374 70.86 9.89374H71.6776L70.1105 12.9066H71.4732L73.926 8.14767C74.2327 7.59988 74.403 6.98361 74.403 6.36735C74.3689 4.38162 72.6996 2.80672 70.7237 2.8752ZM73.1766 6.40159C73.1766 7.70259 72.1205 8.79817 70.7919 8.79817C69.4973 8.79817 68.4071 7.73682 68.4071 6.40159C68.4071 5.10059 69.4632 4.00501 70.7919 4.00501C72.1205 4.00501 73.1766 5.06635 73.1766 6.40159ZM64.0125 2.8756H65.4433V10.9555C65.4774 11.5033 65.2048 12.0168 64.7619 12.2907C64.3872 12.5989 63.8762 12.77 63.3652 12.77C62.4454 12.77 61.9003 12.4619 61.5937 11.8456C60.6398 9.99685 59.0386 6.47046 58.3232 4.86133L58.2892 4.79286C58.187 4.48473 57.8803 4.27931 57.5737 4.27931H57.5397C57.199 4.27931 56.8924 4.58744 56.9265 4.96404V12.8385H55.4956V4.75862C55.4956 4.21083 55.7341 3.69728 56.1429 3.35491C56.1599 3.35491 56.1685 3.34635 56.177 3.3378C56.1855 3.32924 56.194 3.32068 56.211 3.32068C56.5858 3.01255 57.0627 2.84136 57.5737 2.84136C58.4595 2.80713 59.243 3.35491 59.5837 4.1766L62.6498 10.8185C62.752 11.1267 63.0586 11.2979 63.3652 11.3321H63.4333C63.8081 11.2979 64.0465 10.9897 64.0125 10.6131V2.8756ZM34.7487 15.7833C34.7316 15.7833 34.7146 15.7748 34.6976 15.7662C34.6805 15.7576 34.6635 15.7491 34.6465 15.7491C34.5443 15.7491 34.4761 15.8176 34.4421 15.886L32.6365 20.0972L30.7969 15.886C30.7628 15.7833 30.6947 15.7491 30.5925 15.7148C30.5584 15.7148 30.5243 15.7148 30.4903 15.7491C30.4221 15.7491 30.3881 15.7833 30.354 15.8518C30.3199 15.886 30.3199 15.9203 30.3199 15.9545C30.3199 15.9887 30.3199 16.023 30.354 16.0914L32.364 20.7134C32.398 20.8161 32.5002 20.8846 32.6024 20.8846H32.6365C32.7387 20.8846 32.8409 20.8161 32.875 20.7134L34.8849 16.0914C34.919 16.0572 34.919 16.023 34.919 15.9545C34.919 15.9203 34.919 15.886 34.8849 15.8518C34.8849 15.8176 34.8168 15.7833 34.7487 15.7833ZM36.0773 20.4053H38.973C39.1092 20.4053 39.2114 20.5422 39.2114 20.6449C39.2114 20.7819 39.1092 20.8846 38.973 20.8846H36.0773C36.0091 20.8846 35.941 20.8504 35.9069 20.8161C35.8729 20.7819 35.8388 20.7134 35.8388 20.6449C35.8047 20.5422 35.9069 20.4053 36.0091 20.4053H36.0773ZM36.0773 18.5564H38.0532H38.1213C38.2576 18.5564 38.3257 18.4195 38.3257 18.3167V18.2483C38.2916 18.1113 38.1894 18.0428 38.0872 18.0771H36.1113C36.0432 18.0771 35.9751 18.1113 35.941 18.1456C35.8388 18.2483 35.8388 18.4195 35.941 18.5222C35.941 18.5222 36.0091 18.5564 36.0773 18.5564ZM36.0773 15.749H38.973C39.1092 15.749 39.2114 15.886 39.2114 16.0229C39.2114 16.1599 39.1092 16.2626 38.973 16.2626H36.0773C36.0274 16.2626 35.9958 16.2442 35.9557 16.221L35.9352 16.2092C35.9264 16.2043 35.917 16.1992 35.9069 16.1941L35.9069 16.1941C35.8728 16.1256 35.8388 16.0571 35.8388 15.9887C35.8047 15.886 35.9069 15.749 36.0091 15.749H36.0773ZM44.2194 15.749C44.0832 15.749 43.981 15.8517 43.981 15.9887V19.9601L40.8468 15.886C40.7786 15.8175 40.7105 15.749 40.6083 15.749H40.5402C40.438 15.749 40.3358 15.886 40.3698 15.9887V20.6449V20.7134C40.4039 20.8161 40.5061 20.9188 40.6083 20.8845H40.6764C40.8127 20.8503 40.8808 20.7476 40.8468 20.6449V16.7077L43.981 20.7818C44.0491 20.8503 44.1172 20.9188 44.2194 20.9188H44.2876C44.4238 20.9188 44.492 20.7818 44.4579 20.6791V15.9887C44.4579 15.8517 44.3557 15.749 44.2194 15.749ZM47.3196 16.8107C47.3877 16.7764 47.4558 16.7422 47.524 16.7422C47.5921 16.7422 47.6602 16.7764 47.6943 16.8107C47.7284 16.8449 47.7284 16.9134 47.7284 16.9818V20.6452C47.7284 20.7479 47.6602 20.8848 47.524 20.8848H47.4899C47.4218 20.8848 47.3536 20.8506 47.3196 20.8164C47.2855 20.7821 47.2514 20.7137 47.2514 20.6452V16.9818C47.2514 16.9317 47.2697 16.8999 47.2928 16.8596C47.3013 16.8449 47.3104 16.829 47.3196 16.8107ZM49.3976 15.749H45.6502H45.6162C45.4799 15.749 45.4118 15.886 45.4118 15.9887V16.0229C45.4118 16.1599 45.548 16.2283 45.6502 16.2283H49.3976C49.4658 16.2283 49.5339 16.1941 49.568 16.1599C49.602 16.1256 49.6361 16.0572 49.6361 15.9887C49.6361 15.9202 49.602 15.8517 49.568 15.8175C49.5497 15.8083 49.5339 15.7992 49.5192 15.7906C49.4791 15.7674 49.4475 15.749 49.3976 15.749ZM54.3033 16.0226C54.3033 15.8857 54.4055 15.7487 54.5418 15.7487C54.6781 15.7145 54.8143 15.8172 54.7803 15.9884V16.0226V19.2409C54.8143 19.686 54.6781 20.1653 54.3715 20.5077C54.0308 20.8158 53.5879 20.9527 53.111 20.9185H52.1571C51.7142 20.9527 51.2373 20.8158 50.8966 20.5077C50.59 20.1653 50.4537 19.7202 50.4878 19.2409V16.0226C50.4878 15.8857 50.59 15.7487 50.7262 15.7487C50.8625 15.7487 50.9988 15.8515 50.9988 15.9884V16.0226V19.2409C50.9647 19.4463 51.0328 19.686 51.101 19.9256L51.101 19.9256C51.1691 20.0968 51.3054 20.2338 51.4757 20.3022C51.6801 20.3707 51.9186 20.405 52.1571 20.405H53.111C53.3494 20.4392 53.5879 20.3707 53.8264 20.3022C53.9967 20.2338 54.133 20.0968 54.2011 19.9256C54.2693 19.7202 54.3033 19.4806 54.3033 19.2409V16.0226ZM58.6639 18.7624C58.8343 18.7282 59.0046 18.6939 59.1749 18.5912C59.3112 18.5228 59.4134 18.42 59.5156 18.2831C59.6178 18.1462 59.686 18.0092 59.72 17.8723C59.7541 17.7011 59.7882 17.5299 59.7882 17.3587V17.119C59.8222 16.7424 59.686 16.3658 59.4475 16.0577C59.1749 15.7838 58.8002 15.6811 58.3914 15.7153H56.5518C56.4836 15.7153 56.4155 15.7496 56.3814 15.7838C56.2792 15.8865 56.2792 16.0577 56.3814 16.1604C56.4155 16.1947 56.4836 16.2289 56.5518 16.2289H58.3914C58.6299 16.1947 58.9024 16.2974 59.0727 16.4343C59.2431 16.6397 59.3112 16.8794 59.2771 17.119V17.3587C59.3112 17.5984 59.209 17.8723 59.0727 18.0434C58.8683 18.2146 58.6299 18.2831 58.3914 18.2489H56.5177C56.3814 18.2489 56.3133 18.3516 56.3133 18.4885V20.6112V20.6454C56.3133 20.7824 56.4496 20.8851 56.5858 20.8851C56.7221 20.8851 56.8243 20.7481 56.8243 20.6112V18.7282H58.1529L59.4134 20.7824C59.4475 20.8509 59.4815 20.8851 59.5497 20.8851C59.6178 20.8851 59.686 20.8851 59.7541 20.8509C59.7541 20.8509 59.7882 20.8509 59.7882 20.8166C59.8904 20.7481 59.9244 20.6112 59.8222 20.5085L58.6639 18.7624ZM63.229 18.5564H61.253C61.2131 18.5564 61.1849 18.5447 61.1615 18.5349C61.145 18.528 61.1309 18.5222 61.1168 18.5222C61.0146 18.4195 61.0146 18.2483 61.1168 18.1456C61.1508 18.1113 61.219 18.0771 61.2871 18.0771H63.263C63.3652 18.0428 63.4674 18.1113 63.5015 18.2483V18.3167C63.5015 18.4195 63.4334 18.5564 63.2971 18.5564H63.229ZM64.1487 15.749H61.253H61.1849C61.0486 15.749 60.9805 15.886 61.0146 15.9887C61.0146 16.0572 61.0486 16.1256 61.0827 16.1941C61.1009 16.2033 61.1168 16.2125 61.1314 16.221C61.1715 16.2442 61.2031 16.2626 61.253 16.2626H64.1487H64.1828C64.3191 16.2626 64.4213 16.1256 64.4213 15.9887C64.4213 15.8517 64.285 15.749 64.1487 15.749ZM61.253 20.4053H64.1488C64.285 20.4053 64.4213 20.508 64.4213 20.6107C64.4213 20.7476 64.3191 20.8846 64.1828 20.8846H64.1488H61.253C61.1849 20.8846 61.1168 20.8504 61.0827 20.8161C61.0486 20.7819 61.0146 20.7134 61.0146 20.6449C60.9805 20.5422 61.0827 20.4053 61.1849 20.4053H61.253ZM67.9643 18.0094H66.9423C66.7038 18.0436 66.4313 17.9752 66.2609 17.804C66.1247 17.5986 66.0565 17.3589 66.0565 17.1192C66.0225 16.8796 66.0906 16.6399 66.2269 16.4345C66.4313 16.2976 66.6697 16.2291 66.9082 16.2291H67.9643C68.2028 16.1948 68.4072 16.2633 68.6116 16.366C68.7478 16.503 68.8501 16.7084 68.8501 16.8796C68.8501 16.9481 68.8841 17.0165 68.9182 17.0508C68.9523 17.085 69.0204 17.1192 69.0885 17.1192C69.1567 17.1192 69.2248 17.085 69.2589 17.0508C69.2929 17.0165 69.327 16.9481 69.327 16.8796V16.8453C69.327 16.503 69.1907 16.1948 68.9522 15.9552C68.6797 15.7498 68.339 15.6471 67.9643 15.6813H66.9082H66.6357C65.8862 15.7498 65.3071 16.4345 65.4093 17.1877C65.4774 17.9409 66.1587 18.5229 66.9082 18.4202H67.9302C68.2028 18.386 68.4753 18.4545 68.6797 18.6257C68.8501 18.8311 68.9182 19.105 68.8841 19.3789C68.9182 19.6528 68.8501 19.8924 68.6797 20.1321C68.4753 20.3033 68.2028 20.3717 67.9302 20.3375H66.806C66.5675 20.3717 66.3291 20.3033 66.0906 20.1663C65.9203 20.0294 65.8521 19.7897 65.8521 19.5843C65.8521 19.5158 65.8181 19.4473 65.784 19.4131C65.7499 19.3789 65.6818 19.3446 65.6137 19.3446C65.5455 19.3446 65.4774 19.3789 65.4433 19.4131C65.4093 19.4473 65.3752 19.5158 65.3752 19.5843V19.6185C65.3752 19.9609 65.5115 20.3033 65.784 20.5429C66.0906 20.7483 66.4653 20.8853 66.8401 20.8511H67.9643H68.2368C69.0204 20.7826 69.5995 20.0636 69.5314 19.2419C69.4633 18.5229 68.7478 17.9409 67.9643 18.0094ZM13.6269 14.2762C13.6269 13.0436 14.6149 12.0508 15.8413 12.0508C17.0677 12.0508 18.0216 13.0436 18.0557 14.2762C18.0557 15.5087 17.0677 16.5016 15.8413 16.5016C14.6149 16.5016 13.6269 15.5087 13.6269 14.2762ZM10.2543 9.75762C10.2543 10.9867 9.26285 11.983 8.03988 11.983C6.81692 11.983 5.82551 10.9867 5.82551 9.75762C5.82551 8.52857 6.81692 7.53223 8.03988 7.53223C9.26285 7.53223 10.2543 8.52857 10.2543 9.75762Z" fill="white"/>
    </svg>
    