<svg width="80" height="24" viewBox="0 0 80 24" fill="none" xmlns="http://www.w3.org/2000/svg">
    <path fill-rule="evenodd" clip-rule="evenodd" d="M22.1985 5.51121C21.9393 4.62709 21.8584 3.74297 22.1742 2.84278C22.571 1.68538 21.915 0.817336 20.6842 0.809298C20.4817 0.809298 20.2712 0.825373 20.0769 0.849486C19.3319 0.945935 18.6112 0.937898 17.9553 0.463687C17.7042 0.286863 17.3641 0.0698518 17.0321 0.302938C16.4896 0.696774 15.9551 0.503875 15.4288 0.310976C14.6595 0.0296645 13.9145 -0.0748225 13.1209 0.206489C12.797 0.319013 12.4164 0.351163 12.0682 0.351163C11.5782 0.349153 11.0882 0.36021 10.5983 0.371264C9.12903 0.404416 7.66092 0.437542 6.19737 0.118077C5.3552 -0.066785 4.46445 -0.00248533 3.598 0.0939642C1.40351 0.351163 0.399397 1.43622 0.488472 3.63045C0.607744 6.37083 0.481213 9.10403 0.354713 11.8366C0.249324 14.1131 0.143956 16.3892 0.180759 18.6685C0.188156 19.0577 0.139801 19.4468 0.091255 19.8375C0.0335197 20.3022 -0.0244848 20.769 0.0107067 21.2405C0.0673907 21.9317 0.399397 22.3979 1.06341 22.5667C1.90557 22.7757 2.75583 22.9525 3.60609 23.0972C4.14061 23.189 4.68672 23.1859 5.23093 23.1827C5.97289 23.1784 6.71132 23.1742 7.41202 23.4106C8.97488 23.9331 10.562 23.9572 12.1654 23.925C12.4204 23.925 12.681 23.9438 12.9414 23.9625C13.5161 24.0039 14.0901 24.0452 14.6028 23.8849C16.36 23.3383 18.1415 23.1856 19.9473 23.0329C19.9952 23.0285 20.044 23.0249 20.0932 23.0214L20.0934 23.0214C20.402 22.9992 20.7268 22.9759 20.9433 22.7194C21.583 21.9559 22.158 21.1521 22.1499 20.0831C22.1418 19.1186 22.1337 18.1622 22.0122 17.1977C21.992 17.0263 21.9538 16.8488 21.9154 16.6699C21.8149 16.2026 21.7123 15.726 21.9231 15.325C22.4551 14.2916 22.2667 13.3148 22.0675 12.2818L22.0674 12.2808L22.0671 12.2795L22.0668 12.278C22.054 12.2116 22.0411 12.1448 22.0284 12.0778C21.7126 10.39 21.4292 8.67797 22.1337 6.99011C22.3442 6.5159 22.3442 6.01757 22.1985 5.51121ZM20.8299 6.10599C19.8744 7.19104 19.8339 8.45292 20.1173 9.76303C20.4979 11.5393 20.4898 13.2915 20.3117 15.0999C20.1497 16.7797 20.2226 18.4998 20.2955 20.1876C20.336 21.0316 19.9635 21.4495 19.2833 21.763C18.5302 22.1086 17.7366 22.2613 16.9349 22.3899C16.4411 22.4705 15.952 22.58 15.4626 22.6894L15.4626 22.6894L15.4626 22.6894L15.4626 22.6895L15.4625 22.6895L15.4625 22.6895L15.4625 22.6895L15.4625 22.6895L15.4625 22.6895L15.4624 22.6895L15.4624 22.6895L15.4624 22.6895L15.4624 22.6895L15.4623 22.6895L15.4623 22.6895L15.4623 22.6895L15.4623 22.6895L15.4622 22.6895L15.4622 22.6895L15.4622 22.6895L15.4622 22.6896L15.4622 22.6896L15.4621 22.6896L15.4621 22.6896L15.4621 22.6896L15.4621 22.6896L15.462 22.6896L15.462 22.6896L15.462 22.6896L15.462 22.6896L15.4619 22.6896C14.6838 22.8637 13.9049 23.038 13.1047 23.0972C12.5784 23.1213 12.0844 23.0088 11.6309 22.7596C11.2908 22.5747 10.9345 22.422 10.5539 22.3899C9.86563 22.3336 9.2907 22.1246 8.77244 21.6424C8.42876 21.3158 7.92659 21.3038 7.46273 21.2927L7.4624 21.2927C7.41269 21.2915 7.36343 21.2903 7.31485 21.2887C7.12714 21.2824 6.93923 21.2755 6.75121 21.2686H6.75116H6.75111H6.75106H6.75099H6.75094H6.7509H6.75085H6.7508H6.75075H6.7507H6.75066H6.75061H6.75056H6.75051H6.75047H6.75042H6.75038C5.73827 21.2316 4.72311 21.1943 3.71946 21.2486C1.41971 21.3772 0.731404 20.3886 1.50879 18.2104C2.30236 15.968 2.07563 13.8541 1.51688 11.6759C1.51418 11.6679 1.50968 11.6599 1.50519 11.6518C1.49619 11.6358 1.48719 11.6197 1.49259 11.6036C1.65721 11.0815 1.69641 10.5397 1.73555 9.99872C1.77534 9.44861 1.81508 8.89934 1.98655 8.37255C2.00598 8.31332 2.02684 8.25597 2.04729 8.19975C2.14616 7.92791 2.2355 7.68226 2.10802 7.3759C1.97688 7.0505 2.04867 6.72276 2.11959 6.39899C2.18005 6.12298 2.23988 5.84986 2.1728 5.58355C1.96221 4.73003 2.29253 4.0359 2.62342 3.34057C2.75057 3.07337 2.87781 2.80599 2.97447 2.52931C3.08784 2.20782 3.34697 1.95062 3.66278 1.85417C4.31471 1.65013 4.97091 1.46724 5.62827 1.28402L5.62829 1.28401C5.87725 1.21462 6.12638 1.14519 6.37551 1.07453C6.53761 1.02686 6.673 1.09848 6.80479 1.16818C6.85076 1.1925 6.89629 1.21658 6.94236 1.23528C7.81691 1.59697 8.69146 1.60501 9.6308 1.42818C11.2584 1.12276 12.959 1.02631 14.5785 1.21921C14.9241 1.26139 15.2708 1.31439 15.6184 1.36755C16.2644 1.46632 16.9138 1.56562 17.5666 1.59697C18.3286 1.63135 18.8889 2.04562 19.4471 2.45829L19.4472 2.45831C19.672 2.6245 19.8964 2.79043 20.1335 2.93119C20.2824 3.01982 20.3262 3.2996 20.3679 3.56613C20.3829 3.66213 20.3977 3.75641 20.417 3.83942C20.4414 3.95319 20.4597 4.06825 20.478 4.18311L20.478 4.18315C20.5385 4.56326 20.5987 4.9411 20.8785 5.26205C21.1134 5.53533 21.0324 5.8729 20.8299 6.10599ZM17.4208 13.9345C17.2169 13.9071 17.0092 13.9133 16.7825 13.92H16.7824L16.7824 13.92C16.676 13.9232 16.5654 13.9264 16.4491 13.9264C17.1131 12.5842 16.8945 12.1502 15.4612 12.0537C16.2142 12.4636 16.0604 12.9218 15.7446 13.4281C15.6948 13.5097 15.6474 13.5927 15.5999 13.6757L15.5999 13.6757C15.4465 13.9439 15.2932 14.2118 15.0644 14.4328C14.8133 14.6739 14.9024 14.9874 15.0563 15.2044C15.2255 15.4263 15.3586 15.2902 15.4826 15.1633C15.5247 15.1202 15.5658 15.0782 15.6069 15.0517C15.9308 14.8427 16.2466 14.6418 16.6272 14.5453C17.4451 14.3283 17.5909 14.4167 17.599 15.2446C17.6071 15.9519 17.5666 16.6592 17.518 17.3665L17.5131 17.4407C17.4674 18.143 17.4196 18.8787 16.2385 18.6846C16.3498 18.8134 16.4678 18.9119 16.5763 19.0024C16.7048 19.1096 16.8198 19.2056 16.8945 19.3276C17.2184 19.842 17.4694 19.6572 17.769 19.3276C18.1739 18.8856 18.2711 18.347 18.2792 17.7764C18.2842 17.5174 18.2822 17.2577 18.2802 16.9981V16.998V16.998V16.9979V16.9979V16.9978V16.9978V16.9977V16.9977V16.9976V16.9976V16.9975V16.9975V16.9974V16.9974V16.9973V16.9973V16.9972V16.9972V16.9971V16.9971V16.997V16.997V16.9969V16.9969V16.9968V16.9968V16.9967V16.9967V16.9966C18.2758 16.4189 18.2714 15.8421 18.3439 15.2767C18.4492 14.4489 18.2468 14.039 17.4208 13.9345ZM13.8225 15.8C13.7066 16.2068 13.5893 16.6191 13.6554 17.085C13.8015 16.9979 13.8587 16.8552 13.9153 16.7138C13.9841 16.5417 14.0523 16.3715 14.2789 16.3054C14.1412 17.1895 13.8821 18.0013 13.5987 18.805C13.4934 19.1104 13.3396 19.1345 13.1128 18.8934C12.797 18.5478 12.7241 18.1459 12.7808 17.6958C12.8323 17.327 12.8757 16.9581 12.9224 16.561C12.9418 16.3956 12.9618 16.2254 12.9833 16.0482C12.8615 16.09 12.7472 16.1547 12.6354 16.2179C12.3607 16.3734 12.1014 16.5201 11.7848 16.2973C11.469 16.0723 11.1613 15.8472 11.218 15.3168C11.8739 15.6543 12.3597 15.3811 12.7727 14.8988C13.048 14.5773 13.3638 14.6577 13.6716 14.8104C13.9874 14.9631 13.9712 15.2283 13.8983 15.5257C13.8745 15.6171 13.8486 15.7083 13.8226 15.7997L13.8226 15.7997L13.8225 15.7997L13.8225 15.7998L13.8225 15.7998L13.8225 15.7998L13.8225 15.7999L13.8225 15.7999L13.8225 15.7999L13.8225 15.8ZM12.7534 13.7754L12.7533 13.7755C12.5851 13.895 12.4182 14.0136 12.2545 14.1355C12.2666 14.1516 12.2788 14.1697 12.2909 14.1878C12.3031 14.2058 12.3152 14.2239 12.3273 14.24C12.5572 14.1693 12.7871 14.096 13.017 14.0227L13.0173 14.0227L13.0173 14.0227L13.0174 14.0226L13.0174 14.0226L13.0174 14.0226L13.0175 14.0226L13.0175 14.0226L13.0175 14.0226L13.0176 14.0226L13.0176 14.0226L13.0177 14.0225L13.0177 14.0225L13.0177 14.0225L13.0178 14.0225L13.0178 14.0225L13.0178 14.0225L13.0179 14.0225L13.0179 14.0225L13.018 14.0225L13.018 14.0224L13.018 14.0224L13.0181 14.0224L13.0181 14.0224L13.0181 14.0224L13.0182 14.0224L13.0182 14.0224L13.0183 14.0224L13.0183 14.0224C13.3629 13.9125 13.7075 13.8027 14.0522 13.7015C14.1316 13.6786 14.2288 13.6911 14.3262 13.7037C14.5367 13.7307 14.7477 13.7579 14.781 13.4282C14.8133 13.0585 14.5056 12.8495 14.2141 12.6888C14.0494 12.6002 13.8615 12.5463 13.6749 12.4928L13.6747 12.4927L13.6746 12.4927L13.6745 12.4927C13.6411 12.4831 13.6076 12.4735 13.5744 12.4637C13.1695 12.3351 13.0804 12.5521 13.2667 12.8334C13.5177 13.2112 13.3072 13.38 13.048 13.5649C12.9499 13.6357 12.8517 13.7055 12.754 13.775L12.7539 13.775L12.7538 13.7751L12.7537 13.7752L12.7536 13.7753L12.7535 13.7753L12.7534 13.7754ZM4.64971 4.62189C4.50112 4.62284 4.34946 4.6238 4.21342 4.65174C4.62816 4.29752 4.45413 4.00887 4.27458 3.71109C4.15265 3.50886 4.02818 3.30241 4.08386 3.06836C4.23244 3.14729 4.40103 3.20475 4.56728 3.26141C5.0443 3.42399 5.50196 3.57996 5.41188 4.21772C5.36011 4.61738 5.01414 4.61958 4.64971 4.62189ZM19.1213 6.95027C17.9634 6.24298 16.9107 5.42316 16.0847 4.3381C15.9551 4.16128 15.7446 4.0166 15.5421 3.93623C15.1777 3.79155 15.0806 3.67099 15.3316 3.30127C15.5502 2.98781 15.2992 2.71453 15.0077 2.5779C14.8457 2.50556 14.538 2.39303 14.4975 2.65827C14.428 3.08978 14.195 3.42862 13.9591 3.77181C13.7556 4.06786 13.5498 4.36714 13.4448 4.73194C13.1128 5.85718 12.546 6.92616 11.5904 7.72991C11.4042 7.89066 11.2989 8.14786 11.4447 8.34076C11.6135 8.58508 11.8067 8.42926 11.9607 8.30507C11.984 8.28627 12.0064 8.2682 12.0277 8.25234C12.0876 8.20507 12.1499 8.15809 12.2127 8.11068C12.481 7.90821 12.7595 7.69801 12.9104 7.42449C13.3558 6.63681 13.8578 6.55644 14.5137 7.14317C14.5344 7.16371 14.5452 7.19407 14.5587 7.23218C14.5664 7.25375 14.5749 7.27778 14.5866 7.30392C14.4254 7.4676 14.1995 7.53087 13.9757 7.59355C13.7049 7.66937 13.4373 7.74433 13.291 7.99514C13.042 8.4238 13.3063 8.60248 13.5738 8.78334C13.7326 8.89072 13.8926 8.99887 13.9469 9.16058C13.9328 9.17452 13.9188 9.18994 13.9046 9.2055C13.8616 9.25273 13.8175 9.3012 13.7687 9.31329C13.4043 9.40974 13.129 9.57853 13.2829 9.99647C13.4286 10.3823 13.8011 10.4305 14.1169 10.2778C14.7486 9.9804 15.3721 9.95629 16.0442 10.0929L16.0481 10.0937C16.2426 10.134 16.5386 10.1952 16.6029 9.86787C16.6515 9.61871 16.4977 9.4017 16.2952 9.29721C16.1077 9.20131 15.9042 9.14501 15.6931 9.08661C15.6034 9.0618 15.5124 9.03662 15.4207 9.00786C15.4755 8.86792 15.5573 8.7308 15.6392 8.59355L15.6392 8.59353C15.896 8.1632 16.1536 7.73154 15.5826 7.20747C15.445 7.07887 15.534 6.71719 15.7203 6.58055C16.0545 6.33351 16.0265 6.01829 15.9983 5.70021L15.9983 5.70009C15.9944 5.656 15.9905 5.61186 15.9875 5.56783C16.2146 5.61407 16.2952 5.79332 16.3737 5.96808C16.4043 6.03634 16.4347 6.10391 16.4734 6.1626C17.0564 7.07084 17.7447 7.75402 18.9513 7.52897C19.0019 7.51939 19.0583 7.5198 19.1147 7.52021C19.2476 7.52117 19.3803 7.52213 19.4371 7.39233C19.5281 7.17695 19.3347 7.06967 19.1865 6.98744C19.1632 6.97454 19.1411 6.96226 19.1213 6.95027ZM13.6068 8.46132C13.9469 8.30057 14.1817 8.34879 14.5299 8.47739C14.1817 8.84712 13.9388 8.72655 13.6068 8.46132ZM15.9632 5.55979C15.9632 5.55577 15.9612 5.55176 15.9592 5.54774C15.9571 5.54372 15.9551 5.5397 15.9551 5.53568C15.9592 5.53568 15.9632 5.53769 15.9673 5.5397C15.9713 5.54171 15.9754 5.54372 15.9794 5.54372L15.9632 5.55979ZM15.0482 4.531C15.4531 4.77212 15.8579 5.02128 15.9551 5.53568C15.2064 5.14706 14.6966 5.56811 14.139 6.02862C14.0392 6.111 13.938 6.19464 13.8335 6.27513C13.9042 5.81614 14.081 5.46599 14.2483 5.1345L14.2483 5.13448C14.33 4.97256 14.4095 4.81509 14.4732 4.65156C14.5947 4.35417 14.8538 4.41044 15.0482 4.531ZM8.2056 5.8079C7.78452 6.88492 7.79262 6.901 8.83722 7.39932C9.23401 7.59222 9.6227 7.78512 9.78466 8.23522L9.80568 8.29015C9.90034 8.53591 10.01 8.82055 9.77656 9.01485C9.53915 9.21122 9.26307 9.03146 9.03147 8.88065L9.01537 8.87018C8.87519 8.77742 8.74601 8.66827 8.61876 8.56074L8.61872 8.5607L8.61871 8.5607L8.6187 8.56069L8.61869 8.56068L8.61868 8.56067L8.61866 8.56066L8.61865 8.56065L8.61864 8.56064L8.61841 8.56045C8.59142 8.53764 8.56451 8.51491 8.53761 8.49242L8.51276 8.4718C7.93208 7.98992 7.42415 7.56842 6.56986 8.15484C6.01922 8.5326 5.23374 8.55672 4.71548 7.72082C4.51542 8.13718 4.50052 8.5076 4.48632 8.86055V8.86056C4.4827 8.95048 4.47913 9.03926 4.47255 9.12738L4.46917 9.16641C4.45519 9.33271 4.4404 9.50866 4.23772 9.55336C4.03527 9.60159 3.88951 9.47299 3.79234 9.32028C3.07164 8.18699 3.17691 6.95726 3.37936 5.71949C3.42794 5.43818 3.62229 5.48641 3.76805 5.62304C4.06766 5.90435 4.18103 6.23389 4.07576 6.65184C4.06188 6.705 4.04738 6.75828 4.03279 6.81193L4.03277 6.81199L4.03276 6.81205C3.92821 7.1964 3.81846 7.59984 3.88951 8.11466C4.14101 7.79449 4.2633 7.45967 4.38102 7.13741C4.43766 6.98235 4.49323 6.8302 4.56163 6.68399L4.59717 6.61005C4.77798 6.23282 4.95531 5.86284 5.40379 5.71949C5.59004 5.22117 6.01112 4.93182 6.4403 4.68266C6.7723 4.48976 7.10431 4.29686 7.33914 3.99144C7.35278 3.97374 7.36635 3.95587 7.3799 3.93802C7.57564 3.68026 7.76868 3.42605 8.12462 3.73424C8.16848 3.7714 8.21473 3.80799 8.26133 3.84486L8.26149 3.84499L8.26154 3.84502C8.56771 4.08723 8.88881 4.34126 8.64288 4.84341C8.48902 5.15687 8.33516 5.47837 8.2056 5.8079ZM4.80456 7.51185C4.93412 7.72886 5.20135 7.71278 5.42808 7.68063C5.83297 7.62437 6.21356 7.49577 6.56986 7.16623C6.30902 6.88634 5.98681 6.7892 5.67268 6.6945C5.62598 6.68043 5.57946 6.6664 5.53335 6.65184C5.31471 6.5795 5.06368 6.53128 4.94222 6.81259C4.92337 6.85625 4.90147 6.90021 4.87942 6.94447C4.78781 7.12837 4.6936 7.3175 4.80456 7.51185ZM6.70752 6.42679C6.96665 6.54735 7.16909 6.45894 7.20958 6.16959C7.22373 6.0657 7.2606 5.96573 7.29742 5.86591C7.36599 5.68001 7.43437 5.49465 7.35534 5.28547C7.06972 5.42349 6.75794 5.44898 6.44671 5.47442H6.44671C6.08732 5.5038 5.72867 5.53313 5.41189 5.73557C5.41998 5.72753 5.41998 5.72753 5.41998 5.71949L5.41189 5.72753C5.25803 6.10529 5.24993 6.36249 5.80867 6.30623C6.10829 6.27408 6.416 6.29819 6.70752 6.42679ZM4.19345 14.83L4.19359 14.8299C4.41683 14.6537 4.63876 14.4785 4.87743 14.3283C4.93288 14.2931 4.99804 14.2687 5.06244 14.2446C5.23318 14.1808 5.39858 14.1189 5.3633 13.8621C5.31471 13.5406 5.14466 13.2915 4.82885 13.179C4.45635 13.0504 4.08386 12.9298 3.5737 13.0986C4.22152 13.6773 4.2782 14.2881 3.75185 14.9472C3.80854 14.9793 3.87332 15.0115 3.93 15.0356C4.01872 14.9679 4.10616 14.8989 4.1934 14.83L4.19345 14.83ZM7.45915 15.7702C8.07526 15.7786 8.68627 15.7868 9.19353 16.2328C9.39597 16.4096 9.54982 16.6427 9.44455 16.8999C9.35238 17.1499 9.16695 17.1038 8.97672 17.0565C8.91627 17.0414 8.85532 17.0263 8.79674 17.0204C8.52673 16.9986 8.24923 17.0027 7.9234 17.0076C7.7704 17.0099 7.60675 17.0124 7.42822 17.0124C8.44044 17.5107 8.34326 18.0332 7.94648 18.9012C7.63066 19.5924 7.44442 19.7853 6.76421 19.6005C6.48889 19.5281 6.19737 19.6326 5.96253 19.7853C5.3633 20.1792 4.99081 20.0586 4.81266 19.3352C4.7156 18.9386 4.64672 18.5379 4.57764 18.1361L4.57764 18.136L4.57763 18.136L4.57762 18.136L4.57762 18.136L4.57761 18.1359L4.57761 18.1359L4.5776 18.1359L4.5776 18.1358L4.57759 18.1358L4.57758 18.1358L4.57758 18.1358L4.57757 18.1357L4.57757 18.1357L4.57756 18.1357L4.57756 18.1356L4.57755 18.1356L4.57755 18.1356L4.57748 18.1352L4.57742 18.1348L4.57741 18.1348L4.57741 18.1348L4.5774 18.1348C4.54858 17.9671 4.51972 17.7992 4.48875 17.6313C4.50169 17.5976 4.51333 17.5562 4.52556 17.5127L4.52556 17.5127C4.57455 17.3385 4.63283 17.1313 4.82076 17.2535C5.24617 17.5277 5.61504 17.3978 5.9788 17.2698C6.1482 17.2101 6.3165 17.1508 6.48889 17.133L6.52247 17.1399C6.62535 17.1609 6.7277 17.1818 6.76421 17.2616C6.89377 17.2696 7.02334 17.2133 7.02334 17.0767C7.02957 16.9715 6.94464 16.9759 6.86827 16.9798H6.86824H6.86822H6.86819H6.86816H6.86813H6.86809H6.86806H6.86803H6.86799C6.84524 16.981 6.82327 16.9821 6.8047 16.9803C6.78163 16.9772 6.75827 16.9756 6.73517 16.974C6.63665 16.9673 6.5429 16.9608 6.49698 16.8436L6.57234 16.8423C6.96143 16.8356 7.41022 16.8279 7.63066 16.5864C7.75693 16.4472 7.63202 16.3562 7.48835 16.2515C7.38324 16.1749 7.26809 16.091 7.23388 15.9756C7.23388 15.9452 7.23568 15.9149 7.23759 15.8828L7.23759 15.8828V15.8828C7.23972 15.847 7.24197 15.809 7.24197 15.7666C7.31433 15.7683 7.38678 15.7693 7.45915 15.7702ZM5.49692 18.6354C5.54964 18.8771 5.60492 19.1306 6.02732 19.0137C6.58606 18.861 7.08812 18.6842 7.11241 17.9126C6.95688 17.9505 6.81422 17.9994 6.6773 18.0463L6.67726 18.0463L6.67722 18.0463L6.67719 18.0463C6.40783 18.1386 6.16071 18.2233 5.88156 18.202C5.85859 18.201 5.83406 18.1993 5.80878 18.1975C5.61125 18.1835 5.36807 18.1663 5.46857 18.5154C5.47913 18.5538 5.48799 18.5945 5.49692 18.6354ZM5.24993 15.1072L5.24993 15.1072C5.25803 15.1715 5.26613 15.2358 5.28232 15.3001C5.3714 15.6296 5.63052 15.7341 5.97873 15.702C5.76819 16.0154 5.57384 16.2646 5.33091 16.4896C5.3148 16.5049 5.29809 16.5203 5.28118 16.5359C5.11113 16.6926 4.92077 16.868 5.11227 17.1165C5.28232 17.3416 5.56574 17.3014 5.80867 17.221C6.00302 17.1648 6.17307 17.0522 6.31883 16.9076C6.75611 16.5539 7.06382 16.1119 7.23387 15.5734C7.80881 15.2599 8.37565 14.9384 8.84532 14.4642C9.13684 14.1748 9.20162 13.8694 8.98298 13.5077C8.76434 13.146 8.45663 12.9451 8.02745 13.0416C7.85376 13.0793 7.68372 13.1459 7.48317 13.2244L7.4831 13.2244C7.38446 13.2631 7.27845 13.3046 7.16099 13.347L7.35534 12.929C7.67925 12.27 7.23387 11.4823 6.48888 11.3778C6.21356 11.3376 6.10829 11.4823 6.0759 11.6993C6.05161 11.844 6.084 12.0208 6.29454 12.0208C6.83708 12.0208 6.91806 12.069 6.73181 12.5111C6.69543 12.5979 6.65965 12.6853 6.62382 12.7727C6.36461 13.4053 6.10326 14.0432 5.59813 14.5446C5.43618 14.6169 5.3471 14.7133 5.29852 14.8259C5.27422 14.7696 5.20944 14.7133 5.10417 14.6571C5.04919 14.7417 4.995 14.8274 4.94071 14.9133L4.94048 14.9137L4.94044 14.9137L4.9404 14.9138L4.94036 14.9138L4.94033 14.9139L4.94028 14.914C4.60292 15.4475 4.26221 15.9864 3.71136 16.3048C3.26599 16.562 3.31458 16.8674 3.46033 17.1728C3.63848 17.5265 3.93 17.7837 4.35918 17.422C4.49444 16.8908 4.7023 16.3935 4.91144 15.8932L4.91146 15.8932C4.99029 15.7046 5.06929 15.5156 5.14466 15.3242C5.15014 15.2807 5.1779 15.2334 5.20782 15.1825L5.20783 15.1825C5.2221 15.1582 5.23686 15.1331 5.24993 15.1072ZM8.29467 13.4997C8.16511 14.0623 7.88979 14.4803 7.5011 14.858C7.19338 14.0302 7.25007 13.9257 8.29467 13.4997ZM16.826 16.8757V16.8758C16.8052 17.0818 16.7845 17.2878 16.7406 17.4874C16.7229 17.5635 16.7122 17.6514 16.7013 17.741C16.6522 18.1433 16.5989 18.5803 15.8903 18.1465C15.8803 18.1365 15.8641 18.142 15.8474 18.1476C15.8371 18.151 15.8267 18.1545 15.8175 18.1545C15.2172 18.1855 14.9059 18.2015 14.7417 18.0539C14.5648 17.8948 14.5587 17.5457 14.5461 16.8203C14.6338 16.7268 14.5834 16.597 14.5307 16.4616C14.4521 16.2596 14.3687 16.0452 14.7324 15.9201C14.9142 15.8584 15.0869 15.748 15.2595 15.6376C15.6942 15.3597 16.1286 15.082 16.7082 15.5825C16.7216 15.5945 16.7348 15.6061 16.7477 15.6176C16.8997 15.7517 17.0177 15.8557 16.943 16.1371C16.8764 16.3752 16.8512 16.6254 16.826 16.8757ZM15.1534 17.4954C15.1049 17.6321 15.2749 17.6642 15.4207 17.6401L15.4496 17.6356C15.7964 17.5813 16.1381 17.5278 16.0199 16.9569C15.9128 17.0224 15.7945 17.061 15.6795 17.0985C15.4556 17.1716 15.2444 17.2405 15.1534 17.4954ZM15.5015 16.5021C15.7167 16.5133 15.927 16.5242 16.109 16.3702C16.1414 16.3461 16.1009 16.1291 16.0523 16.113C15.6798 15.9924 15.4207 16.2175 15.1696 16.5068C15.2793 16.4905 15.3909 16.4963 15.5012 16.5021H15.5012H15.5012H15.5012H15.5013H15.5013H15.5013H15.5013H15.5013H15.5013H15.5014H15.5014H15.5014H15.5014H15.5014H15.5015H15.5015H15.5015H15.5015H15.5015H15.5015ZM49.172 3.52641C49.8522 3.46211 50.5405 3.67912 50.9292 4.35427C51.0183 4.50698 51.083 4.65969 51.1397 4.82848C51.164 4.90885 51.2045 4.97315 51.3017 4.941C51.3797 4.91987 51.3707 4.86171 51.3619 4.80438L51.3598 4.79045L51.3584 4.78026C51.3381 4.54717 51.3179 4.31207 51.2976 4.07698C51.2774 3.84188 51.2571 3.60679 51.2369 3.3737C51.2354 3.36053 51.235 3.3463 51.2346 3.33183V3.3318V3.33176V3.33173V3.33169V3.33165V3.33161C51.2328 3.26663 51.2309 3.19688 51.1316 3.19688C51.0424 3.19006 51.0288 3.25839 51.0168 3.31853C51.0147 3.3293 51.0126 3.33982 51.0102 3.34959C50.9697 3.51837 50.9049 3.55052 50.7267 3.5023C50.6455 3.47649 50.5655 3.44938 50.4863 3.42253L50.4862 3.42251L50.4862 3.42249C50.3682 3.38248 50.2519 3.34306 50.1356 3.3094C49.5121 3.12454 48.8805 3.14061 48.2812 3.36566C47.3662 3.71127 46.8317 4.41053 46.5321 5.31073C46.4666 5.51878 46.4435 5.72683 46.4199 5.93913L46.4198 5.94006C46.4143 5.98991 46.4087 6.03999 46.4026 6.09036V6.19485C46.4066 6.21896 46.4107 6.24508 46.4147 6.2712C46.4188 6.29732 46.4228 6.32345 46.4268 6.34756C46.5321 7.44065 47.0666 8.2444 48.095 8.65431C49.1639 9.0803 50.2328 8.99189 51.2693 8.48553C51.3827 8.42926 51.4069 8.34889 51.4069 8.23636C51.4069 8.09574 51.4064 7.95512 51.4059 7.8145C51.4044 7.3925 51.4029 6.9705 51.4151 6.5485C51.4231 6.13055 51.4798 6.06625 51.9009 5.99391C51.9657 5.97784 52.0143 5.96176 52.0062 5.88943C52.0062 5.81709 51.9576 5.79297 51.8928 5.79297H51.7551H50.1032C50.0842 5.79297 50.0621 5.79003 50.0393 5.78698C49.9554 5.77576 49.8603 5.76306 49.8603 5.88943C49.8603 6.01398 49.9527 6.00825 50.0357 6.00309C50.0598 6.00159 50.0832 6.00014 50.1032 6.00195C50.3866 6.02606 50.5162 6.13055 50.5405 6.41186C50.5783 6.81373 50.5729 7.21561 50.5675 7.61748V7.6179V7.61833V7.61875L50.5675 7.61918C50.5648 7.81955 50.5621 8.01992 50.5648 8.22029C50.5648 8.29263 50.5162 8.33281 50.4595 8.36496C49.674 8.7588 48.6132 8.6945 48.014 7.88272C47.269 6.88607 47.1961 5.78494 47.6739 4.65166C47.933 3.99258 48.4432 3.59875 49.172 3.52641ZM41.9488 8.7421C41.4386 8.79836 40.9366 8.77425 40.4426 8.6135C39.7786 8.39649 39.2927 7.97051 38.9526 7.3677C38.7502 7.00601 38.6449 6.61217 38.6206 6.20226C38.5882 5.74413 38.6368 5.30207 38.815 4.87608C38.9769 4.49028 39.2199 4.16075 39.5276 3.88748C39.8596 3.59813 40.2402 3.39719 40.6775 3.30074C40.8637 3.26055 41.0419 3.23644 41.2281 3.23644C41.2886 3.23644 41.3496 3.23544 41.4108 3.23444C41.5955 3.23143 41.7825 3.22837 41.965 3.25252C42.5075 3.31682 42.9853 3.50168 43.3983 3.86336C43.8599 4.27327 44.1595 4.77963 44.2728 5.38244C44.2971 5.503 44.3133 5.6316 44.3214 5.75217C44.3214 5.7602 44.3235 5.76824 44.3255 5.77628C44.3275 5.78432 44.3295 5.79235 44.3295 5.80039V6.12189C44.3214 6.23441 44.3133 6.34694 44.2971 6.45143C44.2 7.01405 43.9651 7.50433 43.5764 7.93032C43.1392 8.40453 42.5885 8.66173 41.9488 8.7421ZM40.2159 4.65907C40.1025 5.06094 40.0701 5.46282 40.062 5.87273C40.0539 6.13796 40.0701 6.41124 40.0944 6.68451C40.1268 6.95779 40.1754 7.23106 40.2726 7.48826C40.3535 7.70527 40.4588 7.92228 40.6208 8.0991C40.8394 8.34827 41.1309 8.45275 41.4629 8.46079C41.9002 8.46883 42.2403 8.292 42.4752 7.92228C42.6128 7.70527 42.7019 7.46415 42.7667 7.21498C42.8638 6.81311 42.8881 6.4032 42.8881 5.98525C42.8962 5.66375 42.88 5.33422 42.8315 5.00468C42.791 4.71533 42.71 4.43402 42.5723 4.16879C42.4832 4.00804 42.378 3.85532 42.2322 3.7428C41.9812 3.5499 41.6978 3.47756 41.3901 3.50168C41.1309 3.51775 40.9123 3.60616 40.7179 3.78299C40.4588 4.02411 40.3131 4.32954 40.2159 4.65907ZM27.5592 8.3964C27.3 8.50892 27.0247 8.50892 26.7494 8.43659C26.3607 8.34014 26.053 8.10705 25.8101 7.80163C25.5995 7.52835 25.4699 7.21489 25.389 6.88535C25.3686 6.80862 25.3585 6.77044 25.3339 6.75451C25.3096 6.73873 25.2712 6.74476 25.1946 6.75676V8.77416H25.2675C25.3242 8.7822 25.3647 8.76612 25.389 8.70986C25.4052 8.66967 25.4295 8.63752 25.4618 8.60537C25.5671 8.49285 25.6967 8.42855 25.8505 8.46873C25.9396 8.48481 26.0206 8.51695 26.1015 8.5491L26.1016 8.54911C26.466 8.70182 26.8466 8.79827 27.2514 8.77416C27.5349 8.75808 27.8102 8.70182 28.0612 8.55715C28.6523 8.22761 28.9925 7.74536 28.9682 7.0461C28.952 6.68442 28.8143 6.37096 28.5633 6.10572C28.3203 5.84852 28.0207 5.66366 27.7049 5.50291C27.5713 5.43057 27.4357 5.36226 27.3 5.29394C27.1644 5.22562 27.0288 5.1573 26.8951 5.08496C26.7008 4.98851 26.5146 4.88403 26.3526 4.73935C26.2392 4.63487 26.134 4.52234 26.0854 4.36963C26.0044 4.08832 26.1259 3.79897 26.385 3.63822C26.6117 3.49355 26.8709 3.47747 27.13 3.51766C27.4296 3.55785 27.6806 3.71056 27.8993 3.91149C28.1827 4.16869 28.3527 4.49823 28.4337 4.86795C28.4456 4.9271 28.4517 4.95723 28.4701 4.97163C28.4892 4.98658 28.5216 4.98457 28.5876 4.98048C28.62 4.98048 28.6362 4.9644 28.6362 4.93225C28.6362 4.9001 28.6341 4.86795 28.6321 4.8358L28.6321 4.83571C28.6301 4.80359 28.6281 4.77147 28.6281 4.73935L28.6278 4.73159L28.6278 4.73139C28.6198 4.43666 28.6118 4.142 28.6038 3.85523C28.5997 3.75475 28.5977 3.65427 28.5957 3.55379L28.5957 3.55351C28.5936 3.45315 28.5916 3.35278 28.5876 3.25242C28.5876 3.22831 28.5876 3.19616 28.5471 3.19616C28.4742 3.18812 28.458 3.19616 28.4418 3.23635C28.437 3.25319 28.4328 3.26931 28.4288 3.28515C28.4193 3.3222 28.4102 3.35768 28.3932 3.3971C28.3446 3.53373 28.2556 3.58196 28.1098 3.54981C28.0045 3.5257 27.9155 3.48551 27.8183 3.43728C27.4539 3.25242 27.0733 3.16401 26.6684 3.2042C26.2878 3.23635 25.9558 3.36495 25.6805 3.63018C25.2756 4.00794 25.1136 4.47412 25.2108 5.01263C25.2756 5.39039 25.4861 5.67974 25.7696 5.92086C25.9801 6.09768 26.2149 6.23432 26.4579 6.37096C26.5874 6.4428 26.7205 6.50931 26.853 6.5755L26.853 6.57552C27.0021 6.65002 27.1504 6.72412 27.2919 6.80498C27.4944 6.9175 27.6887 7.03003 27.8345 7.20685C27.9883 7.38368 28.0612 7.59265 28.0207 7.82574C27.9964 8.09901 27.8183 8.28387 27.5592 8.3964ZM36.2409 5.50399L36.2448 5.50883L36.2471 5.51173C36.5261 5.86039 36.8051 6.20903 37.0821 6.55569C37.0837 6.55725 37.0849 6.55882 37.086 6.56032L37.0887 6.56445C37.0914 6.56869 37.0933 6.57176 37.0983 6.57176C37.1064 6.55569 37.1064 6.54765 37.1064 6.53158V4.15249C37.1064 4.048 37.0902 3.93548 37.0578 3.83099C36.993 3.63809 36.8391 3.54164 36.6529 3.49342C36.5638 3.4693 36.4828 3.46127 36.3938 3.46127C36.3533 3.46127 36.3371 3.45323 36.3371 3.405C36.3381 3.39062 36.3387 3.37819 36.3392 3.36744V3.36736C36.341 3.33235 36.3418 3.31523 36.3508 3.30702C36.3594 3.29915 36.3755 3.29947 36.407 3.30009C36.4171 3.30029 36.4288 3.30052 36.4424 3.30052H38.0538C38.1267 3.30052 38.1267 3.30052 38.1267 3.37285V3.405C38.1348 3.45323 38.1105 3.46127 38.07 3.4693C37.9728 3.47734 37.8757 3.50145 37.7785 3.52557C37.576 3.58183 37.487 3.7265 37.4546 3.91136C37.4303 4.03193 37.4222 4.15249 37.4222 4.27305V8.6615V8.70973C37.4222 8.74992 37.406 8.76599 37.3655 8.76599C37.3007 8.76599 37.2602 8.74992 37.2197 8.70169C36.9369 8.35673 36.656 8.01178 36.3751 7.66682L36.3745 7.66603L36.3743 7.66583L36.3737 7.66503L36.3735 7.66483C36.0921 7.31923 35.8107 6.97363 35.5273 6.62803L35.2312 6.26439L35.2305 6.26356L35.2286 6.26119L35.2277 6.26013C34.7142 5.62945 34.2045 5.0035 33.6891 4.37754C33.6867 4.3751 33.6835 4.37267 33.68 4.37001C33.672 4.36389 33.6624 4.35659 33.6567 4.34539C33.6446 4.35744 33.6461 4.3695 33.6476 4.38156C33.6481 4.38557 33.6486 4.38959 33.6486 4.39361V7.72112C33.6486 7.80953 33.6567 7.89795 33.6729 7.98636C33.7215 8.24356 33.8835 8.38019 34.1183 8.45253C34.2155 8.48468 34.3208 8.48468 34.4179 8.48468C34.4746 8.48468 34.4827 8.49272 34.4827 8.54898C34.4827 8.6049 34.4827 8.62906 34.4708 8.63922C34.4617 8.64694 34.4457 8.64656 34.4176 8.6459L34.4064 8.64565L34.3855 8.64543H32.6364C32.6012 8.64543 32.583 8.64543 32.5736 8.63633C32.5635 8.62663 32.5635 8.60655 32.5635 8.56505V8.54094C32.5555 8.50076 32.5797 8.48468 32.6202 8.48468C32.7012 8.48468 32.7822 8.47664 32.8632 8.46057C33.1466 8.40431 33.2923 8.25963 33.3328 7.97028L33.3347 7.94998L33.3347 7.94986C33.3421 7.86936 33.349 7.79464 33.349 7.71308V4.03193C33.349 3.97566 33.3328 3.93548 33.3004 3.89529C33.283 3.87446 33.2658 3.85363 33.2489 3.83296C33.1872 3.75793 33.1273 3.68503 33.0575 3.62202C32.9522 3.52557 32.8308 3.48538 32.7012 3.4693C32.6891 3.4693 32.6769 3.46729 32.6648 3.46529C32.6526 3.46328 32.6405 3.46127 32.6283 3.46127C32.5635 3.45323 32.5635 3.45323 32.5635 3.38893V3.35678C32.5555 3.31659 32.5716 3.30052 32.6121 3.30052H34.4341C34.4746 3.30052 34.4908 3.31659 34.507 3.3407C34.6568 3.52557 34.8046 3.71043 34.9524 3.89529C35.1002 4.08015 35.2479 4.26501 35.3978 4.44987C35.6774 4.79991 35.9592 5.15195 36.2409 5.50399ZM31.5432 3.77513C31.5837 3.59831 31.7133 3.51793 31.8833 3.47775C31.9967 3.45363 32.1101 3.45363 32.2153 3.45363C32.2193 3.45363 32.2237 3.45411 32.2282 3.45459C32.2424 3.45612 32.2578 3.45777 32.2639 3.4456C32.2801 3.40541 32.2801 3.35718 32.272 3.317C32.2653 3.29011 32.2415 3.29133 32.2197 3.29245C32.2154 3.29267 32.2112 3.29289 32.2072 3.29289H29.5269H29.4945C29.4702 3.29289 29.4621 3.30092 29.454 3.32504C29.4378 3.43756 29.4459 3.4456 29.5593 3.4456H29.6889C29.7698 3.4456 29.8589 3.46167 29.9318 3.49382C30.0533 3.54205 30.1504 3.61438 30.1828 3.75906C30.199 3.82336 30.2071 3.89569 30.2071 3.95999V5.95328V7.75368C30.2071 7.85013 30.2071 7.95461 30.199 8.05106C30.1828 8.27611 30.0694 8.39667 29.8508 8.4449C29.7598 8.46425 29.6689 8.46289 29.5821 8.4616C29.5607 8.46129 29.5396 8.46097 29.5188 8.46097C29.5158 8.46097 29.5122 8.46069 29.5084 8.4604C29.4917 8.45909 29.4702 8.45742 29.4702 8.47705C29.454 8.51723 29.454 8.56546 29.4702 8.60565C29.4764 8.63007 29.5012 8.62666 29.5234 8.62362C29.5305 8.62265 29.5373 8.62172 29.5431 8.62172H32.2072H32.2477C32.272 8.62172 32.2801 8.61368 32.2882 8.58957V8.5092C32.2882 8.47705 32.272 8.46097 32.2396 8.46097H32.0534C31.9724 8.46097 31.8833 8.4449 31.8105 8.41275C31.6647 8.35649 31.5594 8.26004 31.5513 8.09929L31.5498 8.0782C31.5422 7.97362 31.5351 7.87522 31.5351 7.76975V4.13682V3.95999C31.527 3.91177 31.527 3.84747 31.5432 3.77513ZM63.513 8.57296C63.7803 8.55689 63.926 8.42829 63.9584 8.16305C63.9665 8.08268 63.9746 8.0023 63.9827 7.91389C63.9827 7.49117 63.9836 7.06935 63.9845 6.64812L63.9845 6.64457V6.64413V6.64369V6.64325V6.64281V6.64238V6.64194V6.64151V6.64107V6.64064V6.64021V6.63977V6.63934V6.63891V6.63848C63.9863 5.79748 63.9881 4.95884 63.9827 4.12021C63.9827 3.63796 63.8693 3.53347 63.3754 3.50936C63.3644 3.50801 63.3528 3.50734 63.341 3.50666C63.2831 3.50332 63.2215 3.49977 63.2215 3.41291C63.2139 3.31528 63.2912 3.31589 63.3542 3.31639L63.3673 3.31646C63.596 3.31646 63.8248 3.31596 64.0536 3.31546C64.7398 3.31395 65.4261 3.31244 66.1124 3.3245C66.5173 3.33254 66.906 3.42095 67.2542 3.63796C67.6915 3.91123 67.9344 4.30507 67.9101 4.82751C67.8858 5.33387 67.6024 5.67948 67.157 5.90452C67.1348 5.91335 67.115 5.92461 67.0909 5.93829C67.0712 5.94951 67.0485 5.96237 67.0193 5.97686C67.2866 6.06527 67.5214 6.14565 67.7076 6.3064C68.3717 6.89313 68.2988 7.8737 67.5538 8.40417C67.2299 8.63726 66.8574 8.72567 66.4768 8.74979C65.8134 8.79608 65.1501 8.7897 64.4867 8.78333C64.1136 8.77974 63.7404 8.77615 63.3673 8.78194C63.2863 8.78997 63.2053 8.78997 63.2053 8.67745C63.2123 8.59414 63.2737 8.58879 63.332 8.58369C63.3412 8.58289 63.3503 8.5821 63.3592 8.581C63.4078 8.57296 63.4644 8.57296 63.513 8.57296ZM66.3958 8.34791C66.8574 8.20324 67.1489 7.83352 67.1651 7.40753C67.1813 6.89313 66.9303 6.50733 66.4687 6.3064C66.0052 6.11032 65.5203 6.12652 65.0408 6.14255L64.9463 6.14565C64.833 6.15369 64.8087 6.23406 64.8087 6.33051V7.26286V8.1952C64.8087 8.27558 64.8087 8.35595 64.922 8.37203C65.416 8.46044 65.91 8.50062 66.3958 8.34791ZM66.2582 3.75049C65.8371 3.60581 65.3998 3.60581 64.9625 3.67815C64.8492 3.69422 64.8087 3.75049 64.8087 3.86301V4.72302V5.5991C64.8087 5.69555 64.8249 5.75985 64.9463 5.77593C65.2378 5.80808 65.5213 5.80808 65.8128 5.80004C65.9056 5.79295 65.9921 5.77962 66.0834 5.76555L66.1205 5.75985C66.663 5.67144 66.9708 5.33387 67.0112 4.79536C67.0436 4.36133 66.7197 3.91123 66.2582 3.75049ZM61.6101 8.41272C62.6385 7.64112 62.9462 6.58822 62.7195 5.36652C62.436 3.87156 60.8165 2.60967 58.9864 3.43753C57.9013 3.93585 57.4074 4.85213 57.4074 6.03363C57.4074 6.07621 57.4056 6.11966 57.4038 6.16341C57.4002 6.25182 57.3965 6.34144 57.4074 6.42747L57.4104 6.44863L57.4104 6.44872C57.4337 6.61104 57.458 6.77981 57.5045 6.93383C58.0795 8.93516 60.2901 9.40133 61.6101 8.41272ZM58.371 5.80055C58.3872 5.35045 58.452 4.90839 58.6382 4.49044C58.8811 3.95997 59.2617 3.59024 59.8772 3.54202C60.7841 3.47772 61.3509 3.87959 61.6263 4.75568C61.7639 5.19774 61.8125 5.65587 61.8044 6.11401C61.8125 6.58018 61.7639 7.04635 61.5939 7.48841C61.2376 8.4288 60.1768 8.85478 59.3346 8.39665C58.9783 8.20375 58.7597 7.88225 58.6139 7.52056C58.3953 6.97402 58.3467 6.39532 58.371 5.80055ZM72.4193 8.56727L72.4367 8.56547C72.793 8.51725 72.874 8.38865 72.7525 8.04304C72.6748 7.79375 72.5706 7.55323 72.4659 7.31176C72.4289 7.22625 72.3917 7.14061 72.3557 7.05443C72.3234 6.98209 72.2748 6.95798 72.1938 6.95798H70.3718C70.2989 6.95798 70.2341 6.96602 70.2018 7.04639C70.1549 7.16013 70.1038 7.27303 70.0526 7.38617L70.0517 7.38819L70.0515 7.38862L70.0513 7.38914C69.9437 7.62682 69.8356 7.8656 69.7645 8.11538C69.6997 8.34043 69.7807 8.46902 70.0236 8.52529C70.1046 8.5494 70.1856 8.55744 70.2665 8.56547C70.3313 8.57351 70.3799 8.59762 70.3799 8.66996C70.3799 8.75034 70.3313 8.77445 70.2665 8.77445H68.7361C68.6713 8.77445 68.6227 8.75837 68.6146 8.678C68.6065 8.60566 68.647 8.56547 68.7118 8.55744C69.0519 8.51725 69.2219 8.27613 69.3434 8.00285L70.4852 5.3746C70.6309 5.04122 70.7746 4.70584 70.9183 4.37045L70.9183 4.37038L70.9183 4.37031L70.9183 4.37024L70.9184 4.37016L70.9184 4.37009L70.9184 4.37002L70.9184 4.36995L70.9185 4.36988L70.9185 4.36981L70.9185 4.36973L70.9185 4.36966L70.9185 4.36959C71.0622 4.03414 71.2059 3.69868 71.3516 3.36524L71.3619 3.34078C71.3832 3.28948 71.407 3.23213 71.4488 3.20449C71.5703 3.13215 71.627 3.21252 71.6674 3.31701C71.7686 3.55405 71.8678 3.78909 71.967 4.02412L71.967 4.02424L71.9671 4.0243C72.0663 4.2594 72.1655 4.4945 72.2667 4.73161C72.6878 5.74433 73.1088 6.74901 73.538 7.75369C73.6028 7.91444 73.6838 8.05911 73.7729 8.21183C73.8862 8.41276 74.0644 8.52529 74.2911 8.55744L74.3075 8.56033C74.3907 8.57489 74.4683 8.58846 74.4531 8.69407C74.4462 8.78997 74.3746 8.78663 74.3085 8.78355L74.2889 8.78273L74.2749 8.78249H73.3518H72.4529L72.4381 8.78265L72.4296 8.78283C72.3595 8.78435 72.2748 8.78618 72.2748 8.678C72.2748 8.58171 72.3504 8.57416 72.4193 8.56727ZM70.5338 6.61237H72.0723C72.1614 6.62041 72.1938 6.60433 72.1533 6.51592L72.1456 6.49777C71.8729 5.85278 71.5999 5.20743 71.3111 4.52263C71.0115 5.21385 70.7281 5.86489 70.4447 6.51592C70.4042 6.61237 70.4609 6.61237 70.5338 6.61237ZM52.9941 8.18763C52.9536 8.41268 52.8159 8.54128 52.5892 8.5654C52.5487 8.56941 52.5082 8.57142 52.4677 8.57343C52.4273 8.57544 52.3868 8.57745 52.3463 8.58147C52.2815 8.58951 52.2329 8.61362 52.2329 8.68596C52.2329 8.75829 52.2896 8.78241 52.3544 8.78241H52.492H54.3707H56.3142C56.4194 8.78241 56.5085 8.78241 56.549 8.65381C56.6786 8.23586 56.8081 7.81791 56.9458 7.408C56.9479 7.40051 56.9504 7.39302 56.9528 7.38559C56.9686 7.33719 56.9836 7.2912 56.9134 7.26333C56.8405 7.23118 56.8 7.27136 56.7676 7.33566L56.7366 7.40148C56.6818 7.51817 56.6252 7.63873 56.5571 7.75361C56.3547 8.09922 56.0631 8.32427 55.642 8.36446C55.2453 8.40465 54.8485 8.40465 54.4436 8.39661C53.9172 8.38857 53.8444 8.3082 53.8444 7.7938V4.31358C53.8444 4.20105 53.8525 4.09657 53.8687 3.98404C53.901 3.73488 54.0063 3.62236 54.2492 3.55806C54.3788 3.52591 54.5084 3.51787 54.646 3.51787C54.7108 3.51787 54.7594 3.48572 54.7513 3.41338C54.7432 3.34105 54.7027 3.33301 54.646 3.33301H54.557H52.4354H52.3301C52.2815 3.33301 52.241 3.35712 52.241 3.41338C52.2329 3.47768 52.2734 3.50983 52.3301 3.51787C52.3665 3.52189 52.4009 3.52189 52.4353 3.52189C52.4698 3.52189 52.5042 3.52189 52.5406 3.52591C52.8078 3.54198 52.9536 3.67058 52.9941 3.92778C53.0184 4.05638 53.0265 4.17694 53.0265 4.30554V7.81791C53.0244 7.84864 53.0229 7.87988 53.0213 7.91138L53.0213 7.91183C53.0168 8.0038 53.0122 8.09794 52.9941 8.18763ZM74.8903 8.58125C74.9329 8.57924 74.9754 8.57723 75.0199 8.57321C75.2547 8.5491 75.3924 8.4205 75.4572 8.21152C75.4815 8.08292 75.4896 7.95432 75.4896 7.81769V4.32139C75.4896 4.19279 75.4815 4.07223 75.4572 3.94363C75.4086 3.67839 75.2709 3.54979 75.0037 3.53372C74.9673 3.5297 74.9329 3.5297 74.8984 3.5297C74.864 3.5297 74.8296 3.5297 74.7932 3.52568C74.7284 3.52568 74.696 3.49353 74.696 3.42923C74.696 3.37297 74.7284 3.34082 74.7851 3.34082H74.8903H76.9877H77.0929C77.1496 3.34886 77.1901 3.37297 77.1901 3.43727C77.182 3.50961 77.1415 3.53372 77.0848 3.53372C76.9472 3.53372 76.8176 3.54176 76.688 3.57391C76.4694 3.63017 76.3236 3.74269 76.3074 3.98382C76.3047 4.02402 76.3011 4.06422 76.2975 4.10442C76.2903 4.18478 76.2831 4.26514 76.2831 4.3455V7.80965C76.2831 8.32405 76.3479 8.40442 76.8662 8.41246C77.2711 8.4205 77.676 8.4205 78.0808 8.38031C78.4938 8.34012 78.7853 8.11507 78.9878 7.76946C79.0607 7.63282 79.1335 7.48815 79.1983 7.35151C79.2307 7.29525 79.2631 7.25506 79.336 7.27918C79.4107 7.30141 79.3958 7.35097 79.3804 7.40266L79.3765 7.41581C79.3205 7.59629 79.2631 7.77677 79.2054 7.95789C79.1295 8.19622 79.0533 8.43566 78.9797 8.67769C78.9392 8.79826 78.842 8.79826 78.7449 8.79826H76.8014H74.9227C74.8984 8.79826 74.8721 8.79625 74.8458 8.79424C74.8195 8.79223 74.7932 8.79022 74.7689 8.79022C74.7203 8.78218 74.6798 8.75807 74.6798 8.70181C74.6717 8.63751 74.696 8.59732 74.7608 8.58928C74.8053 8.58526 74.8478 8.58325 74.8903 8.58125ZM45.6657 19.6004C45.5766 19.6084 45.4875 19.6084 45.3984 19.6084C45.3175 19.6084 45.2284 19.6245 45.2284 19.721C45.2284 19.8335 45.3175 19.8415 45.4065 19.8415H45.5199H47.9735C48.0302 19.8415 48.095 19.8415 48.1517 19.8335C48.2164 19.8255 48.2569 19.7933 48.2569 19.729C48.2569 19.6727 48.2245 19.6245 48.1598 19.6165C48.1152 19.6125 48.0707 19.6105 48.0262 19.6084C47.9816 19.6064 47.9371 19.6044 47.8925 19.6004C47.4958 19.5843 47.3338 19.4557 47.2933 19.1021C47.243 18.6979 47.2489 18.2907 47.2548 17.8842V17.8839C47.2584 17.6357 47.262 17.3877 47.2528 17.1409C47.2447 16.9802 47.3095 16.948 47.4715 16.9802C47.8925 17.0606 48.3136 17.0927 48.7428 17.0525C49.3987 16.9882 49.9494 16.7712 50.3057 16.2488C50.994 15.22 50.338 13.9581 48.9938 13.7009C48.5059 13.6098 48.018 13.6155 47.5647 13.6209C47.3785 13.6231 47.1982 13.6252 47.0261 13.6205C46.8832 13.6205 46.7475 13.62 46.6168 13.6195H46.6168C46.2438 13.618 45.9124 13.6167 45.5766 13.6286C45.5507 13.6286 45.5202 13.6244 45.4884 13.62C45.381 13.6053 45.2589 13.5885 45.2527 13.725C45.2464 13.8813 45.3773 13.8625 45.4891 13.8465C45.521 13.8419 45.5514 13.8376 45.5766 13.8376C45.9653 13.8617 46.1353 13.9822 46.192 14.3278C46.2163 14.4564 46.2244 14.585 46.2244 14.7217V18.7404C46.2244 18.8851 46.2163 19.0298 46.1839 19.1664C46.1272 19.4397 45.9734 19.5683 45.6657 19.6004ZM47.4067 14.0867C47.7387 14.0304 48.0626 14.0063 48.3865 14.1028C49.0343 14.2957 49.4473 14.9387 49.3339 15.6058C49.2287 16.2247 48.8562 16.6105 48.265 16.715C48.0183 16.7547 47.7715 16.7181 47.5248 16.6815C47.4719 16.6736 47.4191 16.6658 47.3662 16.6587C47.2518 16.6436 47.2523 16.5643 47.2528 16.4881L47.2528 16.4738V15.3727V14.2957C47.2528 14.1912 47.2771 14.1108 47.4067 14.0867ZM64.8165 19.6053L64.8166 19.6053L64.836 19.6024L64.8492 19.6003C65.3188 19.536 65.4484 19.3753 65.2945 18.9975C65.2004 18.7588 65.0894 18.5234 64.9789 18.2891C64.9184 18.1607 64.8579 18.0326 64.8006 17.9044C64.7601 17.808 64.6791 17.7839 64.5738 17.7839H62.2579C62.1526 17.7839 62.0797 17.808 62.0392 17.9044C62.0014 17.9831 61.9632 18.0617 61.925 18.1404L61.9248 18.1408L61.9246 18.1412C61.7909 18.4163 61.6567 18.6924 61.5372 18.9734C61.3671 19.3592 61.4967 19.536 61.9583 19.6003C61.9829 19.6038 62.0117 19.6043 62.0416 19.6048C62.1489 19.6065 62.2688 19.6084 62.2498 19.7531C62.2369 19.8743 62.1219 19.8638 62.0184 19.8543C61.9915 19.8519 61.9654 19.8495 61.9421 19.8495C61.5696 19.8549 61.1971 19.8531 60.8246 19.8513C60.6383 19.8504 60.4521 19.8495 60.2659 19.8495C60.2584 19.8495 60.2508 19.8496 60.2431 19.8498L60.2272 19.8503C60.1373 19.853 60.037 19.8561 60.0229 19.737C60.0081 19.6191 60.1157 19.6025 60.2085 19.5882L60.2335 19.5843C60.5088 19.5441 60.695 19.3914 60.8246 19.1824C61.0851 18.7593 61.2893 18.3191 61.4942 17.8774C61.5696 17.7149 61.645 17.5522 61.7234 17.39C62.1556 16.5093 62.5795 15.6246 63.004 14.7386L63.0041 14.7384L63.0042 14.7382L63.0043 14.738L63.0043 14.7379L63.0045 14.7375L63.0047 14.7371L63.005 14.7366L63.0053 14.7358C63.177 14.3775 63.3487 14.0191 63.5211 13.6607C63.5269 13.6493 63.5323 13.6374 63.5377 13.6254C63.5708 13.5529 63.6054 13.4769 63.7236 13.4838C63.8336 13.4838 63.8677 13.5592 63.9003 13.6311C63.9061 13.6439 63.9118 13.6566 63.9179 13.6687L66.2015 18.5153C66.2987 18.7323 66.412 18.9413 66.5416 19.1502C66.7035 19.3994 66.9303 19.5521 67.2542 19.5923C67.3514 19.6003 67.4566 19.6164 67.4404 19.737C67.4252 19.8425 67.3389 19.842 67.2547 19.8415L67.238 19.8415H66.0233H64.8735C64.8615 19.8415 64.849 19.8419 64.8363 19.8423C64.7539 19.8452 64.6618 19.8484 64.6548 19.737C64.6476 19.6299 64.7299 19.6179 64.8164 19.6053L64.8165 19.6053ZM63.0596 17.3722C63.4806 17.3704 63.9017 17.3686 64.3228 17.374C64.5253 17.374 64.5495 17.3257 64.4686 17.165C64.145 16.4906 63.8296 15.8163 63.5141 15.1419L63.5136 15.1407L63.5135 15.1406L63.513 15.1396L63.5095 15.132L63.5044 15.1195C63.4916 15.0876 63.4752 15.0467 63.4159 15.027L62.3227 17.2695C62.2772 17.3749 62.3382 17.3745 62.4127 17.374L62.4279 17.374C62.6385 17.374 62.849 17.3731 63.0596 17.3722ZM42.4023 19.6007L42.4007 19.6008C42.304 19.6088 42.1999 19.6174 42.2079 19.7373C42.2152 19.8533 42.3148 19.8516 42.3996 19.8501L42.4134 19.8499L42.4266 19.8498H43.6007H44.7911L44.809 19.8499C44.8937 19.8504 44.986 19.8509 44.9935 19.7534C45.0097 19.6328 44.9045 19.6167 44.8073 19.6087C44.4915 19.5765 44.2567 19.4238 44.1109 19.1827L44.1108 19.1826C44.0137 19.0219 43.9165 18.8612 43.8356 18.6924L42.1351 15.0756L42.1347 15.0748L42.1347 15.0747L42.1346 15.0746L42.1346 15.0746L42.1346 15.0745L42.1345 15.0744L42.1345 15.0743L42.1345 15.0742C41.9079 14.5924 41.6814 14.1106 41.4467 13.6288C41.4144 13.5565 41.382 13.5002 41.2767 13.4922C41.1795 13.4922 41.139 13.5485 41.0985 13.6208L41.0944 13.6288C41.0909 13.6355 41.0874 13.642 41.0838 13.6482L41.0744 13.6648L41.0743 13.665C41.0687 13.6746 41.0632 13.6841 41.0577 13.6944L41.05 13.7092L41.0491 13.711C40.4339 14.9964 39.8188 16.2818 39.1956 17.5672C39.1511 17.6613 39.1072 17.7555 39.0633 17.8495C38.8675 18.2693 38.6726 18.6872 38.4344 19.0943C38.2886 19.3435 38.1024 19.5605 37.7542 19.6087L37.7511 19.6092C37.6548 19.6251 37.5519 19.6421 37.5679 19.7614C37.5825 19.8694 37.675 19.8678 37.7582 19.8662H37.7582C37.7679 19.8661 37.7773 19.8659 37.7866 19.8659H39.2199H39.6167C39.6976 19.8659 39.7786 19.8498 39.7867 19.7534C39.7867 19.6569 39.7138 19.6408 39.6248 19.6248C39.5762 19.6167 39.5296 19.6107 39.483 19.6047C39.4365 19.5986 39.3899 19.5926 39.3413 19.5846C39.0498 19.5203 38.9526 19.3756 39.0336 19.1184C39.1175 18.8427 39.2488 18.5839 39.3793 18.3267C39.4505 18.1864 39.5214 18.0466 39.5843 17.9048C39.6248 17.8163 39.6976 17.8003 39.7948 17.8003H42.1108C42.216 17.8003 42.2889 17.8324 42.3294 17.9289C42.3821 18.0433 42.4378 18.157 42.4936 18.2707L42.4936 18.2707L42.4936 18.2708L42.4936 18.2708L42.4937 18.2709L42.4937 18.271L42.4937 18.271L42.4939 18.2714C42.6181 18.5246 42.7421 18.7775 42.8315 19.038C42.9772 19.3997 42.8719 19.5444 42.4023 19.6007ZM41.9164 17.3743C41.4658 17.369 41.0153 17.3707 40.5529 17.3725C40.3173 17.3734 40.0786 17.3743 39.8353 17.3743C40.2159 16.5786 40.5884 15.807 40.9852 14.9952C41.0581 15.1399 41.1066 15.2444 41.1552 15.3488L41.1557 15.3498L41.1558 15.35C41.4471 15.9685 41.7385 16.587 42.0379 17.2055C42.0946 17.3261 42.1027 17.3743 41.9164 17.3743ZM36.742 15.4372C36.6448 15.1961 36.5314 14.963 36.3776 14.746C35.4949 13.5162 33.3976 13.5564 32.604 14.8263C32.2153 15.4372 32.1182 16.1043 32.1182 16.6508C32.1101 17.4224 32.2072 18.0413 32.604 18.5798C33.0332 19.1746 33.6729 19.4479 34.4503 19.5122C35.422 19.5926 36.1508 19.2228 36.7258 18.5477L36.7258 18.5476C36.7825 18.4834 36.8392 18.4191 36.8958 18.3468C36.9525 18.2744 37.0092 18.2423 37.0983 18.2985C37.1792 18.3468 37.155 18.403 37.1145 18.4673C36.5638 19.2871 35.8188 19.8578 34.7094 19.9542C33.8268 20.0266 32.9846 19.9301 32.2558 19.4318C31.4218 18.8692 30.9764 18.1056 30.8873 17.1733C30.7901 16.2168 31.0412 15.3488 31.7214 14.6013C32.7093 13.5162 34.4098 13.1706 35.835 13.7654C35.858 13.7755 35.8801 13.7856 35.9017 13.7955L35.9018 13.7956C35.9488 13.817 35.9931 13.8373 36.0375 13.8538C36.2804 13.9503 36.4262 13.902 36.5476 13.6931C36.5719 13.6368 36.5962 13.5805 36.6286 13.5323C36.661 13.476 36.7177 13.468 36.7825 13.4841C36.8557 13.5059 36.8627 13.5605 36.8694 13.6124L36.8715 13.6288C36.8871 13.8102 36.9008 13.9898 36.9144 14.1685L36.9144 14.1689L36.9145 14.1694C36.9292 14.3623 36.9438 14.5542 36.9606 14.746C36.9768 14.9549 36.993 15.172 37.0011 15.389C37.0026 15.4042 37.0062 15.4208 37.0099 15.438C37.0256 15.5115 37.0433 15.5945 36.912 15.614C36.803 15.6267 36.7803 15.5538 36.7595 15.487C36.7541 15.4694 36.7487 15.4523 36.742 15.4372ZM60.5169 13.8703C60.5169 13.6854 60.444 13.6211 60.2335 13.6211C59.6609 13.6265 59.0848 13.6247 58.5098 13.6229C58.2228 13.622 57.9361 13.6211 57.6503 13.6211C57.3618 13.6211 57.0732 13.622 56.7844 13.6229C56.2059 13.6247 55.6262 13.6265 55.0428 13.6211C54.8404 13.6211 54.7513 13.6774 54.7513 13.8622C54.7513 14.0333 54.7373 14.2091 54.7234 14.3825V14.3825C54.719 14.4371 54.7147 14.4915 54.7108 14.5454C54.7027 14.682 54.7027 14.8185 54.7027 14.9551V14.9553C54.7027 15.0276 54.7027 15.108 54.8161 15.108C54.9295 15.1161 54.9456 15.0437 54.9618 14.9633C54.9659 14.9393 54.9719 14.9133 54.978 14.8872L54.978 14.8872L54.978 14.887L54.9781 14.8868L54.9781 14.8867C54.9798 14.8795 54.9815 14.8722 54.9831 14.865C54.9843 14.86 54.9854 14.855 54.9865 14.85C54.9882 14.8423 54.9898 14.8347 54.9912 14.8272C54.9923 14.8216 54.9933 14.8161 54.9942 14.8106C55.0995 14.3445 55.4396 14.0792 55.9741 14.0632C56.0956 14.0597 56.2156 14.0607 56.3354 14.0617C56.495 14.063 56.6543 14.0643 56.8162 14.0551C57.043 14.039 57.1077 14.1194 57.0996 14.3123C57.0915 15.8146 57.0915 17.3169 57.0915 18.8272V18.8294C57.0915 18.9499 57.0915 19.0785 57.0511 19.1991C56.9863 19.4402 56.8486 19.5608 56.5733 19.5849C56.51 19.5946 56.4438 19.5955 56.3764 19.5965C56.3317 19.5971 56.2865 19.5978 56.2413 19.601C56.1684 19.609 56.1198 19.6412 56.1198 19.7135C56.1198 19.7858 56.1684 19.818 56.2413 19.826C56.298 19.8341 56.3628 19.8341 56.4194 19.8341H58.8002C58.8225 19.8341 58.8479 19.8365 58.8744 19.8391C58.9825 19.8497 59.1079 19.862 59.1079 19.7135C59.1017 19.5843 58.9959 19.5917 58.8957 19.5986C58.865 19.6008 58.8349 19.6028 58.8083 19.601C58.3467 19.5769 58.209 19.4724 58.1604 19.0625C58.1576 19.0345 58.1538 19.0076 58.1501 18.9809C58.143 18.9308 58.1362 18.8818 58.1362 18.8294V14.24C58.1362 14.1194 58.1847 14.0551 58.3224 14.0632C58.453 14.0662 58.5836 14.0658 58.7138 14.0654H58.7138C58.9307 14.0648 59.1464 14.0642 59.3589 14.0792C59.8205 14.1033 60.1687 14.3847 60.2659 14.7865L60.2659 14.7866C60.2821 14.8509 60.2982 14.9152 60.3063 14.9794C60.3225 15.0678 60.3711 15.1241 60.4845 15.108C60.5846 15.0948 60.5802 15.0379 60.5756 14.9778C60.5746 14.9649 60.5736 14.952 60.5736 14.9392C60.5412 14.5856 60.5169 14.2239 60.5169 13.8703ZM67.9465 19.6169C67.9911 19.6149 68.0356 19.6129 68.0802 19.6089C68.4688 19.5848 68.6389 19.4481 68.6632 19.1186C68.6794 19.0302 68.6794 18.9338 68.6794 18.8453V14.6498C68.6794 14.5453 68.6713 14.4408 68.6551 14.3363C68.5984 13.9987 68.4203 13.8782 68.0316 13.8541C68.004 13.8521 67.9703 13.8559 67.9351 13.8598C67.8254 13.8719 67.7015 13.8856 67.7077 13.7335C67.7139 13.6043 67.834 13.6211 67.9409 13.6361C67.9736 13.6407 68.005 13.6451 68.0316 13.6451C68.8737 13.6371 69.7078 13.6371 70.55 13.6371H70.7281C70.8172 13.6371 70.8982 13.6451 70.8901 13.7496C70.8901 13.838 70.8172 13.8541 70.7362 13.8541C70.5662 13.8541 70.3961 13.8621 70.2342 13.9023C69.9345 13.9666 69.7888 14.1273 69.7645 14.4006C69.7094 15.0674 69.718 15.7341 69.7266 16.4008V16.401C69.7306 16.7148 69.7347 17.0286 69.7321 17.3423C69.7321 17.49 69.7293 17.6376 69.7265 17.7853L69.7265 17.7865C69.7186 18.2011 69.7108 18.6156 69.7645 19.0302C69.7969 19.2954 69.8698 19.3597 70.1613 19.3839C70.8091 19.4401 71.4488 19.4321 72.0966 19.3678C72.5906 19.3115 72.9307 19.0543 73.1736 18.6846C73.2557 18.5655 73.323 18.4416 73.3909 18.3166L73.391 18.3164L73.3911 18.3161C73.4102 18.2809 73.4294 18.2457 73.449 18.2104C73.4894 18.138 73.538 18.0818 73.6352 18.1139C73.7405 18.1461 73.7162 18.2104 73.6919 18.2747C73.6069 18.5158 73.5218 18.7549 73.4368 18.994C73.3518 19.2331 73.2668 19.4723 73.1817 19.7134C73.125 19.8581 73.0117 19.8581 72.8821 19.8581H70.4123H68.0316C67.9587 19.8581 67.8858 19.8581 67.8129 19.85C67.7482 19.842 67.7158 19.7938 67.7158 19.7375C67.7158 19.6732 67.7401 19.633 67.8129 19.625C67.8574 19.621 67.9019 19.6189 67.9464 19.6169L67.9465 19.6169ZM51.577 19.6003C51.5244 19.6044 51.4737 19.6064 51.4231 19.6084L51.423 19.6084C51.3724 19.6104 51.3219 19.6124 51.2693 19.6164C51.1964 19.6244 51.1478 19.6566 51.1397 19.7289C51.1397 19.8013 51.1802 19.8415 51.2612 19.8415C51.326 19.8495 51.3907 19.8495 51.4555 19.8495C51.7144 19.8495 51.9741 19.8504 52.2341 19.8513C52.7551 19.8531 53.2772 19.8549 53.7958 19.8495C53.8242 19.8495 53.8569 19.8534 53.8908 19.8574C54.0112 19.8716 54.1457 19.8875 54.1521 19.737C54.1583 19.5952 54.0312 19.6047 53.9168 19.6132C53.882 19.6158 53.8484 19.6183 53.8201 19.6164C53.4071 19.5843 53.2451 19.4557 53.1884 19.094C53.1722 19.0056 53.1722 18.9091 53.1722 18.8207V14.7216C53.1722 14.585 53.1803 14.4483 53.2127 14.3117C53.2694 14.0384 53.4233 13.8937 53.731 13.8616C53.812 13.8535 53.8929 13.8535 53.9739 13.8535L53.9897 13.8536C54.0749 13.854 54.1683 13.8545 54.1683 13.741C54.1683 13.6355 54.0757 13.636 53.9907 13.6365L53.9739 13.6365H52.6702H51.3422C51.3334 13.6365 51.3242 13.6363 51.3148 13.6362C51.2378 13.6346 51.1469 13.6327 51.1397 13.733C51.1328 13.8429 51.2205 13.8471 51.3018 13.8511C51.3156 13.8517 51.3292 13.8524 51.3422 13.8535H51.4312C51.8604 13.8696 52.0467 14.0143 52.1033 14.384C52.1195 14.4965 52.1195 14.609 52.1195 14.7135V14.7136V18.7001C52.1195 18.8609 52.1114 19.0136 52.079 19.1663C52.0548 19.4396 51.9009 19.5682 51.577 19.6003ZM24.6035 0.994141H80V1.47639H24.6035V0.994141ZM80 11.2422H24.6035V11.7244H80V11.2422ZM24.6035 22.2129H80V22.6951H24.6035V22.2129Z" fill="white"/>
    </svg>
    