<svg width="68" height="24" viewBox="0 0 68 24" fill="none" xmlns="http://www.w3.org/2000/svg">
    <path fill-rule="evenodd" clip-rule="evenodd" d="M44.9674 5.72072C45.2396 5.34878 45.5888 5.01314 45.9608 4.74099C46.7953 4.12867 47.7705 3.92909 48.7865 3.92456C51.2449 3.92002 53.6988 3.92002 56.1571 3.92456C56.3159 3.92456 56.4202 3.88374 56.52 3.7522C57.0734 3.02718 57.6303 2.30384 58.1874 1.58014C58.5434 1.11764 58.8996 0.65498 59.2551 0.191635C59.2823 0.158373 59.3034 0.123095 59.3307 0.0777377L59.3307 0.0776427L59.331 0.0772038L59.3312 0.0767562L59.3315 0.0763072C59.3449 0.0540002 59.3598 0.0292578 59.3775 0.00113394H59.0963C58.2264 0.00113394 57.3568 0.000850361 56.4874 0.00056683C53.8796 -0.000283577 51.2731 -0.00113357 48.6641 0.00566969C47.6798 0.00566969 46.7046 0.114528 45.7476 0.359458C44.0694 0.790355 42.5907 1.57504 41.425 2.87226C41.1712 3.15392 40.9554 3.46938 40.7402 3.78403C40.64 3.93048 40.5399 4.07676 40.4362 4.21938C39.5563 5.43043 38.6763 6.64147 37.7964 7.84798C37.6182 8.0942 37.4388 8.34041 37.2575 8.58913L37.2571 8.58969L37.2537 8.5943L37.2523 8.59624C37.0847 8.8263 36.9154 9.05852 36.7441 9.29489C36.7061 9.24348 36.6747 9.19978 36.6461 9.15999C36.6167 9.11904 36.5903 9.08223 36.5627 9.04542C34.4354 6.11533 32.3127 3.17616 30.1945 0.232457C30.0766 0.0691702 29.9632 0.00113394 29.7545 0.00113394C24.7652 0.00566969 19.7759 0.00566969 14.7865 0.00566969C14.596 0.00566969 14.4101 0.0102054 14.2196 0.0192769C12.8997 0.0827775 11.6569 0.395744 10.532 1.12146C8.63606 2.34158 8.29588 4.29195 8.85831 5.89307C9.20303 6.88187 9.93329 7.55316 10.8178 8.07024C11.9834 8.75513 13.2671 9.0046 14.596 9.01367C16.3617 9.02339 18.1274 9.02154 19.8931 9.01969L19.8959 9.01969C20.6012 9.01895 21.3066 9.01821 22.012 9.01821C22.06 9.01821 22.1081 9.01803 22.1564 9.01785C22.35 9.01712 22.5453 9.01639 22.7377 9.02728C23.1641 9.05903 23.5768 9.13614 23.9533 9.34932C24.5883 9.71218 24.5974 10.388 23.9714 10.7735C23.9261 10.8008 23.8807 10.8234 23.8308 10.8461C23.3818 11.0684 22.9055 11.1636 22.4066 11.1636C18.8823 11.1636 15.3626 11.1636 11.8383 11.1591C11.6705 11.1591 11.5616 11.209 11.4618 11.3405C10.7627 12.2518 10.0609 13.1578 9.35853 14.0645L9.35839 14.0647L9.35726 14.0661L9.35614 14.0676L9.34774 14.0784L8.7177 14.892C8.69518 14.9242 8.67494 14.9586 8.65051 15.0002L8.65047 15.0003L8.6503 15.0006C8.64035 15.0175 8.6297 15.0357 8.61792 15.0553H8.75853C10.0906 15.0553 11.4227 15.056 12.755 15.0568H12.7555C16.0862 15.0586 19.4176 15.0605 22.7513 15.0508C23.9352 15.0462 25.0782 14.7922 26.135 14.2389C27.0603 13.749 27.8586 13.114 28.3575 12.1706C29.3735 10.2338 28.8338 7.91148 27.0467 6.53715C25.7495 5.53929 24.2436 5.14468 22.6379 5.13107C20.987 5.11952 19.3378 5.12084 17.6882 5.12215C16.7455 5.1229 15.8026 5.12365 14.8591 5.122C14.6777 5.122 14.4963 5.10839 14.3194 5.0721C14.0336 5.0086 13.8839 4.82264 13.8749 4.55049C13.8658 4.25567 13.9928 4.06517 14.2921 3.98352C14.4418 3.9427 14.6051 3.92456 14.7593 3.92456C16.7732 3.92229 18.787 3.92229 20.8014 3.92229H20.8021C22.8163 3.92229 24.8312 3.92229 26.8471 3.92002C27.0104 3.92002 27.1056 3.97445 27.1964 4.10599C29.4733 7.23566 31.7503 10.3608 34.0317 13.4859C34.4082 14.003 34.8119 14.4883 35.3426 14.8512C36.0683 15.3456 36.8303 15.4499 37.6331 15.0553C38.1411 14.8013 38.563 14.4294 38.9031 13.9803C39.8375 12.7557 40.7719 11.5265 41.679 10.2837C42.1623 9.62009 42.6388 8.95304 43.1147 8.28669L43.1149 8.28641L43.1149 8.2863L43.115 8.28622L43.1151 8.28606L43.1152 8.28594L43.1153 8.28587L43.1154 8.28571L43.1155 8.28559L43.1155 8.28547L43.1157 8.28527L43.1158 8.28515L43.1159 8.28495L43.116 8.28483L43.1161 8.28463L43.1162 8.28451L43.1164 8.28431C43.7296 7.42566 44.3421 6.56816 44.9674 5.72072ZM66.2129 23.2883H65.9045V19.0973H65.3829V23.8099H68V23.311C67.4147 23.3065 66.8294 23.2976 66.2398 23.2887L66.2129 23.2883ZM59.0963 11.1629H59.3775C59.3589 11.1916 59.3425 11.2175 59.3274 11.2415C59.2947 11.2933 59.2679 11.3357 59.2369 11.3761C58.9601 11.7341 58.6833 12.0918 58.4066 12.4493L58.4064 12.4496L58.4062 12.4498C57.7717 13.2695 57.138 14.0884 56.5064 14.9094C56.4157 15.0228 56.3295 15.0636 56.1843 15.0636C55.3269 15.0621 54.469 15.0641 53.6108 15.0662H53.6102H53.6096H53.6091H53.6085H53.6079H53.6073H53.6068H53.6062H53.6056H53.6051H53.6045H53.6039H53.6033H53.6028C51.8803 15.0702 50.1565 15.0742 48.4328 15.05C46.0243 15.0137 43.8471 14.2926 42.0373 12.6325C41.9762 12.5772 41.9113 12.5256 41.8451 12.4729L41.845 12.4729L41.8448 12.4727C41.8079 12.4434 41.7707 12.4138 41.7334 12.383C42.2201 11.7319 42.6984 11.0914 43.1751 10.4531C43.6315 9.84198 44.0864 9.23287 44.5456 8.61834C44.5654 8.66408 44.5832 8.70727 44.6001 8.7484L44.6002 8.74865L44.6003 8.74873L44.6003 8.7489L44.6004 8.74912C44.6337 8.83006 44.6638 8.90308 44.6998 8.97212C45.2305 10.0516 46.1377 10.664 47.2625 10.9633C47.7388 11.0858 48.2422 11.1493 48.7366 11.1538C51.3256 11.1674 53.9171 11.1657 56.5073 11.164C57.3705 11.1635 58.2335 11.1629 59.0963 11.1629ZM17.7212 19.083C17.5761 19.0785 17.5126 19.1238 17.4672 19.2644C17.2092 20.0281 16.943 20.7891 16.6772 21.5495L16.6771 21.5496L16.6771 21.5496L16.6771 21.5497L16.6771 21.5497L16.6769 21.5502L16.6768 21.5506L16.6766 21.551L16.6765 21.5513L16.6764 21.5517L16.6763 21.5521L16.6761 21.5524L16.676 21.5528L16.6759 21.5531L16.6756 21.5539L16.6735 21.56C16.5948 21.7852 16.5161 22.0103 16.4376 22.2353C16.4104 22.3125 16.3786 22.3941 16.3287 22.5211L16.1541 22.0199C15.8272 21.0818 15.5129 20.1799 15.2084 19.278C15.1585 19.1329 15.095 19.083 14.9362 19.083C14.2468 19.0921 13.5619 19.0921 12.8725 19.083C12.7183 19.083 12.6457 19.1329 12.5777 19.2644C12.4207 19.5671 12.2577 19.8666 12.0935 20.1681L11.988 20.3621C11.8565 20.607 11.7249 20.8474 11.5753 21.115C11.5532 21.0782 11.5333 21.0459 11.5151 21.0162L11.5151 21.0162L11.5151 21.0162C11.4884 20.9727 11.4653 20.935 11.4437 20.8973C11.3581 20.7427 11.2729 20.5882 11.1878 20.4337L11.1877 20.4336L11.1876 20.4335L11.1876 20.4334L11.1875 20.4333L11.1875 20.4332L11.1874 20.4331L11.1874 20.433L11.1873 20.4329L11.1872 20.4328L11.1872 20.4327L11.1871 20.4326L11.1871 20.4325L11.187 20.4324C10.97 20.0388 10.7534 19.6459 10.532 19.2554C10.4957 19.1919 10.4277 19.1011 10.3687 19.0966C10.0756 19.0858 9.78253 19.0864 9.47561 19.0872C9.39781 19.0873 9.31913 19.0875 9.23934 19.0875L9.26593 19.1478L9.26595 19.1479C9.28812 19.1984 9.30561 19.2382 9.32552 19.278L9.32566 19.2783L9.32567 19.2783L9.32568 19.2783L9.32569 19.2784L9.3257 19.2784L9.32572 19.2784L9.32573 19.2784L9.32574 19.2784L9.32575 19.2785L9.32576 19.2785L9.32577 19.2785L9.32578 19.2785L9.3258 19.2786L9.32581 19.2786C9.83372 20.2128 10.3416 21.1469 10.8405 22.0857C10.9221 22.2444 10.9629 22.4395 10.972 22.6164C10.9847 22.8891 10.9818 23.1619 10.979 23.4362C10.9778 23.5542 10.9765 23.6724 10.9765 23.7911H12.1694C12.1694 23.678 12.1691 23.566 12.1689 23.4549V23.4548V23.4548V23.4547V23.4547V23.4546V23.4546V23.4545V23.4544V23.4544V23.4543V23.4543V23.4542V23.4542C12.168 23.1245 12.1672 22.8024 12.174 22.4803C12.1785 22.3578 12.2103 22.2263 12.2647 22.1174C12.4804 21.7001 12.7044 21.2855 12.9281 20.8716C12.9913 20.7546 13.0545 20.6377 13.1174 20.5208C13.228 20.3164 13.3375 20.112 13.4493 19.9036L13.4494 19.9034C13.5806 19.6587 13.7147 19.4086 13.8567 19.1465C14.4736 20.734 15.0723 22.2716 15.671 23.8093C15.7759 23.8093 15.8788 23.8085 15.9804 23.8077L15.981 23.8077H15.981H15.9811H15.9811H15.9812H15.9812H15.9813H15.9813H15.9814H15.9815H15.9815H15.9816H15.9816H15.9817C16.2313 23.8059 16.4728 23.8041 16.7143 23.8138C16.8821 23.8229 16.9456 23.7548 17.0045 23.6097C17.2456 22.9925 17.4877 22.3753 17.7298 21.7581L17.7303 21.7569L17.7308 21.7557L17.7313 21.7545L17.7318 21.7532L17.7323 21.752L17.7327 21.7508L17.7332 21.7496L17.7337 21.7483L17.7342 21.7471L17.7347 21.7459C17.9785 21.1243 18.2223 20.5028 18.4651 19.8813C18.53 19.716 18.593 19.5488 18.6591 19.3734C18.6946 19.2793 18.7309 19.1828 18.769 19.083L18.738 19.0834C18.3781 19.0878 18.0475 19.0918 17.7212 19.083ZM36.5264 21.9626V20.5112C36.5264 20.044 36.5264 19.5768 36.5309 19.1006H37.6467V23.8132C37.5526 23.8132 37.4581 23.8139 37.3633 23.8147H37.3633H37.3632H37.3632H37.3631H37.363H37.363H37.3629H37.3629H37.3628H37.3628H37.3627C37.1244 23.8165 36.8843 23.8184 36.6443 23.8087C36.5854 23.8041 36.5219 23.727 36.4811 23.6726C36.0864 23.1483 35.6936 22.6223 35.3003 22.0955L35.2984 22.093C35.0731 21.7911 34.8475 21.4891 34.6214 21.187C34.5962 21.1517 34.5682 21.1179 34.5344 21.0769C34.5072 21.0441 34.4763 21.0066 34.44 20.9602V23.7996H33.3015V19.0915C33.3965 19.0915 33.4911 19.0907 33.5853 19.09H33.5854H33.5854H33.5855H33.5855H33.5856H33.5857H33.5857H33.5858H33.5858H33.5859H33.5859H33.586C33.82 19.0881 34.0518 19.0863 34.2812 19.096C34.3447 19.096 34.4218 19.1731 34.4672 19.2321C34.9637 19.8918 35.4574 20.5514 35.9528 21.2134L36.3268 21.7132L36.5264 21.9626ZM8.75336 19.0871L8.75159 19.0871H8.75136C8.42189 19.0863 8.11849 19.0855 7.81509 19.0923C7.73798 19.0923 7.64727 19.1512 7.59284 19.2102C7.28896 19.5458 6.98962 19.886 6.69027 20.2261L6.69022 20.2262L6.45478 20.4917C6.2823 20.6863 6.10458 20.8867 5.90554 21.1107V19.1104H4.7081V23.8004H5.90554V22.8116C5.90554 22.7481 5.91007 22.6664 5.94636 22.6211C6.07158 22.4708 6.20328 22.327 6.33998 22.1778L6.33999 22.1778C6.40135 22.1108 6.46371 22.0427 6.52694 21.9725L6.57124 22.0364C6.63249 22.1247 6.68403 22.199 6.73558 22.2763C6.83991 22.4306 6.94373 22.5853 7.04756 22.74C7.25519 23.0495 7.46282 23.3589 7.67448 23.6643C7.7153 23.7278 7.78788 23.8094 7.85138 23.8094C8.16623 23.8191 8.4788 23.8173 8.80845 23.8155L8.80899 23.8155C8.94456 23.8147 9.08302 23.814 9.22571 23.814C8.71185 23.0487 8.21557 22.3155 7.72038 21.5841L7.35698 21.0472C7.82519 20.5204 8.28455 20.0055 8.75886 19.4738L9.10324 19.0877C8.98283 19.0877 8.86655 19.0874 8.75336 19.0871ZM2.26334 20.0261C2.12273 19.9898 1.95491 20.008 1.81884 20.0533C1.72359 20.0851 1.59658 20.1985 1.58751 20.2892C1.56937 20.389 1.63287 20.5523 1.71451 20.6158C1.85966 20.7246 2.04109 20.7927 2.21798 20.8562C2.35899 20.9074 2.50147 20.9535 2.64364 20.9995C2.85361 21.0675 3.0629 21.1352 3.26574 21.219C3.77828 21.4322 4.06403 21.8268 4.0595 22.3983C4.05496 22.9834 3.77828 23.4007 3.25213 23.6275C2.31323 24.0312 1.40608 23.8724 0.521611 23.437C0.432237 23.3923 0.347354 23.3364 0.262222 23.2803L0.262209 23.2803L0.262193 23.2803C0.226362 23.2567 0.190488 23.2331 0.154216 23.2102C0.112499 23.1837 0.0739542 23.1508 0.0279751 23.1116L0 23.0878C0.0782736 22.9335 0.155379 22.7804 0.233688 22.625C0.309664 22.4741 0.386773 22.3211 0.467182 22.1625C0.898079 22.4936 1.35165 22.7476 1.87327 22.8292C2.08191 22.861 2.31323 22.8474 2.51734 22.7975C2.62166 22.7748 2.7532 22.6251 2.76227 22.5208C2.77134 22.4029 2.69424 22.226 2.59899 22.1625C2.45168 22.0643 2.27607 22.0038 2.10358 21.9444L2.10357 21.9444L2.10345 21.9444C2.06884 21.9325 2.03436 21.9206 2.00027 21.9085C1.87543 21.8639 1.74849 21.8242 1.62138 21.7845C1.4252 21.7232 1.2286 21.6617 1.03869 21.5819C0.566969 21.3823 0.29936 21.0195 0.290288 20.4933C0.281217 19.9717 0.503468 19.568 0.957044 19.314C1.65101 18.9239 2.39488 18.9602 3.1342 19.1553C3.34913 19.2122 3.55525 19.2999 3.77251 19.3924L3.77254 19.3924C3.86705 19.4326 3.96367 19.4737 4.06403 19.5136C3.98228 19.6813 3.9073 19.8364 3.83776 19.9803C3.75685 20.1477 3.6833 20.2998 3.61499 20.4389C3.48202 20.3976 3.35162 20.3559 3.22274 20.3147L3.22189 20.3144L3.22132 20.3142L3.22095 20.3141L3.22068 20.314L3.22054 20.314L3.21886 20.3134L3.21775 20.3131L3.21702 20.3129L3.21657 20.3127L3.21642 20.3127C2.89474 20.2098 2.58248 20.1099 2.26334 20.0261ZM22.8375 20.0531C22.9826 20.0077 23.1595 19.9941 23.3047 20.0304C23.6222 20.1155 23.9349 20.2171 24.2566 20.3217L24.2567 20.3217C24.3808 20.362 24.5062 20.4028 24.6337 20.4432C24.6855 20.3358 24.7395 20.2229 24.7967 20.1032L24.797 20.1026L24.7971 20.1024C24.8849 19.9188 24.9802 19.7192 25.0872 19.4997C24.9573 19.4544 24.8314 19.406 24.7076 19.3585L24.7075 19.3585L24.7075 19.3585L24.7075 19.3585L24.7075 19.3585L24.7074 19.3585L24.7074 19.3584L24.7074 19.3584L24.7074 19.3584L24.7074 19.3584L24.7074 19.3584C24.4598 19.2633 24.2209 19.1716 23.976 19.1142C23.2775 18.9554 22.579 18.9509 21.9349 19.3364C21.504 19.595 21.2999 19.9896 21.309 20.493C21.318 21.0101 21.5811 21.3684 22.0392 21.5726C22.2366 21.6596 22.4433 21.7244 22.6509 21.7895L22.6509 21.7895L22.6509 21.7895L22.651 21.7895L22.651 21.7895L22.651 21.7895L22.651 21.7895L22.651 21.7896L22.651 21.7896L22.6511 21.7896L22.6511 21.7896L22.6511 21.7896L22.6511 21.7896L22.6512 21.7896L22.6512 21.7896L22.6512 21.7896L22.6512 21.7896L22.6513 21.7896L22.6513 21.7896C22.768 21.8262 22.885 21.8629 23.0008 21.9037C23.0445 21.9192 23.0888 21.9341 23.1332 21.9491L23.1333 21.9491L23.1333 21.9491L23.1333 21.9491L23.1334 21.9491L23.1334 21.9491L23.1334 21.9491C23.2966 22.004 23.4615 22.0595 23.604 22.1486C23.7038 22.2121 23.7945 22.3845 23.7809 22.4978C23.7673 22.6112 23.6403 22.77 23.5315 22.7972C23.3274 22.8516 23.096 22.8607 22.8874 22.829C22.3612 22.7473 21.9077 22.4978 21.4813 22.1622C21.3226 22.4797 21.1729 22.7791 21.0096 23.1011C21.0621 23.1356 21.1121 23.1706 21.161 23.2048L21.161 23.2048C21.2599 23.274 21.3539 23.3398 21.4541 23.3914C22.3476 23.8586 23.2775 24.0355 24.239 23.6363C24.7652 23.4186 25.0555 23.0059 25.0691 22.4207C25.0827 21.8492 24.8106 21.4501 24.298 21.2278C24.0935 21.1394 23.8788 21.0695 23.6643 20.9996L23.6642 20.9995C23.5268 20.9548 23.3894 20.91 23.2548 20.8604L23.1942 20.8379L23.1942 20.8379C23.0316 20.7777 22.8658 20.7163 22.7286 20.6155C22.647 20.5565 22.588 20.3933 22.6016 20.2889C22.6198 20.1982 22.7422 20.0848 22.8375 20.0531ZM26.9152 23.7963H25.7359V19.0973H26.9152V23.7963ZM19.2543 23.8054H20.429V19.0973H19.2543V23.8054ZM44.6227 20.1713C44.0921 19.7087 43.5024 19.4819 42.8039 19.6316C42.3413 19.7268 41.9648 19.9581 41.6745 20.3346C41.1302 21.0467 41.1846 22.0355 41.797 22.6796C42.5363 23.4643 43.5478 23.4824 44.6227 22.734C44.6749 22.793 44.7259 22.8519 44.777 22.9109C44.828 22.9699 44.879 23.0288 44.9312 23.0878C44.1465 23.9587 42.5907 24.1492 41.5475 23.233C40.5406 22.3485 40.468 20.7836 41.3887 19.8311C42.3367 18.8514 44.0467 18.8151 44.9357 19.7722C44.8662 19.8574 44.7967 19.9471 44.7227 20.0427C44.6904 20.0844 44.6572 20.1272 44.6227 20.1713ZM60.1804 19.1011H56.5835V19.6228H58.1166V23.7956H58.6654V19.6046H60.1849C60.1804 19.4279 60.1804 19.2692 60.1804 19.1016V19.1011ZM55.7761 23.7995H55.2545V19.0914H55.7761V23.7995ZM30.1264 19.042C28.3711 19.0284 27.2054 20.4662 27.6363 22.1082C27.9039 23.1287 28.8564 23.8272 30.0357 23.8635C31.6913 23.9134 32.8751 22.6071 32.6211 21.006C32.4487 19.863 31.4146 19.0511 30.1264 19.042ZM30.1128 22.852C29.3826 22.8475 28.7839 22.208 28.7884 21.4369C28.7929 20.6613 29.3962 20.0444 30.1355 20.0535C30.8522 20.0626 31.4191 20.6794 31.4191 21.4505C31.4191 22.2261 30.834 22.852 30.1128 22.852ZM47.6471 19.0856C47.7616 19.071 47.8758 19.0564 47.9429 19.2058C48.226 19.8366 48.5083 20.4681 48.7907 21.1001L48.7927 21.1044L48.7929 21.1049C49.1841 21.9802 49.5757 22.8563 49.9704 23.7325C49.9723 23.7403 49.9735 23.749 49.9748 23.7596C49.9766 23.7736 49.9788 23.7909 49.984 23.8141C49.9346 23.8141 49.8856 23.8154 49.837 23.8166C49.7251 23.8195 49.6153 23.8223 49.5077 23.8096C49.4488 23.8005 49.3807 23.737 49.3535 23.6826C49.2129 23.3878 49.0814 23.093 48.9589 22.7936C48.909 22.6757 48.8455 22.6258 48.7094 22.6258C47.9656 22.6303 47.2263 22.6303 46.4869 22.6258C46.3509 22.6212 46.2828 22.6621 46.2329 22.7891C46.184 22.9133 46.1287 23.0339 46.0736 23.1542C46.006 23.3016 45.9386 23.4486 45.8837 23.601C45.8202 23.7688 45.734 23.8459 45.5526 23.8187C45.4847 23.8063 45.4126 23.8087 45.3278 23.8114H45.3278C45.2879 23.8127 45.2452 23.8141 45.1988 23.8141C45.2895 23.6055 45.3711 23.4241 45.4528 23.2426C45.6509 22.7995 45.8495 22.3563 46.0482 21.9132C46.4452 21.0273 46.8423 20.1415 47.2353 19.2557C47.2852 19.1378 47.3487 19.0561 47.4848 19.0879C47.5354 19.0998 47.5913 19.0927 47.6471 19.0856ZM47.0757 20.8707C46.8978 21.2766 46.7224 21.6766 46.5459 22.0815H48.6369C48.4401 21.6455 48.2501 21.2191 48.0587 20.7895C47.9016 20.437 47.7436 20.0823 47.58 19.7184C47.4077 20.1133 47.2406 20.4945 47.0757 20.8707ZM62.6206 19.2696C62.5396 19.0846 62.4226 19.0863 62.2919 19.0882C62.2688 19.0886 62.2453 19.0889 62.2214 19.0882C62.0672 19.0791 61.9493 19.0837 61.8676 19.2742C61.4742 20.1701 61.0736 21.0612 60.6728 21.9527L60.6726 21.953C60.5236 22.2845 60.3745 22.6162 60.2257 22.9481C60.0987 23.2294 59.9762 23.5106 59.8447 23.8145C59.8877 23.8145 59.9276 23.8131 59.9653 23.8118C60.0468 23.809 60.1181 23.8066 60.1894 23.819C60.3799 23.8462 60.4706 23.7691 60.5341 23.5922C60.5891 23.4399 60.6564 23.293 60.724 23.1456L60.7241 23.1454C60.7792 23.0252 60.8345 22.9046 60.8834 22.7803C60.9287 22.6624 60.9922 22.6261 61.1147 22.6261C61.8631 22.6306 62.6115 22.6306 63.3599 22.6261C63.4869 22.6261 63.5504 22.6715 63.5958 22.7849C63.6409 22.8989 63.6906 23.0115 63.7405 23.1243L63.7407 23.1246C63.776 23.2045 63.8114 23.2846 63.8452 23.3654C64.0565 23.8418 64.0584 23.8417 64.5703 23.8108L64.5846 23.8099C64.5898 23.8099 64.5935 23.8084 64.601 23.8054C64.6064 23.8032 64.6139 23.8002 64.6254 23.7963C64.6177 23.7763 64.611 23.7583 64.6048 23.7417C64.5929 23.7096 64.5829 23.6827 64.5709 23.6557C64.3901 23.25 64.2088 22.8449 64.0277 22.4401L64.0237 22.4311C63.5522 21.3775 63.0817 20.3259 62.6206 19.2696ZM61.6882 20.9454L61.6889 20.9437C61.8656 20.542 62.044 20.1364 62.226 19.7187C62.5843 20.5215 62.9245 21.2881 63.2737 22.0773H61.1918C61.3568 21.699 61.5217 21.324 61.6882 20.9454ZM52.6057 19.088C52.7644 19.0926 52.9232 19.1062 53.0774 19.1379C54.3021 19.3738 54.801 20.8434 53.9755 21.7868C53.6398 22.1678 53.1817 22.2948 52.6919 22.313C52.3729 22.3256 52.0518 22.3228 51.7209 22.32C51.5764 22.3188 51.4301 22.3175 51.2812 22.3175V23.7962H50.7415V19.1016C50.7598 19.1002 50.7786 19.0984 50.7976 19.0965C50.8399 19.0924 50.8837 19.088 50.9275 19.088C51.4854 19.0835 52.0478 19.0835 52.6057 19.088ZM51.7842 21.768C52.1582 21.7776 52.5247 21.7869 52.8869 21.746C53.54 21.6689 53.8394 21.2516 53.8167 20.5984C53.7986 20.0587 53.4312 19.6958 52.8053 19.6414C52.559 19.6187 52.3105 19.6192 52.0613 19.6197C51.9616 19.6198 51.8618 19.62 51.762 19.6187H51.2858V21.7596C51.4535 21.7596 51.6196 21.7638 51.7842 21.768Z" fill="white"/>
    </svg>
    