<svg width="16" height="16" viewBox="0 0 16 16" fill="none" xmlns="http://www.w3.org/2000/svg">
    <path d="M8.66948 4.66269H7.33782C7.24927 4.66269 7.16436 4.62752 7.10175 4.56491C7.03914 4.5023 7.00397 4.41739 7.00397 4.32884C7.00397 4.2403 7.03914 4.15539 7.10175 4.09278C7.16436 4.03017 7.24927 3.995 7.33782 3.995H8.66948C8.75802 3.995 8.84293 4.03017 8.90554 4.09278C8.96815 4.15539 9.00332 4.2403 9.00332 4.32884C9.00332 4.41739 8.96815 4.5023 8.90554 4.56491C8.84293 4.62752 8.75802 4.66269 8.66948 4.66269Z" fill="#F6BB42" />
    <path d="M12.6645 11.3229C11.3728 11.322 10.1006 11.0081 8.9567 10.408C7.81283 9.80802 6.8314 8.93974 6.09644 7.87753C5.36147 6.81532 4.89486 5.59083 4.73654 4.30887C4.57823 3.02692 4.73293 1.7257 5.1874 0.516602C3.9379 0.987814 2.82644 1.76469 1.95459 2.77621C1.08275 3.78774 0.478344 5.00165 0.196617 6.307C-0.0851105 7.61234 -0.0351718 8.96748 0.341868 10.2485C0.718908 11.5296 1.41102 12.6957 2.35495 13.6404C3.29888 14.585 4.46451 15.2779 5.74531 15.6559C7.0261 16.0339 8.3812 16.0848 9.68675 15.804C10.9923 15.5232 12.2066 14.9197 13.2188 14.0486C14.231 13.1775 15.0086 12.0666 15.4808 10.8174C14.5802 11.1546 13.6261 11.3259 12.6645 11.3229Z" fill="#FFCE54" />
    <path d="M8.66952 15.3178C7.13027 15.3165 5.62417 14.8705 4.33232 14.0336C3.04047 13.1967 2.01787 12.0044 1.38746 10.6002C0.757046 9.19595 0.54567 7.6395 0.778744 6.118C1.01182 4.59649 1.67942 3.17469 2.70128 2.02356C1.88375 2.74539 1.22269 3.62699 0.758832 4.61402C0.294973 5.60104 0.0381382 6.6726 0.00415414 7.76267C-0.0298299 8.85273 0.159756 9.93821 0.561231 10.9522C0.962706 11.9662 1.56757 12.8873 2.33854 13.6586C3.10951 14.43 4.03027 15.0353 5.04408 15.4373C6.05789 15.8393 7.14327 16.0294 8.23335 15.996C9.32343 15.9625 10.3951 15.7062 11.3824 15.2428C12.3696 14.7795 13.2516 14.1188 13.9738 13.3017C12.5135 14.6027 10.6253 15.3204 8.66952 15.3178Z" fill="#F6BB42" />
    <path fill-rule="evenodd" clip-rule="evenodd" d="M9.9457 0.518164C9.98224 0.462978 10.0016 0.398175 10.0012 0.331989C10.0007 0.244092 9.96556 0.159935 9.90341 0.097782C9.84125 0.0356288 9.7571 0.000494869 9.6692 5.18315e-06C9.60302 -0.000363552 9.53821 0.0189496 9.48303 0.0554911C9.42784 0.0920326 9.38476 0.144153 9.35927 0.205232C9.33377 0.26631 9.327 0.33359 9.33982 0.398523C9.35264 0.463457 9.38448 0.523114 9.43128 0.569915C9.47808 0.616717 9.53773 0.648551 9.60267 0.661373C9.6676 0.674195 9.73488 0.667427 9.79596 0.641927C9.85703 0.616428 9.90915 0.57335 9.9457 0.518164ZM15.9937 3.66117C15.994 3.72727 15.9748 3.792 15.9383 3.84715C15.9018 3.90229 15.8498 3.94537 15.7889 3.97093C15.7279 3.99648 15.6607 4.00336 15.5958 3.99069C15.5309 3.97802 15.4713 3.94637 15.4244 3.89976C15.3775 3.85314 15.3456 3.79366 15.3325 3.72885C15.3195 3.66404 15.326 3.59682 15.3512 3.53571C15.3764 3.4746 15.4192 3.42235 15.4741 3.38558C15.5291 3.34881 15.5937 3.32918 15.6598 3.32918C15.748 3.32918 15.8327 3.3641 15.8952 3.4263C15.9578 3.48851 15.9932 3.57295 15.9937 3.66117ZM11.9424 4.51804C11.9791 4.46314 11.9987 4.3986 11.9987 4.33257C11.9987 4.24403 11.9635 4.15911 11.9009 4.0965C11.8383 4.03389 11.7534 3.99872 11.6648 3.99872C11.5988 3.99872 11.5342 4.0183 11.4793 4.05498C11.4244 4.09167 11.3817 4.14381 11.3564 4.20481C11.3311 4.26581 11.3245 4.33294 11.3374 4.3977C11.3503 4.46246 11.3821 4.52194 11.4288 4.56863C11.4754 4.61532 11.5349 4.64712 11.5997 4.66C11.6645 4.67288 11.7316 4.66627 11.7926 4.641C11.8536 4.61574 11.9057 4.57295 11.9424 4.51804ZM10.2787 7.8472C10.3154 7.7923 10.335 7.72776 10.335 7.66173C10.335 7.57319 10.2998 7.48827 10.2372 7.42566C10.1746 7.36305 10.0897 7.32788 10.0012 7.32788C9.93514 7.32788 9.87059 7.34746 9.81569 7.38414C9.76079 7.42083 9.718 7.47297 9.69273 7.53397C9.66746 7.59497 9.66085 7.6621 9.67373 7.72686C9.68661 7.79162 9.71841 7.85111 9.7651 7.89779C9.81179 7.94448 9.87127 7.97628 9.93603 7.98916C10.0008 8.00204 10.0679 7.99543 10.1289 7.97016C10.1899 7.9449 10.2421 7.90211 10.2787 7.8472Z" fill="#FFCE54" />
    <path d="M8.00366 3.00085C7.91544 3.00135 7.83101 3.03674 7.7688 3.09929C7.70659 3.16185 7.67168 3.24648 7.67168 3.3347V5.33034C7.66825 5.37615 7.67431 5.42218 7.68948 5.46554C7.70466 5.50891 7.72862 5.54867 7.75987 5.58235C7.79112 5.61603 7.82898 5.6429 7.87109 5.66127C7.9132 5.67964 7.95865 5.68912 8.0046 5.68912C8.05054 5.68912 8.09599 5.67964 8.1381 5.66127C8.18021 5.6429 8.21807 5.61603 8.24932 5.58235C8.28057 5.54867 8.30453 5.50891 8.31971 5.46554C8.33488 5.42218 8.34094 5.37615 8.33751 5.33034V3.3347C8.33751 3.24616 8.30234 3.16125 8.23973 3.09864C8.17712 3.03603 8.0922 3.00085 8.00366 3.00085Z" fill="#FFCE54" />
    <path d="M13.6623 6.66199C13.5741 6.66248 13.4897 6.69787 13.4274 6.76043C13.3652 6.82298 13.3303 6.90762 13.3303 6.99584V8.99333C13.3366 9.07732 13.3744 9.15583 13.4362 9.21312C13.4979 9.27041 13.579 9.30224 13.6632 9.30224C13.7475 9.30224 13.8286 9.27041 13.8903 9.21312C13.9521 9.15583 13.9899 9.07732 13.9962 8.99333V6.99584C13.9962 6.90729 13.961 6.82238 13.8984 6.75977C13.8358 6.69716 13.7508 6.66199 13.6623 6.66199Z" fill="#F6BB42" />
    <path d="M14.3281 8.32753H12.9965C12.9125 8.32124 12.834 8.28343 12.7767 8.22169C12.7194 8.15995 12.6876 8.07884 12.6876 7.99461C12.6876 7.91039 12.7194 7.82928 12.7767 7.76754C12.834 7.7058 12.9125 7.66799 12.9965 7.6617H14.3281C14.374 7.65827 14.42 7.66433 14.4634 7.6795C14.5067 7.69468 14.5465 7.71864 14.5802 7.74989C14.6138 7.78114 14.6407 7.81901 14.6591 7.86111C14.6774 7.90322 14.6869 7.94867 14.6869 7.99461C14.6869 8.04056 14.6774 8.08601 14.6591 8.12811C14.6407 8.17022 14.6138 8.20809 14.5802 8.23934C14.5465 8.27059 14.5067 8.29455 14.4634 8.30973C14.42 8.3249 14.374 8.33096 14.3281 8.32753Z" fill="#FFCE54" />
</svg>
    