<svg width="16" height="16" viewBox="0 0 16 16" fill="none" xmlns="http://www.w3.org/2000/svg">
    <path d="M4 8C4 9.06087 4.42143 10.0783 5.17157 10.8284C5.92172 11.5786 6.93913 12 8 12C9.06087 12 10.0783 11.5786 10.8284 10.8284C11.5786 10.0783 12 9.06087 12 8C12 6.93913 11.5786 5.92172 10.8284 5.17157C10.0783 4.42143 9.06087 4 8 4C6.93913 4 5.92172 4.42143 5.17157 5.17157C4.42143 5.92172 4 6.93913 4 8Z" fill="#F9C626" />
    <path d="M8.11969 3.13521H7.76146C7.63033 3.13521 7.52391 3.02782 7.52391 2.89552V1.57306C7.52391 1.44076 7.63033 1.33337 7.76146 1.33337H8.11969C8.25081 1.33337 8.35724 1.44076 8.35724 1.57306V2.89552C8.35724 3.02782 8.25081 3.13521 8.11969 3.13521ZM4.63325 4.37217L4.37987 4.62784C4.28706 4.72148 4.13662 4.72148 4.04397 4.62784L3.11721 3.69273C3.02441 3.59909 3.02441 3.44728 3.11721 3.3538L3.3706 3.09813C3.4634 3.0045 3.61385 3.0045 3.70649 3.09813L4.63325 4.03325C4.72606 4.12688 4.72606 4.27853 4.63325 4.37217ZM3.11911 7.81923V8.18069C3.11911 8.313 3.01269 8.42038 2.88156 8.42038H1.57092C1.4398 8.42038 1.33337 8.313 1.33337 8.18069V7.81923C1.33337 7.68693 1.4398 7.57954 1.57092 7.57954H2.88156C3.01269 7.57954 3.11911 7.68693 3.11911 7.81923ZM4.46412 11.3371L4.7175 11.5928C4.81031 11.6864 4.81031 11.8382 4.7175 11.9317L3.79074 12.8668C3.69794 12.9604 3.54749 12.9604 3.45485 12.8668L3.20146 12.6111C3.10866 12.5175 3.10866 12.3657 3.20146 12.2722L4.12822 11.3371C4.22087 11.2435 4.37131 11.2435 4.46412 11.3371ZM7.8804 12.8649H8.23862C8.36975 12.8649 8.47617 12.9723 8.47617 13.1046V14.427C8.47617 14.5593 8.36975 14.6667 8.23862 14.6667H7.8804C7.74927 14.6667 7.64285 14.5593 7.64285 14.427V13.1046C7.64285 12.9723 7.74927 12.8649 7.8804 12.8649ZM11.3668 11.5077L11.6202 11.2521C11.713 11.1584 11.8635 11.1584 11.9561 11.2521L12.8829 12.1872C12.9757 12.2808 12.9757 12.4326 12.8829 12.5261L12.6295 12.7818C12.5367 12.8754 12.3862 12.8754 12.2936 12.7818L11.3668 11.8467C11.274 11.7532 11.274 11.6014 11.3668 11.5077ZM12.881 8.06068V7.69923C12.881 7.56692 12.9874 7.45954 13.1185 7.45954H14.4292C14.5603 7.45954 14.6667 7.56692 14.6667 7.69923V8.06068C14.6667 8.19299 14.5603 8.30037 14.4292 8.30037H13.1185C12.9874 8.30037 12.881 8.19299 12.881 8.06068ZM11.536 4.54283L11.2826 4.28716C11.1898 4.19352 11.1898 4.04171 11.2826 3.94824L12.2093 3.01312C12.3021 2.91948 12.4526 2.91948 12.5452 3.01312L12.7986 3.26879C12.8914 3.36243 12.8914 3.51424 12.7986 3.60772L11.8719 4.54283C11.7791 4.63647 11.6288 4.63647 11.536 4.54283Z" fill="#F9C626" />
</svg>
    