<svg width="160" height="110" viewBox="0 0 160 110" fill="none" xmlns="http://www.w3.org/2000/svg">
    <g style="mix-blend-mode:darken">
        <path fill-rule="evenodd" clip-rule="evenodd" d="M150.799 37.2252L150.799 37.2239L150.762 37.1126C145.868 22.555 139.751 4.43217 112.123 0.470904C87.4517 -2.99521 57.071 12.7508 48.8132 45.1342C47.7937 49.1945 47.182 52.9577 47.08 56.6219V56.7209C47.08 56.919 44.9391 74.6457 28.4234 78.2108C4.26161 83.3605 -0.733871 99.7997 0.0817184 107.722C0.183667 109.01 1.3051 110 2.63043 110H139.551C140.367 110 141.448 109.808 141.957 109.214C142.467 108.62 142.304 107.722 142.1 107.029C142.1 107.025 142.095 106.998 142.087 106.95C141.912 105.898 140.041 94.7124 146.378 87.4208C154.534 77.9137 160.345 60.7812 153.82 45.5303C152.712 42.987 151.804 40.2505 150.799 37.2252ZM136.489 104.256L5.17915 104.85C5.68889 98.0171 11.0922 87.0246 29.4429 83.0634C39.4339 80.8847 45.143 74.5466 48.3034 68.7038C49.221 71.8728 50.6482 74.7447 52.5853 77.2205C58.0905 84.4498 67.2658 88.5101 79.8055 89.3024C81.2328 89.4014 82.4562 88.3121 82.5581 86.9256C82.6601 85.5392 81.5387 84.3508 80.1114 84.2517H79.4997C71.0579 81.8463 71.0975 79.0788 71.1464 75.6659C71.186 72.8963 71.2318 69.7018 66.7561 65.9309C62.3723 62.1677 52.2794 52.7597 53.8086 46.4216C61.2509 16.8111 88.879 2.35251 111.308 5.52153C124.051 7.3041 131.595 12.4537 136.489 18.8908C133.023 18.9898 130.27 21.7627 130.27 25.1298C130.27 28.5959 133.125 31.3688 136.693 31.3688C138.936 31.3688 140.873 30.2794 141.994 28.5959C143.421 31.963 144.645 35.4291 145.766 38.7962C146.786 41.8662 147.805 44.8371 148.927 47.61C155.553 62.9599 147.397 78.3098 142.198 84.3508C136.387 90.9859 136.183 99.7007 136.489 104.256ZM127.517 31.765C126.498 29.4872 125.172 27.3085 123.133 25.625C121.4 24.2386 119.463 23.5454 117.22 23.9415C115.589 24.2386 114.162 25.1298 112.939 26.2192C111.104 28.0018 109.88 30.2795 108.861 32.6563C107.433 36.2214 106.822 39.8856 106.72 43.6488C106.618 45.5304 106.72 47.412 107.128 49.1946C107.841 52.5616 108.963 55.7307 110.288 58.8997C112.429 63.8513 115.08 68.5058 118.036 72.9622C118.24 73.2593 118.342 73.3583 118.546 72.9622C119.871 70.9816 121.094 69.0009 122.318 66.9212C124.663 62.8609 126.702 58.8006 128.231 54.4432C129.352 51.2742 130.168 48.0062 130.066 44.342C130.066 43.4507 129.964 42.2623 129.862 41.173C129.556 38.004 128.843 34.835 127.517 31.765ZM97.9524 25.0305C97.9524 28.4762 95.0769 31.2695 91.5297 31.2695C87.9825 31.2695 85.1069 28.4762 85.1069 25.0305C85.1069 21.5848 87.9825 18.7915 91.5297 18.7915C95.0769 18.7915 97.9524 21.5848 97.9524 25.0305Z" fill="#FFFF00" />
    </g>
    <g style="mix-blend-mode:darken">
        <path fill-rule="evenodd" clip-rule="evenodd" d="M155.46 45.5303C154.353 42.9868 153.444 40.25 152.44 37.2244L152.403 37.1126C147.511 22.555 141.395 4.43217 113.775 0.470904C89.1107 -2.99521 58.7388 12.7508 50.4833 45.1342C49.4641 49.1945 48.8526 52.9577 48.7507 56.6219V56.7209C48.7507 56.919 46.6104 74.6457 30.0995 78.2108C5.94459 83.3605 0.950544 99.7997 1.7659 107.722C1.86782 109.01 2.98893 110 4.31388 110H141.116C141.931 110 142.645 109.703 143.154 109.109C143.664 108.515 143.868 107.722 143.664 107.029C143.664 107.025 143.66 106.999 143.652 106.952C143.485 105.913 141.681 94.7173 148.02 87.4208C156.174 77.9137 162.085 60.7812 155.46 45.5303ZM138.236 104.256L6.96378 104.85C7.47338 98.0171 12.8751 87.0246 31.2206 83.0634C41.2087 80.8847 46.8142 74.6457 50.0757 68.8028C50.1266 68.9513 50.2031 69.0999 50.2795 69.2484C50.3559 69.397 50.4324 69.5455 50.4833 69.6941C51.4006 72.467 52.7256 74.9428 54.3563 77.2205C59.8599 84.4498 69.0327 88.5101 81.5687 89.3024C82.9956 89.4014 84.2186 88.3121 84.3205 86.9256C84.4225 85.5392 83.3014 84.3508 81.8745 84.2517C78.6131 84.0537 75.5555 83.6576 72.9056 82.9643C68.3192 81.4789 66.077 79.1021 64.6501 77.2205C62.2636 74.0024 62.5071 71.8925 62.8448 68.967C63.2137 65.7706 63.695 61.6007 60.981 53.948C57.7196 44.6391 70.2557 2.05542 113.062 5.52153C125.904 6.51185 133.344 12.4537 138.236 18.8908C134.771 18.9898 132.019 21.7627 132.019 25.1298C132.019 28.5959 134.873 31.3688 138.44 31.3688C140.682 31.3688 142.618 30.2794 143.74 28.5959C145.166 31.963 146.389 35.4291 147.511 38.7962C148.53 41.8662 149.549 44.8371 150.67 47.61C157.295 62.9599 149.141 78.3098 143.943 84.3508C138.134 90.9859 137.828 99.7007 138.236 104.256ZM129.165 31.765C128.146 29.4872 126.821 27.3085 124.782 25.625C123.05 24.2386 121.113 23.5454 118.871 23.9415C117.24 24.2386 115.813 25.1298 114.59 26.2192C112.756 28.0018 111.533 30.2795 110.514 32.6563C109.087 36.2214 108.475 39.8856 108.373 43.6488C108.271 45.5304 108.373 47.412 108.781 49.1946C109.494 52.5616 110.616 55.7307 111.94 58.8997C114.081 63.8513 116.731 68.5058 119.686 72.9622C119.89 73.2593 119.992 73.3583 120.196 72.9622C121.521 70.9816 122.744 69.0009 123.967 66.9212C126.311 62.8609 128.349 58.8006 129.878 54.4432C130.999 51.2742 131.815 48.0062 131.713 44.342C131.713 43.4507 131.611 42.2623 131.509 41.173C131.203 38.004 130.49 34.835 129.165 31.765ZM99.7102 25.0305C99.7102 28.4762 96.8355 31.2695 93.2893 31.2695C89.7432 31.2695 86.8684 28.4762 86.8684 25.0305C86.8684 21.5848 89.7432 18.7915 93.2893 18.7915C96.8355 18.7915 99.7102 21.5848 99.7102 25.0305Z" fill="#00AEEF" />
    </g>
    <g style="mix-blend-mode:darken">
        <path fill-rule="evenodd" clip-rule="evenodd" d="M154.168 37.2252L154.167 37.2239L154.13 37.1126C149.237 22.555 143.12 4.43217 115.492 0.470904C90.8201 -2.99521 60.4394 12.7508 52.1816 45.1342C51.1621 49.1945 50.5504 52.9577 50.4484 56.6219V56.7209C50.4484 56.919 48.3075 74.6457 31.7918 78.2108C7.63002 83.3605 2.63454 99.7997 3.45013 107.722C3.55208 109.01 4.67351 110 5.99884 110H142.833C143.649 110 144.343 109.63 144.853 109.036C145.363 108.442 145.566 107.029 145.363 106.336C145.363 106.857 143.12 95.0462 149.746 87.4208C157.902 77.9137 163.713 60.7812 157.189 45.5303C156.081 42.987 155.172 40.2505 154.168 37.2252ZM139.857 104.256L8.54756 104.85C9.0573 98.0171 14.4606 87.0246 32.8113 83.0634C42.8023 80.8847 48.5114 74.5466 51.6718 68.7038C52.5894 71.8728 54.0166 74.7447 55.9537 77.2205C60.5413 83.3605 67.7797 87.1237 77.4648 88.6091C79.9116 89.1043 82.1544 89.3024 84.0915 89.3024C87.8636 89.3024 86.946 77.8147 76.7512 77.6166C67.6777 77.4185 56.9731 74.6457 55.6478 59.1967C55.6478 57.6122 55.6478 56.0277 55.8517 54.3442C56.1576 51.7693 56.5654 49.0955 57.279 46.3226C64.7212 16.7121 92.3493 2.25347 114.778 5.42249C127.522 7.20506 135.066 12.3547 139.959 18.7918C136.493 18.8908 133.74 21.6637 133.74 25.0308C133.74 28.4969 136.595 31.2698 140.163 31.2698C142.406 31.2698 144.343 30.1804 145.465 28.4969C146.892 31.864 148.115 35.3301 149.237 38.6972C150.256 41.7671 151.276 44.7381 152.397 47.511C159.024 62.8609 150.868 78.2108 145.668 84.2517C139.755 90.9859 139.45 99.7007 139.857 104.256ZM130.886 31.765C129.867 29.4872 128.541 27.3085 126.502 25.625C124.769 24.2386 122.832 23.5454 120.589 23.9415C118.958 24.2386 117.531 25.1298 116.307 26.2192C114.472 28.0018 113.249 30.2795 112.229 32.6563C110.802 36.2214 110.191 39.8856 110.089 43.6488C109.987 45.5304 110.089 47.412 110.496 49.1946C111.21 52.5616 112.331 55.7307 113.657 58.8997C115.798 63.8513 118.448 68.5058 121.405 72.9622C121.609 73.2593 121.711 73.3583 121.915 72.9622C123.24 70.9816 124.463 69.0009 125.687 66.9212C128.032 62.8609 130.07 58.8006 131.6 54.4432C132.721 51.2742 133.537 48.0062 133.435 44.342C133.435 43.4507 133.333 42.2623 133.231 41.173C132.925 38.004 132.211 34.835 130.886 31.765ZM101.321 25.0305C101.321 28.4762 98.4453 31.2695 94.8981 31.2695C91.3509 31.2695 88.4753 28.4762 88.4753 25.0305C88.4753 21.5848 91.3509 18.7915 94.8981 18.7915C98.4453 18.7915 101.321 21.5848 101.321 25.0305Z" fill="#FF00FF" />
    </g>
    <path fill-rule="evenodd" clip-rule="evenodd" d="M139.551 110C140.367 110 141.448 109.809 141.957 109.214C142.467 108.62 142.304 107.722 142.1 107.029C142.1 107.027 142.099 107.02 142.097 107.007L142.087 106.95C141.912 105.898 140.041 94.7125 146.378 87.4208C154.534 77.9138 160.345 60.7813 153.82 45.5304C152.712 42.9871 151.804 40.2505 150.799 37.2253L150.799 37.224L150.762 37.1127C145.868 22.555 139.751 4.43223 112.123 0.470961C110.428 0.232733 108.705 0.085261 106.964 0.02771C84.2473 0.769114 59.5079 16.404 52.1816 45.1343C51.1621 49.1946 50.5504 52.9578 50.4484 56.622V56.721C50.4484 56.9191 48.3075 74.6457 31.7918 78.2109C7.63002 83.3605 2.63454 99.7998 3.45013 107.722C3.55208 109.01 4.67351 110 5.99884 110H139.551ZM8.54756 104.85L139.857 104.256C139.45 99.7008 139.755 90.986 145.668 84.2518C150.868 78.2109 159.024 62.8609 152.397 47.511C151.276 44.7381 150.256 41.7672 149.237 38.6972C148.115 35.3301 146.892 31.864 145.465 28.497C145.129 29.0003 144.721 29.4505 144.254 29.8344C144.085 29.4203 143.914 29.0074 143.74 28.596C143.408 29.094 143.005 29.54 142.544 29.9212C142.364 29.4781 142.181 29.0362 141.994 28.596C141.208 29.7755 140.022 30.6634 138.611 31.0893C135.802 30.4214 133.74 27.9764 133.74 25.0308C133.74 21.6638 136.493 18.8909 139.959 18.7918C135.066 12.3548 127.522 7.20512 114.778 5.42255C111.763 4.9965 108.653 4.88907 105.512 5.09422C84.3434 4.91067 60.6205 19.3193 53.8086 46.4217C53.2563 48.7109 54.2201 51.4005 55.8834 54.08C55.8727 54.1682 55.8622 54.2563 55.8517 54.3442C55.6478 56.0278 55.6478 57.6123 55.6478 59.1968C56.2891 66.6719 59.1263 71.1793 62.912 73.8633C63.1943 74.8905 63.7243 75.9721 64.6501 77.2206C66.077 79.1021 68.3192 81.4789 72.9056 82.9644C74.6327 83.4162 76.533 83.7418 78.55 83.9687C78.854 84.0636 79.1704 84.158 79.4997 84.2518H80.1114C81.5386 84.3508 82.6601 85.5392 82.5581 86.9257C82.484 87.9333 81.8176 88.784 80.9111 89.1356C79.8196 89.024 78.6668 88.8525 77.4648 88.6092C67.7797 87.1237 60.5413 83.3605 55.9537 77.2206C54.0166 74.7448 52.5894 71.8728 51.6718 68.7038C51.3751 69.2523 51.056 69.8052 50.7129 70.3586C50.6338 70.139 50.5572 69.9175 50.4833 69.6941C50.4324 69.5456 50.3559 69.397 50.2795 69.2485C50.203 69.0999 50.1266 68.9514 50.0756 68.8029C49.729 69.4238 49.356 70.0492 48.954 70.6737C48.7143 70.031 48.4975 69.3741 48.3034 68.7038C45.143 74.5467 39.4339 80.8847 29.4429 83.0634C11.0922 87.0247 5.68888 98.0172 5.17914 104.85L6.96438 104.842L6.96378 104.85L8.54809 104.843C8.54791 104.846 8.54773 104.848 8.54756 104.85ZM120.119 24.0447C118.682 24.4138 117.412 25.2358 116.307 26.2193C114.472 28.0018 113.249 30.2796 112.229 32.6563C110.802 36.2215 110.191 39.8856 110.089 43.6488C109.987 45.5304 110.089 47.4121 110.496 49.1946C111.21 52.5617 112.331 55.7307 113.657 58.8997C115.448 63.0415 117.595 66.9754 119.98 70.7594C120.776 69.5029 121.547 68.2317 122.318 66.9213C124.663 62.861 126.702 58.8007 128.231 54.4433C129.352 51.2743 130.168 48.0063 130.066 44.3421C130.066 43.4508 129.964 42.2624 129.862 41.173C129.556 38.004 128.843 34.835 127.517 31.765C126.498 29.4873 125.172 27.3086 123.133 25.6251C122.194 24.8736 121.195 24.3258 120.119 24.0447ZM93.2139 31.0528C90.4836 30.334 88.4753 27.9101 88.4753 25.0305C88.4753 22.1509 90.4836 19.727 93.2139 19.0082C95.9441 19.727 97.9524 22.1509 97.9524 25.0305C97.9524 27.9101 95.9441 30.334 93.2139 31.0528Z" fill="white" />
</svg>