<svg width="154" height="48" viewBox="0 0 154 48" fill="none" xmlns="http://www.w3.org/2000/svg">
    <path d="M20.0013 44C31.0477 44 40.0025 35.0457 40.0025 24C40.0025 12.9543 31.0477 4 20.0013 4C8.95487 4 0 12.9543 0 24C0 35.0457 8.95487 44 20.0013 44Z" fill="white" />
    <path fill-rule="evenodd" clip-rule="evenodd" d="M20.0013 42.7185C30.34 42.7185 38.721 34.3378 38.721 24C38.721 13.6621 30.34 5.28153 20.0013 5.28153C9.66256 5.28153 1.28153 13.6621 1.28153 24C1.28153 34.3378 9.66256 42.7185 20.0013 42.7185ZM40.0025 24C40.0025 35.0457 31.0477 44 20.0013 44C8.95487 44 0 35.0457 0 24C0 12.9543 8.95487 4 20.0013 4C31.0477 4 40.0025 12.9543 40.0025 24Z" fill="black" />
    <mask id="mask0" mask-type="alpha" maskUnits="userSpaceOnUse" x="0" y="4" width="41" height="40">
        <path d="M20.0013 44C31.0477 44 40.0025 35.0457 40.0025 24C40.0025 12.9543 31.0477 4 20.0013 4C8.95487 4 0 12.9543 0 24C0 35.0457 8.95487 44 20.0013 44Z" fill="white" />
    </mask>
    <g mask="url(#mask0)">
        <g style="mix-blend-mode:darken">
            <path d="M34.4807 20.6966C34.1877 20.0167 33.9479 19.2846 33.6816 18.474C32.403 14.6302 30.8047 9.84507 23.5858 8.79914C17.1394 7.88396 9.20132 12.0415 7.04365 20.592C6.77727 21.664 6.61744 22.6577 6.5908 23.6251C6.5908 23.6251 6.5908 23.6251 6.5908 23.6513C6.5908 23.7036 6.03141 28.3841 1.71606 29.3254C-4.59713 30.6851 -5.90238 43.5693 -5.68928 45.6611C-5.66264 46.001 -5.36963 46.2625 -5.02333 46.2625H30.7524C30.9655 46.2625 31.2479 46.2119 31.3811 46.055C31.5143 45.8982 31.4716 45.6611 31.4183 45.4781C31.4183 45.4519 30.8047 33.7706 32.5361 31.7572C34.6672 29.247 36.1855 24.7234 34.4807 20.6966ZM29.9523 44.7459L-4.35738 44.9028C-4.22419 43.0986 -2.81238 31.6526 1.98244 30.6067C4.59296 30.0314 6.08468 28.358 6.91046 26.8152C7.1502 27.652 7.52313 28.4103 8.02925 29.064C9.4677 30.9728 11.8651 32.0449 15.1416 32.254C15.5145 32.2802 15.8342 31.9926 15.8608 31.6265C15.8874 31.2604 15.5944 30.9466 15.2215 30.9205C15.1682 30.9205 15.1149 30.9205 15.0617 30.9205C11.066 29.77 14.3424 28.3057 11.7319 26.0831C10.5865 25.0894 7.94934 22.6054 8.34891 20.9319C10.2935 13.1136 17.5124 9.29596 23.3727 10.1327C26.7024 10.6034 28.6736 11.9631 29.9523 13.6627C29.0466 13.6888 28.3273 14.421 28.3273 15.31C28.3273 16.2252 29.0732 16.9574 30.0055 16.9574C30.5916 16.9574 31.0977 16.6697 31.3907 16.2252C31.7636 17.1143 32.0833 18.0294 32.3763 18.9185C32.6427 19.7291 32.9091 20.5135 33.2021 21.2457C34.9336 25.2986 32.8025 29.3516 31.444 30.9466C29.9256 32.6986 29.8723 43.5431 29.9523 44.7459Z" fill="#FFFF00" />
            <path d="M27.6079 17.0617C27.3416 16.4603 26.9953 15.885 26.4625 15.4405C26.0097 15.0744 25.5036 14.8914 24.9175 14.996C24.4913 15.0744 24.1184 15.3098 23.7987 15.5974C23.3192 16.0681 22.9996 16.6695 22.7332 17.297C22.3603 18.2384 22.2005 19.2058 22.1738 20.1995C22.1472 20.6963 22.1738 21.1931 22.2804 21.6638C22.4668 22.5528 22.7599 23.3895 23.1061 24.2263C23.6655 25.5337 24.3581 26.7627 25.1306 27.9393C25.1839 28.0178 25.2105 28.0439 25.2638 27.9393C25.6101 27.4164 25.9298 26.8934 26.2494 26.3443C26.8621 25.2722 27.3948 24.2001 27.7944 23.0496C28.0874 22.2129 28.3005 21.35 28.2739 20.3825C28.2739 20.1472 28.2473 19.8334 28.2206 19.5458C28.1407 18.709 27.9542 17.8723 27.6079 17.0617Z" fill="#FFFF00" />
            <path d="M18.2048 16.9309C19.1317 16.9309 19.883 16.1934 19.883 15.2836C19.883 14.3738 19.1317 13.6362 18.2048 13.6362C17.278 13.6362 16.5266 14.3738 16.5266 15.2836C16.5266 16.1934 17.278 16.9309 18.2048 16.9309Z" fill="#FFFF00" />
        </g>
        <g style="mix-blend-mode:darken">
            <path d="M34.4692 20.6966C34.1762 20.0167 33.9366 19.2846 33.6703 18.474C32.392 14.6302 30.7942 9.84507 23.5774 8.79914C17.1329 7.88396 9.19704 12.0415 7.03998 20.592C6.77368 21.664 6.6139 22.6577 6.58727 23.6251C6.58727 23.6251 6.58727 23.6251 6.58727 23.6513C6.58727 23.7036 6.02803 28.3841 1.71393 29.3254C-4.59745 30.6851 -5.90233 43.5693 -5.68929 45.6611C-5.66266 46.001 -5.36972 46.2625 -5.02353 46.2625H30.7212C30.9343 46.2625 31.1207 46.1841 31.2538 46.0272C31.387 45.8703 31.4402 45.6611 31.387 45.4781C31.387 45.4519 30.7942 33.7706 32.5252 31.7572C34.6556 29.247 36.2001 24.7234 34.4692 20.6966ZM29.9686 44.7459L-4.33114 44.9028C-4.19799 43.0986 -2.78659 31.6526 2.00686 30.6067C4.61663 30.0314 6.08129 28.3841 6.93346 26.8414C6.96009 26.9198 7.01335 26.9983 7.03998 27.0767C7.27966 27.8088 7.62585 28.4626 8.05193 29.064C9.48997 30.9728 11.8867 32.0449 15.1622 32.254C15.535 32.2802 15.8546 31.9926 15.8812 31.6265C15.9079 31.2604 15.6149 30.9466 15.2421 30.9205C14.3899 30.8682 13.591 30.7636 12.8986 30.5806C11.7003 30.1883 11.1144 29.5608 10.7416 29.064C9.43671 27.2859 11.141 26.7891 9.7829 22.9191C8.93073 20.4612 12.2063 9.21751 23.391 10.1327C26.7464 10.3942 28.6904 11.9631 29.9686 13.6627C29.0632 13.6888 28.3442 14.421 28.3442 15.31C28.3442 16.2252 29.0898 16.9574 30.0219 16.9574C30.6078 16.9574 31.1137 16.6697 31.4067 16.2252C31.7795 17.1143 32.0991 18.0294 32.392 18.9185C32.6583 19.7291 32.9246 20.5135 33.2175 21.2457C34.9485 25.2986 32.8181 29.3516 31.4599 30.9466C29.942 32.6986 29.8621 43.5431 29.9686 44.7459Z" fill="#00AEEF" />
            <path d="M27.5985 17.0617C27.3321 16.4603 26.986 15.885 26.4534 15.4405C26.0006 15.0744 25.4947 14.8914 24.9088 14.996C24.4827 15.0744 24.1099 15.3098 23.7903 15.5974C23.311 16.0681 22.9914 16.6695 22.7251 17.297C22.3523 18.2384 22.1925 19.2058 22.1659 20.1995C22.1393 20.6963 22.1659 21.1931 22.2724 21.6638C22.4588 22.5528 22.7518 23.3895 23.0979 24.2263C23.6572 25.5337 24.3496 26.7627 25.1218 27.9393C25.1751 28.0178 25.2017 28.0439 25.255 27.9393C25.6012 27.4164 25.9207 26.8934 26.2403 26.3443C26.8528 25.2722 27.3854 24.2001 27.7849 23.0496C28.0778 22.2129 28.2908 21.35 28.2642 20.3825C28.2642 20.1472 28.2376 19.8334 28.2109 19.5458C28.1311 18.709 27.9446 17.8723 27.5985 17.0617Z" fill="#00AEEF" />
            <path d="M18.2245 16.9309C19.1511 16.9309 19.9022 16.1934 19.9022 15.2836C19.9022 14.3738 19.1511 13.6362 18.2245 13.6362C17.2979 13.6362 16.5468 14.3738 16.5468 15.2836C16.5468 16.1934 17.2979 16.9309 18.2245 16.9309Z" fill="#00AEEF" />
        </g>
        <g style="mix-blend-mode:darken">
            <path d="M34.4807 20.6966C34.1877 20.0167 33.9479 19.2846 33.6816 18.474C32.403 14.6302 30.8047 9.84507 23.5858 8.79914C17.1394 7.88396 9.20132 12.0415 7.04365 20.592C6.77727 21.664 6.61744 22.6577 6.5908 23.6251C6.5908 23.6251 6.5908 23.6251 6.5908 23.6513C6.5908 23.7036 6.03141 28.3841 1.71606 29.3254C-4.59713 30.6851 -5.90238 43.5693 -5.68928 45.6611C-5.66264 46.001 -5.36963 46.2625 -5.02333 46.2625H30.7297C30.9429 46.2625 31.1243 46.1648 31.2575 46.0079C31.3907 45.851 31.444 45.4781 31.3907 45.295C31.3907 45.4327 30.8047 33.7706 32.5361 31.7572C34.6672 29.247 36.1855 24.7234 34.4807 20.6966ZM29.9523 44.7459L-4.35738 44.9028C-4.22419 43.0986 -2.81238 31.6526 1.98244 30.6067C4.59296 30.0314 6.08468 28.358 6.91046 26.8152C7.1502 27.652 7.52313 28.4103 8.02925 29.064C9.22796 30.6851 11.1192 31.6788 13.6499 32.071C14.2892 32.2017 14.8752 32.254 15.3813 32.254C16.3669 32.254 16.1272 29.2208 13.4634 29.1686C11.0926 29.1163 8.29563 28.3841 7.94933 24.305C7.94933 23.8866 7.94934 23.4683 8.00261 23.0237C8.08253 22.3439 8.18908 21.6379 8.37554 20.9057C10.3201 13.0874 17.539 9.26981 23.3993 10.1065C26.7291 10.5772 28.7003 11.9369 29.9789 13.6365C29.0732 13.6627 28.354 14.3949 28.354 15.2839C28.354 16.1991 29.0998 16.9312 30.0322 16.9312C30.6182 16.9312 31.1243 16.6436 31.4173 16.1991C31.7903 17.0881 32.1099 18.0033 32.4029 18.8923C32.6693 19.7029 32.9357 20.4874 33.2287 21.2195C34.9602 25.2725 32.8292 29.3254 31.4706 30.9205C29.9256 32.6986 29.8457 43.5431 29.9523 44.7459Z" fill="#FF00FF" />
            <path d="M27.6081 17.0617C27.3417 16.4603 26.9954 15.885 26.4627 15.4405C26.0098 15.0744 25.5037 14.8914 24.9177 14.996C24.4915 15.0744 24.1185 15.3098 23.7989 15.5974C23.3194 16.0681 22.9997 16.6695 22.7334 17.297C22.3604 18.2384 22.2006 19.2058 22.174 20.1995C22.1473 20.6963 22.174 21.1931 22.2805 21.6638C22.467 22.5528 22.76 23.3895 23.1063 24.2263C23.6657 25.5337 24.3583 26.7627 25.1308 27.9393C25.1841 28.0178 25.2107 28.0439 25.264 27.9393C25.6103 27.4164 25.9299 26.8934 26.2496 26.3443C26.8622 25.2722 27.395 24.2001 27.7946 23.0496C28.0876 22.2129 28.3007 21.35 28.274 20.3825C28.274 20.1472 28.2474 19.8334 28.2208 19.5458C28.1409 18.709 27.9544 17.8723 27.6081 17.0617Z" fill="#FF00FF" />
            <path d="M18.2048 16.9309C19.1317 16.9309 19.883 16.1934 19.883 15.2836C19.883 14.3738 19.1317 13.6362 18.2048 13.6362C17.278 13.6362 16.5266 14.3738 16.5266 15.2836C16.5266 16.1934 17.278 16.9309 18.2048 16.9309Z" fill="#FF00FF" />
        </g>
    </g>
    <path fill-rule="evenodd" clip-rule="evenodd" d="M68.0631 10.3861C69.0239 10.6344 69.9573 11.0757 70.8083 11.6549C71.6867 12.2341 72.4005 12.9788 72.977 13.9166C73.5535 14.8268 73.8554 15.9576 73.8554 17.2539C73.8554 19.5432 73.1417 21.3636 71.6867 22.7151C70.2318 24.0666 68.1454 24.7561 65.4277 24.7561H61.008V36.2852H64.9336V37.885H57V36.2852H59.4158V11.5997H57V10H65.3728C66.1964 10 67.0748 10.1103 68.0631 10.3861ZM70.8083 21.1705C71.3299 20.5913 71.7142 19.9569 71.9338 19.2674C72.1534 18.5779 72.2632 17.9159 72.2907 17.3091C72.2907 16.5644 72.0985 15.8473 71.7416 15.1578C71.3573 14.4682 70.8632 13.8338 70.2318 13.3098C69.6004 12.7582 68.8317 12.3444 67.9807 12.041C67.1023 11.7376 66.1964 11.5722 65.2081 11.5722H61.008V23.1564H65.1532C66.5532 23.1564 67.7062 22.9909 68.6121 22.6048C69.518 22.2462 70.2592 21.7497 70.8083 21.1705ZM89.3177 22.6525H90.7178V35.9744H93.6551V37.5741H89.1256V35.9744C89.1256 35.8053 89.1327 35.6435 89.1397 35.4851V35.4851V35.4851V35.485V35.485V35.4849V35.4848V35.4847V35.4846C89.1465 35.3331 89.153 35.1848 89.153 35.0366C89.1805 34.7332 89.1805 34.4574 89.1805 34.154C88.9883 34.5953 88.7138 35.0642 88.3295 35.5055C87.9451 35.9468 87.5059 36.3605 86.9569 36.6915C86.4353 37.0225 85.8039 37.2983 85.1176 37.5189C84.4313 37.7396 83.6901 37.8499 82.894 37.8499C81.8234 37.8499 80.8077 37.6568 79.8743 37.2431C78.9135 36.8294 78.0899 36.2778 77.4036 35.5882C76.7173 34.8987 76.1683 34.0712 75.7565 33.1334C75.3447 32.1957 75.1526 31.1752 75.1526 30.0995C75.1526 29.0238 75.3447 28.0309 75.7565 27.0931C76.1683 26.1553 76.7173 25.3554 77.4036 24.6383C78.1174 23.9212 78.9409 23.3696 79.8743 22.9558C80.8077 22.5421 81.8234 22.3491 82.894 22.3491C83.6626 22.3491 84.3764 22.4594 85.0627 22.68C85.7215 22.9007 86.3529 23.2041 86.902 23.5626C87.451 23.9212 87.9177 24.3349 88.302 24.8038C88.6863 25.2727 88.9609 25.7416 89.153 26.1829V26.1828C89.153 25.576 89.153 24.9969 89.2079 24.4177C89.2628 23.8109 89.2903 23.2317 89.3177 22.6525ZM87.2039 34.4849C87.7804 33.9333 88.1922 33.2714 88.5216 32.5267C88.851 31.782 89.0158 30.9821 88.9883 30.1271C88.9883 29.272 88.851 28.4722 88.5216 27.6999C88.1922 26.9276 87.753 26.2656 87.2039 25.714C86.6549 25.1624 85.9961 24.7211 85.2549 24.3901C84.5137 24.0867 83.7176 23.9212 82.8391 23.9212C81.9606 23.9212 81.1371 24.0591 80.3959 24.3901C79.6272 24.7211 78.9958 25.1624 78.4468 25.714C77.8978 26.2932 77.486 26.9276 77.1566 27.6999C76.8546 28.4722 76.6899 29.272 76.6899 30.1271C76.6899 30.9821 76.8271 31.782 77.1566 32.5267C77.486 33.2714 77.8978 33.9333 78.4468 34.4849C78.9958 35.0366 79.6547 35.4779 80.3959 35.8089C81.1645 36.1123 81.9606 36.2778 82.8391 36.2778C83.7176 36.2778 84.5137 36.1398 85.2549 35.8089C85.9961 35.4779 86.6549 35.0366 87.2039 34.4849ZM100.841 26.9398V26.9396C100.841 26.4983 100.841 26.0847 100.813 25.6986C100.786 25.34 100.758 24.9263 100.731 24.4574L100.703 23.0508H96.5306V24.6505H99.3856V36.4002H96.2835V38H103.888V36.4002H100.95V29.8083C100.95 29.036 101.115 28.3188 101.417 27.6569C101.746 26.9949 102.158 26.4157 102.707 25.9468C103.256 25.478 103.888 25.0918 104.629 24.816C105.37 24.5402 106.139 24.3747 106.99 24.3471L107.1 22.7474C105.864 22.775 104.684 23.1611 103.503 23.8782C102.35 24.6229 101.444 25.6434 100.841 26.9398ZM114.429 25.6986C114.457 26.0847 114.457 26.4985 114.457 26.9398C115.088 25.6434 115.966 24.6229 117.119 23.8782C118.3 23.1611 119.48 22.775 120.716 22.7474L120.606 24.3471C119.755 24.3747 118.986 24.5402 118.245 24.816C117.504 25.0918 116.872 25.478 116.323 25.9468C115.774 26.4157 115.363 26.9949 115.033 27.6569C114.731 28.3188 114.566 29.036 114.566 29.8083V36.4002H117.504V38H109.9V36.4002H113.002V24.6505H110.147V23.0508H114.319L114.347 24.4574C114.374 24.9263 114.402 25.34 114.429 25.6986ZM136.885 24.6383C136.171 23.9488 135.348 23.3696 134.387 22.9559C133.426 22.5421 132.41 22.3491 131.34 22.3491C130.269 22.3491 129.253 22.5421 128.32 22.9559C127.387 23.3696 126.563 23.9212 125.877 24.6383C125.163 25.3554 124.614 26.1829 124.202 27.1207C123.79 28.086 123.598 29.079 123.598 30.1546C123.598 31.2303 123.79 32.2508 124.202 33.1886C124.614 34.1264 125.163 34.9538 125.877 35.6434C126.563 36.3329 127.387 36.8845 128.32 37.2983C129.253 37.712 130.269 37.9051 131.34 37.9051C132.41 37.9051 133.426 37.712 134.387 37.2983C135.348 36.8845 136.171 36.3329 136.885 35.6434C137.599 34.9538 138.148 34.1264 138.559 33.1886C138.971 32.2508 139.163 31.2303 139.163 30.1546C139.163 29.1065 138.971 28.086 138.559 27.1207C138.175 26.1829 137.599 25.3554 136.885 24.6383ZM136.967 32.5542C136.638 33.2989 136.199 33.9609 135.649 34.5125C135.1 35.0642 134.442 35.5055 133.673 35.8364C132.904 36.1674 132.108 36.3053 131.257 36.3053C130.406 36.3053 129.61 36.1398 128.869 35.8364C128.128 35.5055 127.469 35.0642 126.92 34.5125C126.371 33.9609 125.932 33.2989 125.602 32.5542C125.273 31.8095 125.135 31.0097 125.135 30.1546C125.135 29.2996 125.3 28.4998 125.602 27.755C125.932 27.0103 126.371 26.3484 126.92 25.7968C127.469 25.2451 128.128 24.7762 128.869 24.4453C129.61 24.1143 130.406 23.9488 131.257 23.9488C132.108 23.9488 132.904 24.1143 133.673 24.4453C134.442 24.7762 135.073 25.2175 135.649 25.7968C136.199 26.3484 136.638 27.0103 136.967 27.755C137.297 28.4998 137.434 29.2996 137.434 30.1546C137.434 31.0097 137.297 31.8095 136.967 32.5542ZM152.122 22.8955V24.4953H147.565V36.245H150.832V37.8172H146V24.4953H142.542V22.8955H146V13.1868H147.565V22.8955H152.122Z" fill="white" />
</svg>
    