<svg width="154" height="48" viewBox="0 0 154 48" fill="none" xmlns="http://www.w3.org/2000/svg">
    <g style="mix-blend-mode:darken">
        <path d="M69.8083 11.6549C68.9573 11.0757 68.0239 10.6344 67.0631 10.3861C66.0748 10.1103 65.1964 10 64.3728 10H56V11.5997H58.4158V36.2852H56V37.885H63.9336V36.2852H60.008V24.7561H64.4277C67.1454 24.7561 69.2318 24.0666 70.6867 22.7151C72.1417 21.3636 72.8554 19.5432 72.8554 17.2539C72.8554 15.9576 72.5534 14.8268 71.977 13.9166C71.373 12.9788 70.6593 12.2341 69.8083 11.6549ZM70.9338 19.2674C70.7142 19.9569 70.3299 20.5913 69.8083 21.1705C69.2592 21.7497 68.518 22.2462 67.6121 22.6048C66.7062 22.9909 65.5532 23.1564 64.1532 23.1564H60.008V11.5722H64.2081C65.1964 11.5722 66.1023 11.7376 66.9807 12.041C67.8317 12.3444 68.6004 12.7582 69.2318 13.3098C69.8632 13.8338 70.3573 14.4682 70.7416 15.1578C71.0985 15.8473 71.2907 16.5644 71.2907 17.3091C71.2632 17.9159 71.1534 18.5779 70.9338 19.2674Z" fill="#FFFF00" />
        <path d="M89.5736 22.6525H88.1461C88.1187 23.2317 88.0912 23.8109 88.0363 24.4177C87.9814 24.997 87.9814 25.5762 87.9814 26.183C87.7892 25.7417 87.5147 25.2728 87.1304 24.8039C86.7461 24.335 86.2794 23.9213 85.7304 23.5627C85.1813 23.2041 84.5499 22.9007 83.8911 22.6801C83.2048 22.4594 82.491 22.3491 81.7224 22.3491C80.6518 22.3491 79.636 22.5422 78.7027 22.9559C77.7693 23.3696 76.9458 23.9213 76.232 24.6384C75.5457 25.3555 74.9967 26.1554 74.5849 27.0931C74.1731 28.0309 73.981 29.0239 73.981 30.0995C73.981 31.1752 74.1731 32.1957 74.5849 33.1335C74.9967 34.0713 75.5457 34.8987 76.232 35.5883C76.9183 36.2778 77.7419 36.8294 78.7027 37.2432C79.636 37.6569 80.6518 37.85 81.7224 37.85C82.5185 37.85 83.2597 37.7396 83.946 37.519C84.6323 37.2983 85.2637 37.0225 85.7853 36.6915C86.3343 36.3606 86.7735 35.9468 87.1578 35.5055C87.5422 35.0642 87.8167 34.5953 88.0089 34.154C88.0089 34.4574 88.0089 34.7332 87.9814 35.0366C87.9814 35.34 87.9539 35.6434 87.9539 35.9744V37.5741H92.4835V35.9744H89.5462V22.6525H89.5736ZM87.35 32.5267C87.0206 33.2714 86.6088 33.9334 86.0323 34.485C85.4833 35.0366 84.8244 35.4779 84.0832 35.8089C83.342 36.1399 82.5459 36.2778 81.6675 36.2778C80.789 36.2778 79.9929 36.1123 79.2243 35.8089C78.4831 35.4779 77.8242 35.0366 77.2752 34.485C76.7261 33.9334 76.3144 33.2714 75.9849 32.5267C75.6555 31.782 75.5183 30.9821 75.5183 30.1271C75.5183 29.2721 75.683 28.4722 75.9849 27.6999C76.3144 26.9277 76.7261 26.2933 77.2752 25.7141C77.8242 25.1624 78.4556 24.7211 79.2243 24.3902C79.9655 24.0592 80.789 23.9213 81.6675 23.9213C82.5459 23.9213 83.342 24.0868 84.0832 24.3902C84.8244 24.7211 85.4833 25.1624 86.0323 25.7141C86.5814 26.2657 87.0206 26.9277 87.35 27.6999C87.6794 28.4722 87.8167 29.2721 87.8167 30.1271C87.8167 30.9821 87.652 31.782 87.35 32.5267Z" fill="#FFFF00" />
        <path d="M99.8404 26.9397C99.8404 26.4984 99.8404 26.0847 99.813 25.6985C99.7855 25.34 99.7581 24.9263 99.7306 24.4574L99.7032 23.0507H95.5305V24.6504H98.3855V36.4002H95.2834V37.9999H102.888V36.4002H99.9503V29.8082C99.9503 29.0359 100.115 28.3188 100.417 27.6568C100.746 26.9949 101.158 26.4157 101.707 25.9468C102.256 25.4779 102.888 25.0917 103.629 24.8159C104.37 24.5401 105.139 24.3746 105.99 24.347L106.099 22.7473C104.864 22.7749 103.684 23.161 102.503 23.8782C101.323 24.6229 100.444 25.6434 99.8404 26.9397Z" fill="#FFFF00" />
        <path d="M113.457 26.9397C113.457 26.4984 113.457 26.0847 113.429 25.6985C113.402 25.34 113.374 24.9263 113.347 24.4574L113.319 23.0507H109.147V24.6504H112.002V36.4002H108.9V37.9999H116.504V36.4002H113.566V29.8082C113.566 29.0359 113.731 28.3188 114.033 27.6568C114.363 26.9949 114.774 26.4157 115.323 25.9468C115.872 25.4779 116.504 25.0917 117.245 24.8159C117.986 24.5401 118.755 24.3746 119.606 24.347L119.716 22.7473C118.48 22.7749 117.3 23.161 116.119 23.8782C114.967 24.6229 114.061 25.6434 113.457 26.9397Z" fill="#FFFF00" />
        <path d="M135.885 24.6384C135.171 23.9488 134.348 23.3696 133.387 22.9559C132.426 22.5422 131.41 22.3491 130.34 22.3491C129.269 22.3491 128.253 22.5422 127.32 22.9559C126.386 23.3696 125.563 23.9213 124.877 24.6384C124.163 25.3555 123.614 26.183 123.202 27.1207C122.79 28.0861 122.598 29.079 122.598 30.1547C122.598 31.2304 122.79 32.2509 123.202 33.1887C123.614 34.1264 124.163 34.9539 124.877 35.6434C125.563 36.333 126.386 36.8846 127.32 37.2983C128.253 37.7121 129.269 37.9051 130.34 37.9051C131.41 37.9051 132.426 37.7121 133.387 37.2983C134.348 36.8846 135.171 36.333 135.885 35.6434C136.599 34.9539 137.148 34.1264 137.559 33.1887C137.971 32.2509 138.163 31.2304 138.163 30.1547C138.163 29.1066 137.971 28.0861 137.559 27.1207C137.148 26.183 136.599 25.3555 135.885 24.6384ZM135.967 32.5543C135.638 33.299 135.199 33.961 134.649 34.5126C134.1 35.0642 133.442 35.5055 132.673 35.8365C131.904 36.1675 131.108 36.3054 130.257 36.3054C129.406 36.3054 128.61 36.1399 127.869 35.8365C127.128 35.5055 126.469 35.0642 125.92 34.5126C125.371 33.961 124.932 33.299 124.602 32.5543C124.273 31.8096 124.135 31.0097 124.135 30.1547C124.135 29.2997 124.3 28.4998 124.602 27.7551C124.932 27.0104 125.371 26.3484 125.92 25.7968C126.469 25.2452 127.128 24.7763 127.869 24.4453C128.61 24.1143 129.406 23.9488 130.257 23.9488C131.108 23.9488 131.904 24.1143 132.673 24.4453C133.442 24.7763 134.073 25.2176 134.649 25.7968C135.199 26.3484 135.638 27.0104 135.967 27.7551C136.297 28.4998 136.434 29.2997 136.434 30.1547C136.434 31.0097 136.269 31.8096 135.967 32.5543Z" fill="#FFFF00" />
        <path d="M151.12 24.4952V22.8955H146.782V13.1868H145.266V22.8955H142V24.4952H145.266V37.8171H149.866V36.245H146.782V24.4952H151.12Z" fill="#FFFF00" />
    </g>
    <g style="mix-blend-mode:darken">
        <path d="M70.2751 11.6549C69.4241 11.0757 68.4907 10.6344 67.5299 10.3861C66.5416 10.1103 65.6632 10 64.8396 10H56.4668V11.5997H58.8826V36.2852H56.4668V37.885H64.4004V36.2852H60.4748V24.7561H64.8945C67.6122 24.7561 69.6986 24.0666 71.1535 22.7151C72.6085 21.3636 73.3222 19.5432 73.3222 17.2539C73.3222 15.9576 73.0203 14.8268 72.4438 13.9166C71.8673 12.9788 71.1535 12.2341 70.2751 11.6549ZM71.4006 19.2674C71.181 19.9569 70.7967 20.5913 70.2751 21.1705C69.726 21.7497 68.9848 22.2462 68.0789 22.6048C67.173 22.9909 66.02 23.1564 64.62 23.1564H60.4748V11.5722H64.6749C65.6632 11.5722 66.5691 11.7376 67.4475 12.041C68.2985 12.3444 69.0672 12.7582 69.6986 13.3098C70.33 13.8338 70.8241 14.4682 71.2084 15.1578C71.5653 15.8473 71.7575 16.5644 71.7575 17.3091C71.73 17.9159 71.6202 18.5779 71.4006 19.2674Z" fill="#00AEEF" />
        <path d="M90.0404 22.6525H88.6129C88.5854 23.2317 88.558 23.8109 88.5031 24.4177C88.4482 24.997 88.4482 25.5762 88.4482 26.183C88.256 25.7417 87.9815 25.2728 87.5972 24.8039C87.2129 24.335 86.7462 23.9213 86.1971 23.5627C85.6481 23.2041 85.0167 22.9007 84.3579 22.6801C83.6716 22.4594 82.9578 22.3491 82.1892 22.3491C81.1185 22.3491 80.1028 22.5422 79.1695 22.9559C78.2361 23.3696 77.4125 23.9213 76.6988 24.6384C76.0125 25.3555 75.4635 26.1554 75.0517 27.0931C74.6399 28.0309 74.4478 29.0239 74.4478 30.0995C74.4478 31.1752 74.6399 32.1957 75.0517 33.1335C75.4635 34.0713 76.0125 34.8987 76.6988 35.5883C77.3851 36.2778 78.2086 36.8294 79.1695 37.2432C80.1028 37.6569 81.1185 37.85 82.1892 37.85C82.9853 37.85 83.7265 37.7396 84.4128 37.519C85.0991 37.2983 85.7305 37.0225 86.252 36.6915C86.8011 36.3606 87.2403 35.9468 87.6246 35.5055C88.009 35.0642 88.2835 34.5953 88.4756 34.154C88.4756 34.4574 88.4756 34.7332 88.4482 35.0366C88.4482 35.34 88.4207 35.6434 88.4207 35.9744V37.5741H92.9503V35.9744H90.0129V22.6525H90.0404ZM87.8168 32.5267C87.4874 33.2714 87.0756 33.9334 86.4991 34.485C85.9501 35.0366 85.2912 35.4779 84.55 35.8089C83.8088 36.1399 83.0127 36.2778 82.1343 36.2778C81.2558 36.2778 80.4597 36.1123 79.6911 35.8089C78.9499 35.4779 78.291 35.0366 77.742 34.485C77.1929 33.9334 76.7812 33.2714 76.4517 32.5267C76.1223 31.782 75.9851 30.9821 75.9851 30.1271C75.9851 29.2721 76.1498 28.4722 76.4517 27.6999C76.7812 26.9277 77.1929 26.2933 77.742 25.7141C78.291 25.1624 78.9224 24.7211 79.6911 24.3902C80.4323 24.0592 81.2558 23.9213 82.1343 23.9213C83.0127 23.9213 83.8088 24.0868 84.55 24.3902C85.2912 24.7211 85.9501 25.1624 86.4991 25.7141C87.0481 26.2657 87.4874 26.9277 87.8168 27.6999C88.1462 28.4722 88.2835 29.2721 88.2835 30.1271C88.3109 30.9821 88.1462 31.782 87.8168 32.5267Z" fill="#00AEEF" />
        <path d="M100.307 26.9397C100.307 26.4984 100.307 26.0847 100.28 25.6985C100.252 25.34 100.225 24.9263 100.197 24.4574L100.17 23.0507H95.9973V24.6504H98.8523V36.4002H95.7502V37.9999H103.354V36.4002H100.417V29.8082C100.417 29.0359 100.582 28.3188 100.884 27.6568C101.213 26.9949 101.625 26.4157 102.174 25.9468C102.723 25.4779 103.354 25.0917 104.096 24.8159C104.837 24.5401 105.605 24.3746 106.456 24.347L106.566 22.7473C105.331 22.7749 104.151 23.161 102.97 23.8782C101.817 24.6229 100.911 25.6434 100.307 26.9397Z" fill="#00AEEF" />
        <path d="M113.923 26.9397C113.923 26.4984 113.923 26.0847 113.896 25.6985C113.869 25.34 113.841 24.9263 113.814 24.4574L113.786 23.0507H109.614V24.6504H112.469V36.4002H109.366V37.9999H116.971V36.4002H114.033V29.8082C114.033 29.0359 114.198 28.3188 114.5 27.6568C114.829 26.9949 115.241 26.4157 115.79 25.9468C116.339 25.4779 116.971 25.0917 117.712 24.8159C118.453 24.5401 119.222 24.3746 120.073 24.347L120.182 22.7473C118.947 22.7749 117.767 23.161 116.586 23.8782C115.433 24.6229 114.555 25.6434 113.923 26.9397Z" fill="#00AEEF" />
        <path d="M136.352 24.6384C135.638 23.9488 134.814 23.3696 133.854 22.9559C132.893 22.5422 131.877 22.3491 130.806 22.3491C129.736 22.3491 128.72 22.5422 127.787 22.9559C126.853 23.3696 126.03 23.9213 125.343 24.6384C124.63 25.3555 124.081 26.183 123.669 27.1207C123.257 28.0861 123.065 29.079 123.065 30.1547C123.065 31.2304 123.257 32.2509 123.669 33.1887C124.081 34.1264 124.63 34.9539 125.343 35.6434C126.03 36.333 126.853 36.8846 127.787 37.2983C128.72 37.7121 129.736 37.9051 130.806 37.9051C131.877 37.9051 132.893 37.7121 133.854 37.2983C134.814 36.8846 135.638 36.333 136.352 35.6434C137.065 34.9539 137.614 34.1264 138.026 33.1887C138.438 32.2509 138.63 31.2304 138.63 30.1547C138.63 29.1066 138.438 28.0861 138.026 27.1207C137.642 26.183 137.065 25.3555 136.352 24.6384ZM136.434 32.5543C136.105 33.299 135.665 33.961 135.116 34.5126C134.567 35.0642 133.908 35.5055 133.14 35.8365C132.371 36.1675 131.575 36.3054 130.724 36.3054C129.873 36.3054 129.077 36.1399 128.336 35.8365C127.594 35.5055 126.936 35.0642 126.387 34.5126C125.838 33.961 125.398 33.299 125.069 32.5543C124.74 31.8096 124.602 31.0097 124.602 30.1547C124.602 29.2997 124.767 28.4998 125.069 27.7551C125.398 27.0104 125.838 26.3484 126.387 25.7968C126.936 25.2452 127.594 24.7763 128.336 24.4453C129.077 24.1143 129.873 23.9488 130.724 23.9488C131.575 23.9488 132.371 24.1143 133.14 24.4453C133.908 24.7763 134.54 25.2176 135.116 25.7968C135.665 26.3484 136.105 27.0104 136.434 27.7551C136.763 28.4998 136.901 29.2997 136.901 30.1547C136.901 31.0097 136.763 31.8096 136.434 32.5543Z" fill="#00AEEF" />
        <path d="M151.591 24.4952V22.8955H147.034V13.1868H145.441V22.8955H142.01V24.4952H145.441V37.8171H150.3V36.245H147.034V24.4952H151.591Z" fill="#00AEEF" />
    </g>
    <g style="mix-blend-mode:darken">
        <path d="M70.6867 11.6549C69.8357 11.0757 68.9023 10.6344 67.9415 10.3861C66.9532 10.1103 66.0748 10 65.2512 10H56.8784V11.5997H59.2942V36.2852H56.8784V37.885H64.812V36.2852H60.8864V24.7561H65.3061C68.0239 24.7561 70.1102 24.0666 71.5652 22.7151C73.0201 21.3636 73.7338 19.5432 73.7338 17.2539C73.7338 15.9576 73.4319 14.8268 72.8554 13.9166C72.2789 12.9788 71.5651 12.2341 70.6867 11.6549ZM71.8122 19.2674C71.5926 19.9569 71.2083 20.5913 70.6867 21.1705C70.1377 21.7497 69.3965 22.2462 68.4905 22.6048C67.5846 22.9909 66.4317 23.1564 65.0316 23.1564H60.8864V11.5722H65.0865C66.0748 11.5722 66.9807 11.7376 67.8592 12.041C68.7102 12.3444 69.4788 12.7582 70.1102 13.3098C70.7416 13.8338 71.2357 14.4682 71.6201 15.1578C71.9769 15.8473 72.1691 16.5644 72.1691 17.3091C72.1416 17.9159 72.0318 18.5779 71.8122 19.2674Z" fill="#FF00FF" />
        <path d="M90.6236 22.6525H89.1962C89.1687 23.2317 89.1412 23.8109 89.0863 24.4177C89.0314 24.997 89.0314 25.5762 89.0314 26.183C88.8393 25.7417 88.5648 25.2728 88.1804 24.8039C87.7961 24.335 87.3294 23.9213 86.7804 23.5627C86.2313 23.2041 85.6 22.9007 84.9411 22.6801C84.2548 22.4594 83.5411 22.3491 82.7724 22.3491C81.7018 22.3491 80.6861 22.5422 79.7527 22.9559C78.8194 23.3696 77.9958 23.9213 77.2821 24.6384C76.5958 25.3555 76.0467 26.1554 75.6349 27.0931C75.2232 28.0309 75.031 29.0239 75.031 30.0995C75.031 31.1752 75.2232 32.1957 75.6349 33.1335C76.0467 34.0713 76.5958 34.8987 77.2821 35.5883C77.9683 36.2778 78.7919 36.8294 79.7527 37.2432C80.6861 37.6569 81.7018 37.85 82.7724 37.85C83.5685 37.85 84.3097 37.7396 84.996 37.519C85.6823 37.2983 86.3137 37.0225 86.8353 36.6915C87.3843 36.3606 87.8236 35.9468 88.2079 35.5055C88.5922 35.0642 88.8667 34.5953 89.0589 34.154C89.0589 34.4574 89.0589 34.7332 89.0314 35.0366C89.0314 35.34 89.004 35.6434 89.004 35.9744V37.5741H93.5335V35.9744H90.5962V22.6525H90.6236ZM88.4 32.5267C88.0706 33.2714 87.6588 33.9334 87.0824 34.485C86.5333 35.0366 85.8745 35.4779 85.1333 35.8089C84.3921 36.1399 83.596 36.2778 82.7175 36.2778C81.8391 36.2778 81.043 36.1123 80.2743 35.8089C79.5331 35.4779 78.8743 35.0366 78.3252 34.485C77.7762 33.9334 77.3644 33.2714 77.035 32.5267C76.7056 31.782 76.5683 30.9821 76.5683 30.1271C76.5683 29.2721 76.733 28.4722 77.035 27.6999C77.3644 26.9277 77.7762 26.2933 78.3252 25.7141C78.8743 25.1624 79.5057 24.7211 80.2743 24.3902C81.0155 24.0592 81.8391 23.9213 82.7175 23.9213C83.596 23.9213 84.3921 24.0868 85.1333 24.3902C85.8745 24.7211 86.5333 25.1624 87.0824 25.7141C87.6314 26.2657 88.0706 26.9277 88.4 27.6999C88.7295 28.4722 88.8667 29.2721 88.8667 30.1271C88.8942 30.9821 88.7295 31.782 88.4 32.5267Z" fill="#FF00FF" />
        <path d="M100.719 26.9397C100.719 26.4984 100.719 26.0847 100.691 25.6985C100.664 25.34 100.637 24.9263 100.609 24.4574L100.582 23.0507H96.4089V24.6504H99.2639V36.4002H96.1619V37.9999H103.766V36.4002H100.829V29.8082C100.829 29.0359 100.993 28.3188 101.295 27.6568C101.625 26.9949 102.037 26.4157 102.586 25.9468C103.135 25.4779 103.766 25.0917 104.507 24.8159C105.248 24.5401 106.017 24.3746 106.868 24.347L106.978 22.7473C105.743 22.7749 104.562 23.161 103.382 23.8782C102.229 24.6229 101.323 25.6434 100.719 26.9397Z" fill="#FF00FF" />
        <path d="M114.335 26.9397C114.335 26.4984 114.335 26.0847 114.308 25.6985C114.28 25.34 114.253 24.9263 114.225 24.4574L114.198 23.0507H110.025V24.6504H112.88V36.4002H109.778V37.9999H117.382V36.4002H114.445V29.8082C114.445 29.0359 114.61 28.3188 114.912 27.6568C115.241 26.9949 115.653 26.4157 116.202 25.9468C116.751 25.4779 117.382 25.0917 118.123 24.8159C118.865 24.5401 119.633 24.3746 120.484 24.347L120.594 22.7473C119.359 22.7749 118.178 23.161 116.998 23.8782C115.845 24.6229 114.966 25.6434 114.335 26.9397Z" fill="#FF00FF" />
        <path d="M136.763 24.6384C136.049 23.9488 135.226 23.3696 134.265 22.9559C133.304 22.5422 132.289 22.3491 131.218 22.3491C130.147 22.3491 129.132 22.5422 128.198 22.9559C127.265 23.3696 126.441 23.9213 125.755 24.6384C125.041 25.3555 124.492 26.183 124.081 27.1207C123.669 28.0861 123.477 29.079 123.477 30.1547C123.477 31.2304 123.669 32.2509 124.081 33.1887C124.492 34.1264 125.041 34.9539 125.755 35.6434C126.441 36.333 127.265 36.8846 128.198 37.2983C129.132 37.7121 130.147 37.9051 131.218 37.9051C132.289 37.9051 133.304 37.7121 134.265 37.2983C135.226 36.8846 136.049 36.333 136.763 35.6434C137.477 34.9539 138.026 34.1264 138.438 33.1887C138.85 32.2509 139.042 31.2304 139.042 30.1547C139.042 29.1066 138.85 28.0861 138.438 27.1207C138.053 26.183 137.477 25.3555 136.763 24.6384ZM136.846 32.5543C136.516 33.299 136.077 33.961 135.528 34.5126C134.979 35.0642 134.32 35.5055 133.551 35.8365C132.783 36.1675 131.987 36.3054 131.136 36.3054C130.285 36.3054 129.489 36.1399 128.747 35.8365C128.006 35.5055 127.347 35.0642 126.798 34.5126C126.249 33.961 125.81 33.299 125.481 32.5543C125.151 31.8096 125.014 31.0097 125.014 30.1547C125.014 29.2997 125.179 28.4998 125.481 27.7551C125.81 27.0104 126.249 26.3484 126.798 25.7968C127.347 25.2452 128.006 24.7763 128.747 24.4453C129.489 24.1143 130.285 23.9488 131.136 23.9488C131.987 23.9488 132.783 24.1143 133.551 24.4453C134.32 24.7763 134.951 25.2176 135.528 25.7968C136.077 26.3484 136.516 27.0104 136.846 27.7551C137.175 28.4998 137.312 29.2997 137.312 30.1547C137.312 31.0097 137.175 31.8096 136.846 32.5543Z" fill="#FF00FF" />
        <path d="M152.001 24.4952V22.8955H147.444V13.1868H145.879V22.8955H142.42V24.4952H145.879V37.8171H150.71V36.245H147.444V24.4952H152.001Z" fill="#FF00FF" />
    </g>
    <path d="M20.0013 44C31.0477 44 40.0025 35.0457 40.0025 24C40.0025 12.9543 31.0477 4 20.0013 4C8.95487 4 0 12.9543 0 24C0 35.0457 8.95487 44 20.0013 44Z" fill="white" />
    <path fill-rule="evenodd" clip-rule="evenodd" d="M20.0013 42.7185C30.34 42.7185 38.721 34.3378 38.721 24C38.721 13.6621 30.34 5.28153 20.0013 5.28153C9.66256 5.28153 1.28153 13.6621 1.28153 24C1.28153 34.3378 9.66256 42.7185 20.0013 42.7185ZM40.0025 24C40.0025 35.0457 31.0477 44 20.0013 44C8.95487 44 0 35.0457 0 24C0 12.9543 8.95487 4 20.0013 4C31.0477 4 40.0025 12.9543 40.0025 24Z" fill="black" />
    <mask id="mask0" mask-type="alpha" maskUnits="userSpaceOnUse" x="0" y="4" width="41" height="40">
        <path d="M20.0013 44C31.0477 44 40.0025 35.0457 40.0025 24C40.0025 12.9543 31.0477 4 20.0013 4C8.95487 4 0 12.9543 0 24C0 35.0457 8.95487 44 20.0013 44Z" fill="white" />
    </mask>
    <g mask="url(#mask0)">
        <g style="mix-blend-mode:darken">
            <path d="M34.4806 20.6966C34.1876 20.0167 33.9479 19.2846 33.6815 18.474C32.4029 14.6302 30.8046 9.84507 23.5857 8.79914C17.1394 7.88396 9.20126 12.0415 7.04359 20.592C6.77721 21.664 6.61738 22.6577 6.59074 23.6251C6.59074 23.6251 6.59074 23.6251 6.59074 23.6513C6.59074 23.7036 6.03135 28.3841 1.716 29.3254C-4.59719 30.6851 -5.90244 43.5693 -5.68934 45.6611C-5.6627 46.001 -5.36969 46.2625 -5.02339 46.2625H30.7523C30.9654 46.2625 31.2478 46.2119 31.381 46.055C31.5142 45.8982 31.4716 45.6611 31.4183 45.4781C31.4183 45.4519 30.8046 33.7706 32.5361 31.7572C34.6671 29.247 36.1855 24.7234 34.4806 20.6966ZM29.9522 44.7459L-4.35745 44.9028C-4.22426 43.0986 -2.81244 31.6526 1.98238 30.6067C4.5929 30.0314 6.08462 28.358 6.9104 26.8152C7.15014 27.652 7.52307 28.4103 8.02919 29.064C9.46764 30.9728 11.865 32.0449 15.1415 32.254C15.5144 32.2802 15.8341 31.9926 15.8607 31.6265C15.8874 31.2604 15.5944 30.9466 15.2214 30.9205C15.1682 30.9205 15.1149 30.9205 15.0616 30.9205C11.0659 29.77 14.3424 28.3057 11.7319 26.0831C10.5864 25.0894 7.94928 22.6054 8.34884 20.9319C10.2934 13.1136 17.5123 9.29596 23.3726 10.1327C26.7024 10.6034 28.6736 11.9631 29.9522 13.6627C29.0465 13.6888 28.3273 14.421 28.3273 15.31C28.3273 16.2252 29.0731 16.9574 30.0055 16.9574C30.5915 16.9574 31.0976 16.6697 31.3906 16.2252C31.7636 17.1143 32.0832 18.0294 32.3763 18.9185C32.6426 19.7291 32.909 20.5135 33.202 21.2457C34.9335 25.2986 32.8025 29.3516 31.4439 30.9466C29.9256 32.6986 29.8723 43.5431 29.9522 44.7459Z" fill="#FFFF00" />
            <path d="M27.6078 17.0619C27.3414 16.4605 26.9951 15.8853 26.4624 15.4407C26.0095 15.0747 25.5034 14.8916 24.9174 14.9962C24.4912 15.0747 24.1182 15.31 23.7986 15.5976C23.3191 16.0683 22.9994 16.6697 22.7331 17.2973C22.3601 18.2386 22.2003 19.2061 22.1737 20.1997C22.147 20.6965 22.1737 21.1933 22.2802 21.664C22.4667 22.553 22.7597 23.3898 23.106 24.2265C23.6654 25.5339 24.358 26.7629 25.1305 27.9396C25.1837 28.018 25.2104 28.0442 25.2637 27.9396C25.61 27.4166 25.9296 26.8936 26.2493 26.3445C26.8619 25.2725 27.3947 24.2004 27.7943 23.0499C28.0873 22.2131 28.3004 21.3502 28.2737 20.3828C28.2737 20.1474 28.2471 19.8336 28.2205 19.546C28.1405 18.7093 27.9541 17.8725 27.6078 17.0619Z" fill="#FFFF00" />
            <path d="M18.2048 16.9311C19.1316 16.9311 19.883 16.1936 19.883 15.2838C19.883 14.374 19.1316 13.6365 18.2048 13.6365C17.278 13.6365 16.5266 14.374 16.5266 15.2838C16.5266 16.1936 17.278 16.9311 18.2048 16.9311Z" fill="#FFFF00" />
        </g>
        <g style="mix-blend-mode:darken">
            <path d="M34.4691 20.6966C34.1762 20.0167 33.9365 19.2846 33.6702 18.474C32.3919 14.6302 30.7941 9.84507 23.5773 8.79914C17.1328 7.88396 9.19697 12.0415 7.03992 20.592C6.77362 21.664 6.61384 22.6577 6.58721 23.6251C6.58721 23.6251 6.58721 23.6251 6.58721 23.6513C6.58721 23.7036 6.02797 28.3841 1.71387 29.3254C-4.59751 30.6851 -5.90239 43.5693 -5.68935 45.6611C-5.66272 46.001 -5.36978 46.2625 -5.02359 46.2625H30.7212C30.9342 46.2625 31.1206 46.1841 31.2538 46.0272C31.3869 45.8703 31.4402 45.6611 31.3869 45.4781C31.3869 45.4519 30.7941 33.7706 32.5251 31.7572C34.6555 29.247 36.2001 24.7234 34.4691 20.6966ZM29.9686 44.7459L-4.3312 44.9028C-4.19805 43.0986 -2.78665 31.6526 2.0068 30.6067C4.61656 30.0314 6.08123 28.3841 6.9334 26.8414C6.96003 26.9198 7.01329 26.9983 7.03992 27.0767C7.2796 27.8088 7.62579 28.4626 8.05187 29.064C9.48991 30.9728 11.8866 32.0449 15.1622 32.254C15.535 32.2802 15.8545 31.9926 15.8812 31.6265C15.9078 31.2604 15.6149 30.9466 15.242 30.9205C14.3899 30.8682 13.591 30.7636 12.8986 30.5806C11.7002 30.1883 11.1144 29.5608 10.7415 29.064C9.43665 27.2859 11.141 26.7891 9.78284 22.9191C8.93067 20.4612 12.2062 9.21751 23.3909 10.1327C26.7463 10.3942 28.6903 11.9631 29.9686 13.6627C29.0632 13.6888 28.3441 14.421 28.3441 15.31C28.3441 16.2252 29.0898 16.9574 30.0218 16.9574C30.6077 16.9574 31.1137 16.6697 31.4066 16.2252C31.7794 17.1143 32.099 18.0294 32.3919 18.9185C32.6582 19.7291 32.9245 20.5135 33.2175 21.2457C34.9484 25.2986 32.818 29.3516 31.4599 30.9466C29.942 32.6986 29.8621 43.5431 29.9686 44.7459Z" fill="#00AEEF" />
            <path d="M27.5984 17.0619C27.3321 16.4605 26.9859 15.8853 26.4533 15.4407C26.0006 15.0747 25.4946 14.8916 24.9088 14.9962C24.4827 15.0747 24.1099 15.31 23.7903 15.5976C23.311 16.0683 22.9914 16.6697 22.7251 17.2973C22.3523 18.2386 22.1925 19.2061 22.1659 20.1997C22.1392 20.6965 22.1659 21.1933 22.2724 21.664C22.4588 22.553 22.7517 23.3898 23.0979 24.2265C23.6571 25.5339 24.3495 26.7629 25.1218 27.9396C25.1751 28.018 25.2017 28.0442 25.255 27.9396C25.6012 27.4166 25.9207 26.8936 26.2403 26.3445C26.8528 25.2725 27.3854 24.2004 27.7848 23.0499C28.0778 22.2131 28.2908 21.3502 28.2642 20.3828C28.2642 20.1474 28.2375 19.8336 28.2109 19.546C28.131 18.7093 27.9446 17.8725 27.5984 17.0619Z" fill="#00AEEF" />
            <path d="M18.2243 16.9311C19.1509 16.9311 19.902 16.1936 19.902 15.2838C19.902 14.374 19.1509 13.6365 18.2243 13.6365C17.2978 13.6365 16.5466 14.374 16.5466 15.2838C16.5466 16.1936 17.2978 16.9311 18.2243 16.9311Z" fill="#00AEEF" />
        </g>
        <g style="mix-blend-mode:darken">
            <path d="M34.4806 20.6966C34.1876 20.0167 33.9479 19.2846 33.6815 18.474C32.4029 14.6302 30.8046 9.84507 23.5857 8.79914C17.1394 7.88396 9.20126 12.0415 7.04359 20.592C6.77721 21.664 6.61738 22.6577 6.59074 23.6251C6.59074 23.6251 6.59074 23.6251 6.59074 23.6513C6.59074 23.7036 6.03134 28.3841 1.716 29.3254C-4.59719 30.6851 -5.90244 43.5693 -5.68934 45.6611C-5.6627 46.001 -5.36969 46.2625 -5.02339 46.2625H30.7297C30.9428 46.2625 31.1243 46.1648 31.2575 46.0079C31.3906 45.851 31.4439 45.4781 31.3906 45.295C31.3906 45.4327 30.8046 33.7706 32.5361 31.7572C34.6671 29.247 36.1855 24.7234 34.4806 20.6966ZM29.9522 44.7459L-4.35745 44.9028C-4.22426 43.0986 -2.81244 31.6526 1.98238 30.6067C4.5929 30.0314 6.08462 28.358 6.9104 26.8152C7.15014 27.652 7.52307 28.4103 8.02919 29.064C9.2279 30.6851 11.1192 31.6788 13.6498 32.071C14.2891 32.2017 14.8751 32.254 15.3813 32.254C16.3669 32.254 16.1271 29.2208 13.4633 29.1686C11.0926 29.1163 8.29557 28.3841 7.94927 24.305C7.94927 23.8866 7.94928 23.4683 8.00255 23.0237C8.08247 22.3439 8.18902 21.6379 8.37548 20.9057C10.3201 13.0874 17.5389 9.26981 23.3993 10.1065C26.729 10.5772 28.7002 11.9369 29.9788 13.6365C29.0731 13.6627 28.3539 14.3949 28.3539 15.2839C28.3539 16.1991 29.0998 16.9312 30.0321 16.9312C30.6181 16.9312 31.1243 16.6436 31.4173 16.1991C31.7902 17.0881 32.1099 18.0033 32.4029 18.8923C32.6693 19.7029 32.9356 20.4874 33.2287 21.2195C34.9601 25.2725 32.8291 29.3254 31.4706 30.9205C29.9256 32.6986 29.8456 43.5431 29.9522 44.7459Z" fill="#FF00FF" />
            <path d="M27.608 17.0619C27.3417 16.4605 26.9954 15.8853 26.4626 15.4407C26.0098 15.0747 25.5037 14.8916 24.9176 14.9962C24.4914 15.0747 24.1185 15.31 23.7988 15.5976C23.3193 16.0683 22.9997 16.6697 22.7333 17.2973C22.3604 18.2386 22.2006 19.2061 22.1739 20.1997C22.1473 20.6965 22.1739 21.1933 22.2805 21.664C22.4669 22.553 22.7599 23.3898 23.1062 24.2265C23.6656 25.5339 24.3582 26.7629 25.1307 27.9396C25.184 28.018 25.2106 28.0442 25.2639 27.9396C25.6102 27.4166 25.9299 26.8936 26.2495 26.3445C26.8622 25.2725 27.3949 24.2004 27.7945 23.0499C28.0875 22.2131 28.3006 21.3502 28.274 20.3828C28.274 20.1474 28.2474 19.8336 28.2207 19.546C28.1408 18.7093 27.9543 17.8725 27.608 17.0619Z" fill="#FF00FF" />
            <path d="M18.2048 16.9311C19.1316 16.9311 19.883 16.1936 19.883 15.2838C19.883 14.374 19.1316 13.6365 18.2048 13.6365C17.278 13.6365 16.5266 14.374 16.5266 15.2838C16.5266 16.1936 17.278 16.9311 18.2048 16.9311Z" fill="#FF00FF" />
        </g>
    </g>
</svg>
    