<svg width="188" height="188" viewBox="0 0 188 188" fill="none" xmlns="http://www.w3.org/2000/svg">
<path d="M93.9932 187.638C145.712 187.638 187.637 145.715 187.637 93.9999C187.637 42.2849 145.712 0.361572 93.9932 0.361572C42.2749 0.361572 0.348877 42.2849 0.348877 93.9999C0.348877 145.715 42.2749 187.638 93.9932 187.638Z" fill="white"/>
<path fill-rule="evenodd" clip-rule="evenodd" d="M93.9932 181.638C142.398 181.638 181.637 142.401 181.637 93.9999C181.637 45.599 142.398 6.36157 93.9932 6.36157C45.5882 6.36157 6.34888 45.599 6.34888 93.9999C6.34888 142.401 45.5882 181.638 93.9932 181.638ZM187.637 93.9999C187.637 145.715 145.712 187.638 93.9932 187.638C42.2749 187.638 0.348877 145.715 0.348877 93.9999C0.348877 42.2849 42.2749 0.361572 93.9932 0.361572C145.712 0.361572 187.637 42.2849 187.637 93.9999Z" fill="black"/>
<mask id="mask0" mask-type="alpha" maskUnits="userSpaceOnUse" x="0" y="0" width="188" height="188">
<path d="M93.9932 187.638C145.712 187.638 187.637 145.715 187.637 93.9999C187.637 42.2849 145.712 0.361572 93.9932 0.361572C42.2749 0.361572 0.348877 42.2849 0.348877 93.9999C0.348877 145.715 42.2749 187.638 93.9932 187.638Z" fill="white"/>
</mask>
<g mask="url(#mask0)">
<g style="mix-blend-mode:darken">
<path d="M161.784 78.5329C160.413 75.3499 159.29 71.922 158.043 68.1269C152.057 50.1306 144.574 27.7271 110.775 22.8302C80.5939 18.5454 43.4284 38.0107 33.3264 78.0432C32.0792 83.0625 31.3309 87.7146 31.2062 92.2443C31.2062 92.2443 31.2062 92.2443 31.2062 92.3668C31.2062 92.6116 28.5871 114.525 8.38305 118.933C-21.1748 125.299 -27.2859 185.621 -26.2882 195.415C-26.1634 197.006 -24.7916 198.231 -23.1702 198.231H144.329C145.326 198.231 146.649 197.994 147.272 197.259C147.896 196.525 147.696 195.415 147.447 194.558C147.447 194.435 144.574 139.745 152.68 130.318C162.657 118.565 169.766 97.3861 161.784 78.5329ZM140.583 191.13L-20.0523 191.865C-19.4287 183.417 -12.8188 129.828 9.63021 124.931C21.8524 122.238 28.8366 114.403 32.7028 107.18C33.8252 111.098 35.5713 114.648 37.9409 117.708C44.6756 126.645 55.9 131.665 71.2402 132.644C72.9862 132.766 74.4828 131.42 74.6075 129.706C74.7322 127.992 73.3604 126.523 71.6143 126.4C71.3649 126.4 71.1155 126.4 70.866 126.4C52.1585 121.014 67.4987 114.158 55.2765 103.752C49.9137 99.1 37.5667 87.4698 39.4375 79.6347C48.5418 43.03 82.34 25.1562 109.778 29.0738C125.367 31.2774 134.596 37.6434 140.583 45.601C136.342 45.7234 132.975 49.1512 132.975 53.3136C132.975 57.5984 136.467 61.0263 140.832 61.0263C143.576 61.0263 145.945 59.6796 147.317 57.5984C149.063 61.7608 150.56 66.0457 151.932 70.2081C153.179 74.0032 154.426 77.6759 155.798 81.1038C163.905 100.079 153.927 119.055 147.567 126.523C140.458 134.725 140.208 185.499 140.583 191.13Z" fill="#FFFF00"/>
<path d="M129.607 61.5159C128.36 58.7001 126.739 56.0068 124.245 53.9256C122.124 52.2117 119.755 51.3547 117.011 51.8444C115.016 52.2117 113.269 53.3135 111.773 54.6601C109.528 56.8638 108.031 59.6795 106.784 62.6177C105.038 67.0249 104.29 71.5546 104.165 76.2067C104.041 78.5327 104.165 80.8588 104.664 83.0624C105.537 87.2248 106.909 91.1423 108.53 95.0599C111.149 101.181 114.392 106.935 118.009 112.444C118.258 112.811 118.383 112.934 118.632 112.444C120.254 109.996 121.75 107.547 123.247 104.976C126.115 99.9569 128.61 94.9375 130.48 89.5508C131.852 85.6333 132.85 81.5933 132.725 77.0637C132.725 75.9619 132.601 74.4928 132.476 73.1461C132.102 69.2285 131.229 65.311 129.607 61.5159Z" fill="#FFFF00"/>
<path d="M85.5825 60.9034C89.9219 60.9034 93.4397 57.4503 93.4397 53.1907C93.4397 48.9311 89.9219 45.478 85.5825 45.478C81.2432 45.478 77.7254 48.9311 77.7254 53.1907C77.7254 57.4503 81.2432 60.9034 85.5825 60.9034Z" fill="#FFFF00"/>
</g>
<g style="mix-blend-mode:darken">
<path d="M161.73 78.5329C160.359 75.3499 159.237 71.922 157.99 68.1269C152.005 50.1306 144.524 27.7271 110.736 22.8302C80.5632 18.5454 43.4083 38.0107 33.3092 78.0432C32.0624 83.0625 31.3143 87.7146 31.1896 92.2443C31.1896 92.2443 31.1896 92.2443 31.1896 92.3668C31.1896 92.6116 28.5713 114.525 8.37306 118.933C-21.1763 125.299 -27.2856 185.621 -26.2882 195.415C-26.1635 197.006 -24.792 198.231 -23.1712 198.231H144.183C145.18 198.231 146.053 197.863 146.676 197.129C147.3 196.394 147.549 195.415 147.3 194.558C147.3 194.435 144.524 139.745 152.629 130.318C162.603 118.565 169.835 97.3861 161.73 78.5329ZM140.659 191.13L-19.9295 191.865C-19.3061 183.417 -12.698 129.828 9.74454 124.931C21.9632 122.238 28.8207 114.525 32.8105 107.302C32.9352 107.67 33.1845 108.037 33.3092 108.404C34.4313 111.832 36.0522 114.893 38.0471 117.708C44.7798 126.645 56.0011 131.665 71.3368 132.644C73.0824 132.766 74.5785 131.42 74.7032 129.706C74.8279 127.992 73.4564 126.523 71.7109 126.4C67.7211 126.156 63.9807 125.666 60.739 124.809C55.1283 122.973 52.3854 120.034 50.6398 117.708C44.5305 109.384 52.51 107.058 46.1513 88.9389C42.1615 77.4311 57.4973 24.789 109.863 29.0738C125.573 30.298 134.675 37.6434 140.659 45.601C136.42 45.7234 133.054 49.1512 133.054 53.3136C133.054 57.5984 136.545 61.0263 140.909 61.0263C143.652 61.0263 146.021 59.6796 147.392 57.5984C149.138 61.7608 150.634 66.0457 152.005 70.2081C153.252 74.0032 154.499 77.6759 155.87 81.1038C163.975 100.079 154 119.055 147.641 126.523C140.535 134.725 140.161 185.499 140.659 191.13Z" fill="#00AEEF"/>
<path d="M129.562 61.5159C128.316 58.7001 126.695 56.0068 124.201 53.9256C122.082 52.2117 119.713 51.3547 116.97 51.8444C114.975 52.2117 113.229 53.3135 111.733 54.6601C109.489 56.8638 107.993 59.6795 106.746 62.6177C105 67.0249 104.252 71.5546 104.128 76.2067C104.003 78.5327 104.128 80.8588 104.626 83.0624C105.499 87.2248 106.871 91.1423 108.491 95.0599C111.11 101.181 114.351 106.935 117.967 112.444C118.217 112.811 118.341 112.934 118.591 112.444C120.211 109.996 121.708 107.547 123.204 104.976C126.071 99.9569 128.565 94.9375 130.435 89.5508C131.807 85.6333 132.804 81.5933 132.679 77.0637C132.679 75.9619 132.555 74.4928 132.43 73.1461C132.056 69.2285 131.183 65.311 129.562 61.5159Z" fill="#00AEEF"/>
<path d="M85.6748 60.9034C90.0129 60.9034 93.5297 57.4503 93.5297 53.1907C93.5297 48.9311 90.0129 45.478 85.6748 45.478C81.3367 45.478 77.8199 48.9311 77.8199 53.1907C77.8199 57.4503 81.3367 60.9034 85.6748 60.9034Z" fill="#00AEEF"/>
</g>
<g style="mix-blend-mode:darken">
<path d="M161.784 78.5329C160.413 75.3499 159.29 71.922 158.043 68.1269C152.057 50.1306 144.574 27.7271 110.775 22.8302C80.5939 18.5454 43.4284 38.0107 33.3264 78.0432C32.0792 83.0625 31.3309 87.7146 31.2062 92.2443C31.2062 92.2443 31.2062 92.2443 31.2062 92.3668C31.2062 92.6116 28.5871 114.525 8.38305 118.933C-21.1748 125.299 -27.2859 185.621 -26.2882 195.415C-26.1634 197.006 -24.7916 198.231 -23.1702 198.231H144.223C145.22 198.231 146.07 197.773 146.694 197.039C147.317 196.304 147.567 194.558 147.317 193.701C147.317 194.345 144.574 139.745 152.68 130.318C162.657 118.565 169.766 97.3861 161.784 78.5329ZM140.583 191.13L-20.0523 191.865C-19.4287 183.417 -12.8188 129.828 9.63021 124.931C21.8524 122.238 28.8366 114.403 32.7028 107.18C33.8252 111.098 35.5713 114.648 37.9409 117.708C43.5531 125.299 52.408 129.951 64.2561 131.787C67.2493 132.399 69.993 132.644 72.3626 132.644C76.9771 132.644 75.8547 118.443 63.383 118.198C52.2833 117.953 39.188 114.525 37.5667 95.4273C37.5667 93.4686 37.5667 91.5098 37.8162 89.4286C38.1903 86.2455 38.6892 82.9401 39.5622 79.5123C48.6665 42.9077 82.4647 25.0338 109.902 28.9514C125.492 31.155 134.721 37.521 140.707 45.4785C136.467 45.601 133.1 49.0288 133.1 53.1912C133.1 57.4761 136.592 60.9039 140.957 60.9039C143.701 60.9039 146.07 59.5572 147.442 57.476C149.188 61.6384 150.685 65.9233 152.057 70.0857C153.304 73.8808 154.551 77.5535 155.923 80.9813C164.029 99.957 154.052 118.933 147.691 126.4C140.458 134.725 140.084 185.499 140.583 191.13Z" fill="#FF00FF"/>
<path d="M129.608 61.5159C128.36 58.7001 126.739 56.0068 124.245 53.9256C122.125 52.2117 119.755 51.3547 117.011 51.8444C115.016 52.2117 113.27 53.3135 111.773 54.6601C109.528 56.8638 108.032 59.6795 106.785 62.6177C105.038 67.0249 104.29 71.5546 104.165 76.2067C104.041 78.5327 104.165 80.8588 104.664 83.0624C105.537 87.2248 106.909 91.1423 108.531 95.0599C111.15 101.181 114.392 106.935 118.009 112.444C118.258 112.811 118.383 112.934 118.633 112.444C120.254 109.996 121.75 107.547 123.247 104.976C126.116 99.9569 128.61 94.9375 130.481 89.5508C131.852 85.6333 132.85 81.5933 132.726 77.0637C132.726 75.9619 132.601 74.4928 132.476 73.1461C132.102 69.2285 131.229 65.311 129.608 61.5159Z" fill="#FF00FF"/>
<path d="M85.5827 60.9034C89.9221 60.9034 93.4399 57.4503 93.4399 53.1907C93.4399 48.9311 89.9221 45.478 85.5827 45.478C81.2433 45.478 77.7256 48.9311 77.7256 53.1907C77.7256 57.4503 81.2433 60.9034 85.5827 60.9034Z" fill="#FF00FF"/>
</g>
</g>
</svg>
