<svg width="24" height="24" viewBox="0 0 24 24" fill="none" xmlns="http://www.w3.org/2000/svg">
    <path d="M24 12C24 18.6274 18.6274 24 12 24C5.37258 24 0 18.6274 0 12C0 5.37258 5.37258 0 12 0C18.6274 0 24 5.37258 24 12Z" fill="black" />
    <path d="M16.8593 7.40192C15.9531 6.98058 14.9841 6.67436 13.971 6.5C13.8466 6.72353 13.7013 7.02417 13.601 7.26334C12.5241 7.1024 11.4571 7.1024 10.4 7.26334C10.2998 7.02417 10.1512 6.72353 10.0256 6.5C9.01147 6.67436 8.04136 6.9817 7.13511 7.40415C5.30721 10.149 4.81169 12.8256 5.05945 15.4643C6.27181 16.364 7.44674 16.9105 8.60184 17.2681C8.88704 16.8781 9.1414 16.4634 9.36052 16.0265C8.94319 15.8689 8.54347 15.6744 8.16579 15.4487C8.26599 15.3749 8.364 15.2978 8.45869 15.2184C10.7623 16.2891 13.2652 16.2891 15.5413 15.2184C15.6371 15.2978 15.7351 15.3749 15.8342 15.4487C15.4554 15.6755 15.0546 15.87 14.6372 16.0276C14.8563 16.4634 15.1096 16.8792 15.3959 17.2692C16.5521 16.9116 17.7281 16.3651 18.9405 15.4643C19.2312 12.4054 18.4439 9.75335 16.8593 7.40192ZM9.67435 13.8416C8.98284 13.8416 8.41574 13.2 8.41574 12.4188C8.41574 11.6376 8.97073 10.995 9.67435 10.995C10.378 10.995 10.9451 11.6365 10.933 12.4188C10.9341 13.2 10.378 13.8416 9.67435 13.8416ZM14.3256 13.8416C13.6341 13.8416 13.067 13.2 13.067 12.4188C13.067 11.6376 13.622 10.995 14.3256 10.995C15.0292 10.995 15.5963 11.6365 15.5842 12.4188C15.5842 13.2 15.0292 13.8416 14.3256 13.8416Z" fill="white" />
</svg>
    